<?xml version="1.0" encoding="UTF-8"?>
<svg width="64px" height="64px" viewBox="0 0 64 64" version="1.1" xmlns="http://www.w3.org/2000/svg" xmlns:xlink="http://www.w3.org/1999/xlink">
    <title>10-year-warranty-64x64</title>
    <g id="10-year-warranty-64x64" stroke="none" stroke-width="1" fill="none" fill-rule="evenodd">
        <g id="10-year-warranty-icon" transform="translate(12.530000, 9.610000)">
            <path d="M11.4051534,34.39 L8.54906139,41.5411788 C8.34421879,42.0540706 8.59394197,42.6359092 9.10683373,42.8407518 C9.24740604,42.8968947 9.39888951,42.9203927 9.54986429,42.9094744 L12.2863427,42.7115761 L12.2863427,42.7115761 L16.8936995,45.2795396 C17.376113,45.5484183 17.9851555,45.3753142 18.2540342,44.8929007 C18.31626,44.7812572 18.3565064,44.6587197 18.3725942,44.5319226 L19.5,35.646235 L19.5,35.646235 L15.4754601,35.646235" id="Path" fill="#FFE3EE"></path>
            <polyline id="Path" stroke="#C40058" stroke-width="1.5" stroke-linecap="round" stroke-linejoin="round" points="10.4047428 33.1215918 7.47 41.9008955 12.9736768 41.2093568 16.9913661 43.8851699 19.5 35.8594963"></polyline>
            <path d="M24.319571,32.39 L21.3442011,40.8822029 C21.1615842,41.4034221 21.4360756,41.9739941 21.9572949,42.156611 C22.1001855,42.2066749 22.252579,42.2236384 22.4029811,42.2062222 L26.6520757,41.7141869 L26.6520757,41.7141869 L29.686155,43.8909626 C30.1348967,44.2129087 30.7596627,44.1101205 31.0816088,43.6613788 C31.1527878,43.5621666 31.2051948,43.4507573 31.2362363,43.3326644 L33.1838074,35.9234057 L33.1838074,35.9234057 L27.8028016,35.646235" id="Path" fill="#FFE3EE" transform="translate(26.999865, 38.564013) scale(-1, 1) translate(-26.999865, -38.564013) "></path>
            <polyline id="Path" stroke="#C40058" stroke-width="1.5" stroke-linecap="round" stroke-linejoin="round" transform="translate(25.485000, 38.503381) scale(-1, 1) translate(-25.485000, -38.503381) " points="22.4047428 33.1215918 19.47 41.9008955 24.9736768 41.2093568 28.9913661 43.8851699 31.5 35.8594963"></polyline>
            <path d="M14.79612,35.9977397 C14.4467322,35.9977397 14.0973443,35.9516137 13.749434,35.8402052 C12.4939313,35.4382748 11.6960945,34.3366774 10.9921828,33.3647328 C10.5433819,32.7451883 10.1194871,32.159982 9.64655415,31.820554 C9.16327886,31.4738423 8.46056328,31.2533147 7.71647834,31.0197455 C6.57002752,30.6599227 5.27055243,30.2520958 4.50451643,29.2141802 C3.74593817,28.1865313 3.75156666,26.9060284 3.75691371,25.6676331 C3.7602908,24.8915203 3.76345682,24.158417 3.57511384,23.5864603 C3.39971636,23.053906 2.97258516,22.484863 2.52054794,21.8824529 C1.79524806,20.9161272 0.973208701,19.8207731 0.973208701,18.4959427 C0.973208701,17.1711817 1.79524806,16.0758276 2.52054794,15.1095019 C2.97258516,14.5070225 3.39971636,13.9380488 3.57511384,13.4054945 C3.76345682,12.8334685 3.7602908,12.1004345 3.75691371,11.3243911 C3.7514963,10.0859958 3.74593817,8.80542351 4.50451643,7.77777465 C5.27055243,6.73978965 6.57002752,6.33196275 7.7165487,5.97213997 C8.46056328,5.73864018 9.16334924,5.51804322 9.64655415,5.17133139 C10.1194871,4.83197279 10.5433819,4.24676652 10.9921828,3.62722204 C11.6960945,2.65527739 12.4939313,1.55361062 13.7493636,1.15174955 C14.9545616,0.765912984 16.176223,1.16305688 17.3577815,1.5471592 C18.1172744,1.79404743 18.8345537,2.02720038 19.4645916,2.02720038 C20.0946998,2.02720038 20.8119791,1.79404743 21.571472,1.5471592 C22.7530304,1.16312625 23.9749732,0.765843614 25.1798195,1.15174955 C26.4352517,1.55361062 27.2330887,2.65527739 27.9370707,3.62722204 C28.3858011,4.24676652 28.8097663,4.83197279 29.2826993,5.17140076 C29.7659042,5.51804322 30.4686902,5.73864018 31.2127047,5.97213997 C32.3592259,6.33203212 33.658701,6.73985902 34.424737,7.77777465 C35.1833152,8.80542351 35.1776868,10.0859958 35.1723397,11.3243911 C35.1689626,12.1004345 35.1657966,12.8334685 35.3541396,13.4054945 C35.529537,13.9381181 35.9566682,14.5070918 36.4087055,15.1095019 C37.133935,16.0758969 37.9559743,17.1711817 37.9559743,18.4959427 C37.9559743,19.8207731 37.133935,20.9159885 36.4087055,21.8823835 C35.9566682,22.4847242 35.529537,23.0537672 35.3541396,23.5864603 C35.1657966,24.158417 35.1689626,24.8915203 35.1723397,25.6675637 C35.1776868,26.905959 35.1833152,28.1865313 34.4246666,29.2141802 C33.658701,30.2520958 32.3592259,30.6599227 31.2127751,31.0197455 C30.4686902,31.2533147 29.7659042,31.4738423 29.2826993,31.820554 C28.8097663,32.159982 28.3858011,32.7451883 27.9370707,33.3647328 C27.2330887,34.3366774 26.4352517,35.4382748 25.1798195,35.8402052 C23.9749028,36.2260418 22.7530304,35.8288286 21.571472,35.4447263 C20.8119791,35.197838 20.0946998,34.9646851 19.4645916,34.9646851 C18.8345537,34.9646851 18.1172744,35.197838 17.3577815,35.4447263 C16.5174496,35.7179058 15.656644,35.9977397 14.79612,35.9977397" id="Fill-5-path" stroke="#C40058" stroke-width="1.5" fill-rule="nonzero"></path>
        </g>
        <circle id="Oval" stroke="#C40058" stroke-width="1.5" cx="32" cy="32" r="30.9405621"></circle>
        <path d="M28.7150899,31.61 L28.7150899,19.1212396 L27.0675498,19.1212396 L23.2639697,20.9925196 L23.2639697,23.5350197 L26.1725898,22.0908797 L26.1725898,31.61 L28.7150899,31.61 Z M35.5086501,31.8134 C38.4376102,31.8134 40.4309303,29.1691999 40.4309303,25.3656198 C40.4309303,21.5620396 38.4376102,18.9178395 35.5086501,18.9178395 C32.57969,18.9178395 30.5863699,21.5620396 30.5863699,25.3656198 C30.5863699,29.1691999 32.57969,31.8134 35.5086501,31.8134 Z M35.5086501,29.4946399 C33.8204301,29.4946399 33.12887,27.6843799 33.12887,25.3656198 C33.12887,23.0468597 33.8204301,21.2365996 35.5086501,21.2365996 C37.1765302,21.2365996 37.8884302,23.0468597 37.8884302,25.3656198 C37.8884302,27.6843799 37.1765302,29.4946399 35.5086501,29.4946399 Z" id="10" fill="#C40058" fill-rule="nonzero"></path>
        <path d="M24.8491497,37.2 L24.8491497,35.8998599 L26.0934898,33.7738798 L25.3401897,33.7738798 L24.5143497,35.2246799 L23.6829297,33.7738798 L22.9073096,33.7738798 L24.1404897,35.8998599 L24.1404897,37.2 L24.8491497,37.2 Z M29.3109499,37.2 L29.3109499,36.5694599 L27.6871698,36.5694599 L27.6871698,35.7547799 L29.1602899,35.7547799 L29.1602899,35.1465599 L27.6871698,35.1465599 L27.6871698,34.3988398 L29.3109499,34.3988398 L29.3109499,33.7738798 L26.9840898,33.7738798 L26.9840898,37.2 L29.3109499,37.2 Z M30.83209,37.2 L31.13341,36.3741599 L32.41681,36.3741599 L32.72371,37.2 L33.4491101,37.2 L32.13781,33.7738798 L31.42915,33.7738798 L30.1178499,37.2 L30.83209,37.2 Z M32.19361,35.7715199 L31.35661,35.7715199 L31.77511,34.6331999 L32.19361,35.7715199 Z M35.0706901,37.2 L35.0706901,35.9221799 L35.4445502,35.9221799 L36.2927102,37.2 L37.0962302,37.2 L36.1922702,35.8719599 C36.6721502,35.7547799 36.9734702,35.4088199 36.9734702,34.8619799 C36.9734702,34.1588998 36.4935902,33.7738798 35.7737702,33.7738798 L34.3620301,33.7738798 L34.3620301,37.2 L35.0706901,37.2 Z M35.7291302,35.3362799 L35.0706901,35.3362799 L35.0706901,34.3820998 L35.7291302,34.3820998 C36.0862502,34.3820998 36.2703902,34.5718198 36.2703902,34.8619799 C36.2703902,35.1465599 36.0862502,35.3362799 35.7291302,35.3362799 Z M39.2144303,37.2558 C39.9398303,37.2558 40.4866704,36.85404 40.4866704,36.1900199 C40.4866704,35.6710799 40.1462904,35.3530199 39.5882903,35.2246799 L38.9633303,35.0795999 C38.7066503,35.0182199 38.5783103,34.9010399 38.5783103,34.7057399 C38.5783103,34.4602198 38.7959303,34.3039798 39.1195703,34.3039798 C39.4766903,34.3039798 39.6719903,34.4825398 39.7501103,34.7113199 L40.4587704,34.7113199 C40.3471704,34.1309998 39.8951903,33.7180798 39.1139903,33.7180798 C38.3941703,33.7180798 37.8808102,34.1533198 37.8808102,34.7726999 C37.8808102,35.3362799 38.2602503,35.5985399 38.7512903,35.7101399 L39.3650903,35.8496399 C39.6608303,35.9165999 39.7835903,36.0281999 39.7835903,36.2346599 C39.7835903,36.5080799 39.5548103,36.6643199 39.2088503,36.6643199 C38.8740503,36.6643199 38.6229503,36.5248199 38.5280903,36.2234999 L37.7915302,36.2234999 C37.9087102,36.87636 38.4499703,37.2558 39.2144303,37.2558 Z" id="YEARS" fill="#C40058" fill-rule="nonzero"></path>
    </g>
</svg>