<?xml version="1.0" encoding="UTF-8"?>
<svg width="64px" height="64px" viewBox="0 0 64 64" version="1.1" xmlns="http://www.w3.org/2000/svg" xmlns:xlink="http://www.w3.org/1999/xlink">
    <title>100-night-trial-64x64</title>
    <g id="100-night-trial-64x64" stroke="none" stroke-width="1" fill="none" fill-rule="evenodd">
        <path d="M22.0585599,23.4203308 C16.0490083,25.3969669 11.9306201,31.0201742 11.9306201,37.417629 C11.9306201,45.5440864 18.5536878,52.1554908 26.6944812,52.1554908 C31.3316941,52.1554908 35.6557717,49.9980249 38.4456554,46.3379965 C37.4873594,46.5198738 36.5095278,46.6117391 35.5273369,46.6117391 C26.969514,46.6117391 20.0071558,39.6616417 20.0071558,31.1188085 C20.0071558,28.4003999 20.7137487,25.7588681 22.0585599,23.4203308 L22.0585599,23.4203308 Z" id="Fill-9-path" fill="#FDE4EE" fill-rule="nonzero"></path>
        <rect id="Rectangle" fill="#FFE3EE" x="32.7976679" y="17.5209239" width="19" height="19.2669869" rx="1"></rect>
        <path d="M23.8606158,22.0058817 C17.6777119,24.0395362 13.4405241,29.8249512 13.4405241,36.4069478 C13.4405241,44.7678221 20.2546417,51.5699399 28.6302655,51.5699399 C33.4012441,51.5699399 37.8500545,49.3502394 40.7204155,45.5846333 C39.7344764,45.7717571 38.7284381,45.8662724 37.7179149,45.8662724 C28.9132319,45.8662724 21.7500366,38.7156916 21.7500366,29.9264308 C21.7500366,27.1296066 22.477012,24.4118768 23.8606158,22.0058817 L23.8606158,22.0058817 Z" id="Fill-9-path" stroke="#C40058" stroke-width="1.6049999" stroke-linejoin="round"></path>
        <g id="Group" transform="translate(31.340392, 13.818937)" stroke="#C40058" stroke-width="1.5">
            <line x1="0.0592813657" y1="6.31512721" x2="19.1963379" y2="6.31512721" id="Path-88"></line>
            <line x1="4.15816358" y1="0.486164245" x2="4.15816358" y2="3.70198697" id="Path-89" stroke-linecap="round"></line>
            <line x1="15.159725" y1="0.486164245" x2="15.159725" y2="3.70198697" id="Path-89" stroke-linecap="round"></line>
            <polygon id="Path-87" stroke-linecap="round" stroke-linejoin="round" points="1.77635684e-15 2.0940756 19.3192167 2.0940756 19.3192167 21.3413272 1.77635684e-15 21.3413272"></polygon>
        </g>
        <path d="M37.0423066,30.1404269 L37.0423066,24.303743 L36.2723206,24.303743 L34.4946986,25.178295 L34.4946986,26.3665449 L35.8540566,25.691619 L35.8540566,30.1404269 L37.0423066,30.1404269 Z M40.2173105,30.2354869 C41.5861745,30.2354869 42.5177625,28.9997069 42.5177625,27.2220849 C42.5177625,25.444463 41.5861745,24.208683 40.2173105,24.208683 C38.8484466,24.208683 37.9168586,25.444463 37.9168586,27.2220849 C37.9168586,28.9997069 38.8484466,30.2354869 40.2173105,30.2354869 Z M40.2173105,29.1518029 C39.4283126,29.1518029 39.1051086,28.3057689 39.1051086,27.2220849 C39.1051086,26.1384009 39.4283126,25.292367 40.2173105,25.292367 C40.9968025,25.292367 41.3295125,26.1384009 41.3295125,27.2220849 C41.3295125,28.3057689 40.9968025,29.1518029 40.2173105,29.1518029 Z M45.4265985,30.2354869 C46.7954625,30.2354869 47.7270505,28.9997069 47.7270505,27.2220849 C47.7270505,25.444463 46.7954625,24.208683 45.4265985,24.208683 C44.0577345,24.208683 43.1261465,25.444463 43.1261465,27.2220849 C43.1261465,28.9997069 44.0577345,30.2354869 45.4265985,30.2354869 Z M45.4265985,29.1518029 C44.6376005,29.1518029 44.3143965,28.3057689 44.3143965,27.2220849 C44.3143965,26.1384009 44.6376005,25.292367 45.4265985,25.292367 C46.2060905,25.292367 46.5388005,26.1384009 46.5388005,27.2220849 C46.5388005,28.3057689 46.2060905,29.1518029 45.4265985,29.1518029 Z" id="100" fill="#C40058" fill-rule="nonzero"></path>
        <circle id="Oval" stroke="#C40058" stroke-width="1.5" cx="32" cy="32" r="30.9405621"></circle>
    </g>
</svg>