<?xml version="1.0" encoding="UTF-8"?>
<svg width="64px" height="64px" viewBox="0 0 64 64" version="1.1" xmlns="http://www.w3.org/2000/svg" xmlns:xlink="http://www.w3.org/1999/xlink">
    <title>Free-Shipping-Coast-To-Coast-64x64</title>
    <defs>
        <polygon id="path-1" points="0.0413395586 0.00373564308 24.6875298 0.00373564308 24.6875298 18.8566929 0.0413395586 18.8566929"></polygon>
        <polygon id="path-3" points="0 0.0698062381 8.09847639 0.0698062381 8.09847639 1.86578849 0 1.86578849"></polygon>
    </defs>
    <g id="Free-Shipping-Coast-To-Coast-64x64" stroke="none" stroke-width="1" fill="none" fill-rule="evenodd">
        <path d="M18,23 L41,23 L41,40 L28.6682053,40 C27.1533666,37.9559525 25.9744963,36.9339287 25.1315943,36.9339287 C24.2886924,36.9339287 23.0688946,37.9559525 21.4722009,40 L18,40 L18,23 Z" id="Rectangle" fill="#FFE3EE"></path>
        <g id="endy-free-shipping-coast-to-coast" transform="translate(7.000000, 22.500000)">
            <g id="Group-3" transform="translate(9.873193, 0.068104)">
                <g id="Fill-1-Clipped">
                    <mask id="mask-2" fill="white">
                        <use xlink:href="#path-1"></use>
                    </mask>
                    <g id="path-1"></g>
                    <path d="M23.7996527,18.8566929 L11.9175839,18.8566929 C11.4271916,18.8566929 11.0297067,18.4546084 11.0297067,17.9587018 C11.0297067,17.4627952 11.4271916,17.0607107 11.9175839,17.0607107 L22.9117756,17.0607107 L22.9117756,1.79967479 L1.8170938,1.79967479 L1.8170938,17.0607107 L4.59920347,17.0607107 C5.08959576,17.0607107 5.48708059,17.4627952 5.48708059,17.9587018 C5.48708059,18.4546084 5.08959576,18.8566929 4.59920347,18.8566929 L0.92921668,18.8566929 C0.438895417,18.8566929 0.0413395586,18.4546084 0.0413395586,17.9587018 L0.0413395586,0.901683666 C0.0413395586,0.405777045 0.438895417,0.0036925395 0.92921668,0.0036925395 L23.7996527,0.0036925395 C24.2899739,0.0036925395 24.6875298,0.405777045 24.6875298,0.901683666 L24.6875298,17.9587018 C24.6875298,18.4546084 24.2899739,18.8566929 23.7996527,18.8566929" id="Fill-1" fill="#C40058" fill-rule="nonzero" mask="url(#mask-2)"></path>
                </g>
            </g>
            <path d="M47.1728047,18.9247966 L44.0819979,18.9247966 C43.5916767,18.9247966 43.1941209,18.522712 43.1941209,18.0268054 C43.1941209,17.5308989 43.5916767,17.1288143 44.0819979,17.1288143 L46.2849336,17.1288143 L46.2849336,13.7374251 L41.833609,4.32195226 L34.5606879,4.32195226 L34.5606879,17.1288143 L36.7636885,17.1288143 C37.2540099,17.1288143 37.6515657,17.5308989 37.6515657,18.0268054 C37.6515657,18.522712 37.2540099,18.9247966 36.7636885,18.9247966 L33.6728108,18.9247966 C33.1824895,18.9247966 32.7849336,18.522712 32.7849336,18.0268054 L32.7849336,3.42396114 C32.7849336,2.92805451 33.1824895,2.52597001 33.6728108,2.52597001 L42.3932556,2.52597001 C42.7351949,2.52597001 43.0467333,2.72460564 43.1942629,3.03660369 L47.973812,13.1463315 C48.0309912,13.2673088 48.0606819,13.3997086 48.0606819,13.5337607 L48.0606819,18.0268054 C48.0606819,18.522712 47.663126,18.9247966 47.1728047,18.9247966" id="Fill-4" fill="#C40058" fill-rule="nonzero"></path>
            <path d="M18.1315943,15.2239452 C16.6034513,15.2239452 15.3602812,16.4812765 15.3602812,18.026827 C15.3602812,19.5723056 16.6034513,20.8296369 18.1315943,20.8296369 C19.6597374,20.8296369 20.9029075,19.5723056 20.9029075,18.026827 C20.9029075,16.4812765 19.6597374,15.2239452 18.1315943,15.2239452 M18.1315943,22.6256192 C15.6243004,22.6256192 13.584527,20.5625384 13.584527,18.026827 C13.584527,15.4910437 15.6243004,13.427963 18.1315943,13.427963 C20.6388173,13.427963 22.6786616,15.4910437 22.6786616,18.026827 C22.6786616,20.5625384 20.6388173,22.6256192 18.1315943,22.6256192" id="Fill-6" fill="#C40058" fill-rule="nonzero"></path>
            <path d="M40.4228574,15.2239452 C38.8947144,15.2239452 37.6515443,16.4812765 37.6515443,18.026827 C37.6515443,19.5723056 38.8947144,20.8296369 40.4228574,20.8296369 C41.9510005,20.8296369 43.1941706,19.5723056 43.1941706,18.026827 C43.1941706,16.4812765 41.9510005,15.2239452 40.4228574,15.2239452 M40.4228574,22.6256192 C37.9156345,22.6256192 35.8757901,20.5625384 35.8757901,18.026827 C35.8757901,15.4910437 37.9156345,13.427963 40.4228574,13.427963 C42.9300804,13.427963 44.9699248,15.4910437 44.9699248,18.026827 C44.9699248,20.5625384 42.9300804,22.6256192 40.4228574,22.6256192" id="Fill-8" fill="#C40058" fill-rule="nonzero"></path>
            <path d="M45.5631119,11.0268928 L37.7262112,11.0268928 C37.23589,11.0268928 36.8383342,10.6248083 36.8383342,10.1289016 L36.8383342,6.89548706 C36.8383342,6.39958044 37.23589,5.99749594 37.7262112,5.99749594 L44.0819909,5.99749594 C44.5723831,5.99749594 44.969868,6.39958044 44.969868,6.89548706 C44.969868,7.39146551 44.5723831,7.79347822 44.0819909,7.79347822 L38.6140884,7.79347822 L38.6140884,9.23091056 L45.5631119,9.23091056 C46.0534332,9.23091056 46.4509891,9.63299505 46.4509891,10.1289016 C46.4509891,10.6248083 46.0534332,11.0268928 45.5631119,11.0268928" id="Fill-10" fill="#C40058" fill-rule="nonzero"></path>
            <g id="Group-14" transform="translate(0.000000, 14.364123)">
                <g id="Fill-12-Clipped">
                    <mask id="mask-4" fill="white">
                        <use xlink:href="#path-3"></use>
                    </mask>
                    <g id="path-3"></g>
                    <path d="M7.21059923,1.86578849 L0.887848709,1.86578849 C0.397527447,1.86578849 -2.84120678e-05,1.46370398 -2.84120678e-05,0.967797362 C-2.84120678e-05,0.471890744 0.397527447,0.0698062381 0.887848709,0.0698062381 L7.21059923,0.0698062381 C7.70092046,0.0698062381 8.09847639,0.471890744 8.09847639,0.967797362 C8.09847639,1.46370398 7.70092046,1.86578849 7.21059923,1.86578849" id="Fill-12" fill="#C40058" fill-rule="nonzero" mask="url(#mask-4)"></path>
                </g>
            </g>
            <path d="M7.21059923,12.2426219 L4.01203968,12.2426219 C3.52171842,12.2426219 3.12416256,11.8405374 3.12416256,11.3446308 C3.12416256,10.8487241 3.52171842,10.4466396 4.01203968,10.4466396 L7.21059923,10.4466396 C7.70092046,10.4466396 8.09847639,10.8487241 8.09847639,11.3446308 C8.09847639,11.8405374 7.70092046,12.2426219 7.21059923,12.2426219" id="Fill-15" fill="#C40058" fill-rule="nonzero"></path>
            <path d="M7.21059923,8.25525398 L3.11940354,8.25525398 C2.62908228,8.25525398 2.23152642,7.85316942 2.23152642,7.35726283 C2.23152642,6.86135622 2.62908228,6.45927171 3.11940354,6.45927171 L7.21059923,6.45927171 C7.70092046,6.45927171 8.09847639,6.86135622 8.09847639,7.35726283 C8.09847639,7.85316942 7.70092046,8.25525398 7.21059923,8.25525398" id="Fill-17" fill="#C40058" fill-rule="nonzero"></path>
        </g>
        <circle id="Oval" stroke="#C40058" stroke-width="1.5" cx="32" cy="32" r="30.9405621"></circle>
    </g>
</svg>