<?xml version="1.0" encoding="UTF-8"?>
<svg width="95px" height="102px" viewBox="0 0 95 102" version="1.1" xmlns="http://www.w3.org/2000/svg" xmlns:xlink="http://www.w3.org/1999/xlink">
    <!-- Generator: Sketch 55.1 (78136) - https://sketchapp.com -->
    <title>Breathable-Cool-Illustration-93x101</title>
    <desc>Created with Sketch.</desc>
    <defs>
        <path d="M0.242042042,46.2393393 C0.242042042,71.6972973 20.8798799,92.3354354 46.3381381,92.3354354 L46.3381381,92.3354354 C71.7960961,92.3354354 92.4342342,71.6972973 92.4342342,46.2393393 L92.4342342,46.2393393 C92.4342342,20.7810811 71.7960961,0.143243243 46.3381381,0.143243243 L46.3381381,0.143243243 C20.8798799,0.143243243 0.242042042,20.7810811 0.242042042,46.2393393" id="path-1"></path>
        <path d="M0.242042042,46.2393393 C0.242042042,71.6972973 20.8798799,92.3354354 46.3381381,92.3354354 L46.3381381,92.3354354 C71.7960961,92.3354354 92.4342342,71.6972973 92.4342342,46.2393393 L92.4342342,46.2393393 C92.4342342,20.7810811 71.7960961,0.143243243 46.3381381,0.143243243 L46.3381381,0.143243243 C20.8798799,0.143243243 0.242042042,20.7810811 0.242042042,46.2393393" id="path-3"></path>
        <path d="M0.242042042,46.2393393 C0.242042042,71.6972973 20.8798799,92.3354354 46.3381381,92.3354354 L46.3381381,92.3354354 C71.7960961,92.3354354 92.4342342,71.6972973 92.4342342,46.2393393 L92.4342342,46.2393393 C92.4342342,20.7810811 71.7960961,0.143243243 46.3381381,0.143243243 L46.3381381,0.143243243 C20.8798799,0.143243243 0.242042042,20.7810811 0.242042042,46.2393393" id="path-5"></path>
        <path d="M0.242042042,46.2393393 C0.242042042,71.6972973 20.8798799,92.3354354 46.3381381,92.3354354 L46.3381381,92.3354354 C71.7960961,92.3354354 92.4342342,71.6972973 92.4342342,46.2393393 L92.4342342,46.2393393 C92.4342342,20.7810811 71.7960961,0.143243243 46.3381381,0.143243243 L46.3381381,0.143243243 C20.8798799,0.143243243 0.242042042,20.7810811 0.242042042,46.2393393" id="path-7"></path>
        <path d="M0.242042042,46.2393393 C0.242042042,71.6972973 20.8798799,92.3354354 46.3381381,92.3354354 L46.3381381,92.3354354 C71.7960961,92.3354354 92.4342342,71.6972973 92.4342342,46.2393393 L92.4342342,46.2393393 C92.4342342,20.7810811 71.7960961,0.143243243 46.3381381,0.143243243 L46.3381381,0.143243243 C20.8798799,0.143243243 0.242042042,20.7810811 0.242042042,46.2393393" id="path-9"></path>
        <path d="M0.242042042,46.2393393 C0.242042042,71.6972973 20.8798799,92.3354354 46.3381381,92.3354354 L46.3381381,92.3354354 C71.7960961,92.3354354 92.4342342,71.6972973 92.4342342,46.2393393 L92.4342342,46.2393393 C92.4342342,20.7810811 71.7960961,0.143243243 46.3381381,0.143243243 L46.3381381,0.143243243 C20.8798799,0.143243243 0.242042042,20.7810811 0.242042042,46.2393393" id="path-11"></path>
        <path d="M0.242042042,46.2393393 C0.242042042,71.6972973 20.8798799,92.3354354 46.3381381,92.3354354 L46.3381381,92.3354354 C71.7960961,92.3354354 92.4342342,71.6972973 92.4342342,46.2393393 L92.4342342,46.2393393 C92.4342342,20.7810811 71.7960961,0.143243243 46.3381381,0.143243243 L46.3381381,0.143243243 C20.8798799,0.143243243 0.242042042,20.7810811 0.242042042,46.2393393" id="path-13"></path>
        <path d="M0.242042042,46.2393393 C0.242042042,71.6972973 20.8798799,92.3354354 46.3381381,92.3354354 L46.3381381,92.3354354 C71.7960961,92.3354354 92.4342342,71.6972973 92.4342342,46.2393393 L92.4342342,46.2393393 C92.4342342,20.7810811 71.7960961,0.143243243 46.3381381,0.143243243 L46.3381381,0.143243243 C20.8798799,0.143243243 0.242042042,20.7810811 0.242042042,46.2393393" id="path-15"></path>
        <path d="M0.242042042,46.2393393 C0.242042042,71.6972973 20.8798799,92.3354354 46.3381381,92.3354354 L46.3381381,92.3354354 C71.7960961,92.3354354 92.4342342,71.6972973 92.4342342,46.2393393 L92.4342342,46.2393393 C92.4342342,20.7810811 71.7960961,0.143243243 46.3381381,0.143243243 L46.3381381,0.143243243 C20.8798799,0.143243243 0.242042042,20.7810811 0.242042042,46.2393393" id="path-17"></path>
        <path d="M0.242042042,46.2393393 C0.242042042,71.6972973 20.8798799,92.3354354 46.3381381,92.3354354 L46.3381381,92.3354354 C71.7960961,92.3354354 92.4342342,71.6972973 92.4342342,46.2393393 L92.4342342,46.2393393 C92.4342342,20.7810811 71.7960961,0.143243243 46.3381381,0.143243243 L46.3381381,0.143243243 C20.8798799,0.143243243 0.242042042,20.7810811 0.242042042,46.2393393" id="path-19"></path>
        <path d="M0.242042042,46.2393393 C0.242042042,71.6972973 20.8798799,92.3354354 46.3381381,92.3354354 L46.3381381,92.3354354 C71.7960961,92.3354354 92.4342342,71.6972973 92.4342342,46.2393393 L92.4342342,46.2393393 C92.4342342,20.7810811 71.7960961,0.143243243 46.3381381,0.143243243 L46.3381381,0.143243243 C20.8798799,0.143243243 0.242042042,20.7810811 0.242042042,46.2393393" id="path-21"></path>
        <path d="M0.242042042,46.2393393 C0.242042042,71.6972973 20.8798799,92.3354354 46.3381381,92.3354354 L46.3381381,92.3354354 C71.7960961,92.3354354 92.4342342,71.6972973 92.4342342,46.2393393 L92.4342342,46.2393393 C92.4342342,20.7810811 71.7960961,0.143243243 46.3381381,0.143243243 L46.3381381,0.143243243 C20.8798799,0.143243243 0.242042042,20.7810811 0.242042042,46.2393393" id="path-23"></path>
        <path d="M0.242042042,46.2393393 C0.242042042,71.6972973 20.8798799,92.3354354 46.3381381,92.3354354 L46.3381381,92.3354354 C71.7960961,92.3354354 92.4342342,71.6972973 92.4342342,46.2393393 L92.4342342,46.2393393 C92.4342342,20.7810811 71.7960961,0.143243243 46.3381381,0.143243243 L46.3381381,0.143243243 C20.8798799,0.143243243 0.242042042,20.7810811 0.242042042,46.2393393" id="path-25"></path>
    </defs>
    <g id="Template" stroke="none" stroke-width="1" fill="none" fill-rule="evenodd">
        <g id="Mobile-Small" transform="translate(-140.000000, -1406.000000)">
            <g id="Canadian-Made-Mattress-Module" transform="translate(20.000000, 1194.000000)">
                <g id="Breathable-Cool-Illustration-100x100" transform="translate(121.253754, 213.000000)">
                    <g>
                        <g id="Group-40" transform="translate(0.000000, 7.362763)">
                            <g id="Group-3">
                                <mask id="mask-2" fill="white">
                                    <use xlink:href="#path-1"></use>
                                </mask>
                                <g id="Clip-2"></g>
                                <path d="M25.7989489,56.7538138 C26.2743243,56.9703303 26.8061562,57.1556156 27.4073574,57.3024625 C33.7848348,58.8601201 35.2211712,52.979039 41.5983483,54.5366967 C47.9761261,56.0943544 46.5394895,61.9754354 52.9172673,63.5330931 C55.3088589,64.1171772 57.0052553,63.6553153 58.5283784,62.9318919 C61.0665165,61.7258859 63.1223724,59.7937538 67.1085586,60.7673273 C73.4866366,62.324985 72.0503003,68.2063664 78.4283784,69.764024 C84.8064565,71.321982 86.2427928,65.4409009 92.6214715,66.9988589" id="Stroke-1" stroke="#C40058" stroke-width="1.5015015" stroke-linecap="round" stroke-linejoin="round" mask="url(#mask-2)"></path>
                            </g>
                            <g id="Group-6">
                                <mask id="mask-4" fill="white">
                                    <use xlink:href="#path-3"></use>
                                </mask>
                                <g id="Clip-5"></g>
                                <path d="M-9.41711712,42.076036 C-3.04024024,43.6336937 -4.47657658,49.5147748 1.9006006,51.0724324 C8.27687688,52.6297898 9.71321321,46.7487087 16.0897898,48.3060661 C17.6564565,48.6889489 18.7516517,49.3324925 19.6066066,50.1087688" id="Stroke-4" stroke="#C40058" stroke-width="1.5015015" stroke-linecap="round" stroke-linejoin="round" mask="url(#mask-4)"></path>
                            </g>
                            <g id="Group-9">
                                <mask id="mask-6" fill="white">
                                    <use xlink:href="#path-5"></use>
                                </mask>
                                <g id="Clip-8"></g>
                                <path d="M48.5493393,71.0623423 C49.2988889,71.6013814 50.2196096,72.0452252 51.4157057,72.3374174 C57.7928829,73.8950751 59.2292192,68.013994 65.606997,69.5716517 C71.9850751,71.1296096 70.5487387,77.0106907 76.9268168,78.5686486 C83.3048949,80.1263063 84.7415315,74.2452252 91.1199099,75.8031832" id="Stroke-7" stroke="#C40058" stroke-width="1.5015015" stroke-linecap="round" stroke-linejoin="round" mask="url(#mask-6)"></path>
                            </g>
                            <g id="Group-12">
                                <mask id="mask-8" fill="white">
                                    <use xlink:href="#path-7"></use>
                                </mask>
                                <g id="Clip-11"></g>
                                <path d="M25.015045,56.4341441 L29.3663964,54.2575676" id="Stroke-10" stroke="#C40058" stroke-width="1.5015015" stroke-linecap="round" stroke-linejoin="round" mask="url(#mask-8)"></path>
                            </g>
                            <g id="Group-15">
                                <mask id="mask-10" fill="white">
                                    <use xlink:href="#path-9"></use>
                                </mask>
                                <g id="Clip-14"></g>
                                <path d="M25.015045,56.4341441 L27.1916216,60.7857958" id="Stroke-13" stroke="#C40058" stroke-width="1.5015015" stroke-linecap="round" stroke-linejoin="round" mask="url(#mask-10)"></path>
                            </g>
                            <g id="Group-18">
                                <mask id="mask-12" fill="white">
                                    <use xlink:href="#path-11"></use>
                                </mask>
                                <g id="Clip-17"></g>
                                <path d="M48.0208709,70.9542943 L52.6070571,69.3302703" id="Stroke-16" stroke="#C40058" stroke-width="1.5015015" stroke-linecap="round" stroke-linejoin="round" mask="url(#mask-12)"></path>
                            </g>
                            <g id="Group-21">
                                <mask id="mask-14" fill="white">
                                    <use xlink:href="#path-13"></use>
                                </mask>
                                <g id="Clip-20"></g>
                                <path d="M48.0208709,70.9542943 L49.6445946,75.5404805" id="Stroke-19" stroke="#C40058" stroke-width="1.5015015" stroke-linecap="round" stroke-linejoin="round" mask="url(#mask-14)"></path>
                            </g>
                            <g id="Group-24">
                                <mask id="mask-16" fill="white">
                                    <use xlink:href="#path-15"></use>
                                </mask>
                                <g id="Clip-23"></g>
                                <path d="M20.1155255,75.9533634 L24.7017117,74.3296396" id="Stroke-22" stroke="#C40058" stroke-width="1.5015015" stroke-linecap="round" stroke-linejoin="round" mask="url(#mask-16)"></path>
                            </g>
                            <g id="Group-27">
                                <mask id="mask-18" fill="white">
                                    <use xlink:href="#path-17"></use>
                                </mask>
                                <g id="Clip-26"></g>
                                <path d="M20.1155255,75.9533634 L21.7392492,80.5398498" id="Stroke-25" stroke="#C40058" stroke-width="1.5015015" stroke-linecap="round" stroke-linejoin="round" mask="url(#mask-18)"></path>
                            </g>
                            <g id="Group-30">
                                <mask id="mask-20" fill="white">
                                    <use xlink:href="#path-19"></use>
                                </mask>
                                <g id="Clip-29"></g>
                                <path d="M-0.201651652,60.4773574 C6.17462462,62.035015 7.61126126,56.1536336 13.9875375,57.710991 C20.3647147,59.2686486 18.9283784,65.15003 25.3052553,66.7073874 C31.6827327,68.265045 33.1190691,62.383964 39.4962462,63.9416216 C41.0908408,64.3311111 42.1968468,64.9905706 43.0587087,65.7854655" id="Stroke-28" stroke="#C40058" stroke-width="1.5015015" stroke-linecap="round" stroke-linejoin="round" mask="url(#mask-20)"></path>
                            </g>
                            <g id="Group-33">
                                <mask id="mask-22" fill="white">
                                    <use xlink:href="#path-21"></use>
                                </mask>
                                <g id="Clip-32"></g>
                                <path d="M20.7803604,76.1689189 C21.3791592,76.498048 22.0752553,76.7728228 22.9028829,76.9752252 C29.2803604,78.5328829 30.7166967,72.6515015 37.0938739,74.2091592 C43.4716517,75.7668168 42.035015,81.6481982 48.4127928,83.2058559 C54.78997,84.7635135 56.2263063,78.8821321 62.6037838,80.4397898" id="Stroke-31" stroke="#C40058" stroke-width="1.5015015" stroke-linecap="round" stroke-linejoin="round" mask="url(#mask-22)"></path>
                            </g>
                            <g id="Group-36">
                                <mask id="mask-24" fill="white">
                                    <use xlink:href="#path-23"></use>
                                </mask>
                                <g id="Clip-35"></g>
                                <path d="M-13.9219219,61.4484985 C-7.54474474,63.0061562 -8.98108108,68.8872372 -2.6042042,70.4448949 C3.77237237,72.0022523 5.20870871,66.1211712 11.584985,67.6785285 C12.3822823,67.8731231 13.0573574,68.1355856 13.6408408,68.4484985" id="Stroke-34" stroke="#C40058" stroke-width="1.5015015" stroke-linecap="round" stroke-linejoin="round" mask="url(#mask-24)"></path>
                            </g>
                            <g id="Group-39">
                                <mask id="mask-26" fill="white">
                                    <use xlink:href="#path-25"></use>
                                </mask>
                                <g id="Clip-38"></g>
                                <path d="M-10.4857658,39.9777477 C-4.73741742,41.3816517 -4.22810811,48.5284985 2.06138138,49.1017718 C7.69321321,49.6152853 11.113033,44.0318018 17.0466667,46.9615315 C20.1625826,48.49997 21.434955,52.7633333 24.3875075,54.2873574 C29.246967,56.7957658 31.4142342,53.4942643 36.0433634,52.5777477 C43.4226426,51.1167868 43.3703904,55.6197898 47.9313514,59.2423123 C54.3169369,64.3140841 57.219039,58.8203904 63.3745946,58.426997 C70.1316517,57.9948649 70.3631832,64.1164865 75.058979,66.7585285 C81.3778979,70.3134835 85.3911111,63.3951652 91.5526727,64.9002703 C90.1442643,71.3378078 88.7355556,77.775045 87.3268468,84.2125826 C86.4896096,88.039009 85.7229429,102.835405 82.686006,105.421892 C80.752973,107.068138 72.3754955,106.044414 69.8052252,106.166937 C60.358979,106.617087 50.9127327,107.067237 41.4661862,107.517387 C30.9839039,108.016787 17.1007207,111.44021 7.36828829,107.254925 C-0.811291291,103.737808 -8.62990991,98.7558258 -16.4938739,94.5783483 C-18.4028829,93.5639339 -23.8001802,91.9134835 -24.9611411,90.0798498 C-26.1052853,88.2735435 -25.1362162,89.8318018 -25.2521321,87.1870571 C-25.583964,79.5945646 -19.2821622,68.1008709 -17.016997,60.8585285 C-14.8398198,53.8981682 -12.6626426,46.9381081 -10.4857658,39.9777477" id="Fill-37" fill="#C40058" opacity="0.1" mask="url(#mask-26)"></path>
                            </g>
                        </g>
                        <g id="Group-141" transform="translate(0.000000, 0.155556)">
                            <path d="M91.1852252,42.7432132 C92.0017417,46.178048 92.4341742,49.7618318 92.4341742,53.4465165 C92.4341742,78.9044745 71.7963363,99.5426126 46.3380781,99.5426126 C20.8798198,99.5426126 0.241981982,78.9044745 0.241981982,53.4465165 C0.241981982,36.6152853 9.2627027,21.890961 22.7332733,13.8444144" id="Stroke-41" stroke="#C40058" stroke-width="1.5015015" stroke-linecap="round" stroke-linejoin="round"></path>
                            <path d="M56.4395495,22.887027 C53.3113213,22.887027 50.7752853,25.4230631 50.7752853,28.5512913 C50.7752853,31.6798198 53.3113213,34.2158559 56.4395495,34.2158559 C59.5680781,34.2158559 62.1041141,31.6798198 62.1041141,28.5512913 C62.1041141,25.4230631 59.5680781,22.887027 56.4395495,22.887027 M56.4395495,24.3885285 C58.7353453,24.3885285 60.6026126,26.2560961 60.6026126,28.5512913 C60.6026126,30.8467868 58.7353453,32.7143544 56.4395495,32.7143544 C54.1440541,32.7143544 52.2767868,30.8467868 52.2767868,28.5512913 C52.2767868,26.2560961 54.1440541,24.3885285 56.4395495,24.3885285" id="Fill-43" fill="#C40058"></path>
                            <path d="M56.4395495,22.887027 L56.4395495,0.295135135" id="Stroke-45" stroke="#C40058" stroke-width="1.5015015" stroke-linecap="round" stroke-linejoin="round"></path>
                            <path d="M53.5171772,15.4527027 L59.3619219,15.4527027" id="Stroke-47" stroke="#C40058" stroke-width="1.5015015" stroke-linecap="round" stroke-linejoin="round"></path>
                            <path d="M49.5077177,5.14774775 L56.4395495,11.590991" id="Stroke-49" stroke="#C40058" stroke-width="1.5015015" stroke-linecap="round" stroke-linejoin="round"></path>
                            <path d="M52.5611712,2.536997 L56.4395495,6.06702703" id="Stroke-51" stroke="#C40058" stroke-width="1.5015015" stroke-linecap="round" stroke-linejoin="round"></path>
                            <path d="M63.3713814,5.14774775 L56.4395495,11.590991" id="Stroke-53" stroke="#C40058" stroke-width="1.5015015" stroke-linecap="round" stroke-linejoin="round"></path>
                            <path d="M60.3179279,2.536997 L56.4395495,6.06702703" id="Stroke-55" stroke="#C40058" stroke-width="1.5015015" stroke-linecap="round" stroke-linejoin="round"></path>
                            <path d="M56.4395495,34.2158859 L56.4395495,56.8077778" id="Stroke-57" stroke="#C40058" stroke-width="1.5015015" stroke-linecap="round" stroke-linejoin="round"></path>
                            <path d="M59.3618919,41.6502102 L53.5171471,41.6502102" id="Stroke-59" stroke="#C40058" stroke-width="1.5015015" stroke-linecap="round" stroke-linejoin="round"></path>
                            <path d="M63.3713814,51.9551652 L56.4395495,45.5119219" id="Stroke-61" stroke="#C40058" stroke-width="1.5015015" stroke-linecap="round" stroke-linejoin="round"></path>
                            <path d="M60.3179279,54.5659159 L56.4395495,51.0358859" id="Stroke-63" stroke="#C40058" stroke-width="1.5015015" stroke-linecap="round" stroke-linejoin="round"></path>
                            <path d="M49.5077177,51.9551652 L56.4395495,45.5119219" id="Stroke-65" stroke="#C40058" stroke-width="1.5015015" stroke-linecap="round" stroke-linejoin="round"></path>
                            <path d="M52.5611712,54.5659159 L56.4395495,51.0358859" id="Stroke-67" stroke="#C40058" stroke-width="1.5015015" stroke-linecap="round" stroke-linejoin="round"></path>
                            <path d="M62.1039039,28.5515315 L84.6957958,28.5515315" id="Stroke-69" stroke="#C40058" stroke-width="1.5015015" stroke-linecap="round" stroke-linejoin="round"></path>
                            <path d="M69.5383784,25.629039 L69.5383784,31.4737838" id="Stroke-71" stroke="#C40058" stroke-width="1.5015015" stroke-linecap="round" stroke-linejoin="round"></path>
                            <path d="M79.8433333,21.6195495 L73.4000901,28.5513814" id="Stroke-73" stroke="#C40058" stroke-width="1.5015015" stroke-linecap="round" stroke-linejoin="round"></path>
                            <path d="M82.4542342,24.6731532 L78.9242042,28.5515315" id="Stroke-75" stroke="#C40058" stroke-width="1.5015015" stroke-linecap="round" stroke-linejoin="round"></path>
                            <path d="M79.8433333,35.4833634 L73.4000901,28.5515315" id="Stroke-77" stroke="#C40058" stroke-width="1.5015015" stroke-linecap="round" stroke-linejoin="round"></path>
                            <path d="M82.4542342,32.4297598 L78.9242042,28.5513814" id="Stroke-79" stroke="#C40058" stroke-width="1.5015015" stroke-linecap="round" stroke-linejoin="round"></path>
                            <path d="M50.7751952,28.5515315 L28.1833033,28.5515315" id="Stroke-81" stroke="#C40058" stroke-width="1.5015015" stroke-linecap="round" stroke-linejoin="round"></path>
                            <path d="M43.340991,31.4738739 L43.340991,25.6291291" id="Stroke-83" stroke="#C40058" stroke-width="1.5015015" stroke-linecap="round" stroke-linejoin="round"></path>
                            <path d="M33.0360661,35.4833634 L39.4793093,28.5515315" id="Stroke-85" stroke="#C40058" stroke-width="1.5015015" stroke-linecap="round" stroke-linejoin="round"></path>
                            <path d="M30.4251652,32.4297598 L33.9551952,28.5513814" id="Stroke-87" stroke="#C40058" stroke-width="1.5015015" stroke-linecap="round" stroke-linejoin="round"></path>
                            <path d="M33.0360661,21.6195495 L39.4793093,28.5513814" id="Stroke-89" stroke="#C40058" stroke-width="1.5015015" stroke-linecap="round" stroke-linejoin="round"></path>
                            <path d="M30.4251652,24.6731532 L33.9551952,28.5515315" id="Stroke-91" stroke="#C40058" stroke-width="1.5015015" stroke-linecap="round" stroke-linejoin="round"></path>
                            <path d="M60.4449249,32.5567568 L76.42,48.5318318" id="Stroke-93" stroke="#C40058" stroke-width="1.5015015" stroke-linecap="round" stroke-linejoin="round"></path>
                            <path d="M67.7682583,35.7472973 L63.6352252,39.88003" id="Stroke-95" stroke="#C40058" stroke-width="1.5015015" stroke-linecap="round" stroke-linejoin="round"></path>
                            <path d="M77.8902102,40.1987087 L68.4325526,40.5443544" id="Stroke-97" stroke="#C40058" stroke-width="1.5015015" stroke-linecap="round" stroke-linejoin="round"></path>
                            <path d="M77.576997,44.2040841 L72.3385586,44.4503303" id="Stroke-99" stroke="#C40058" stroke-width="1.5015015" stroke-linecap="round" stroke-linejoin="round"></path>
                            <path d="M68.087027,50.0018919 L68.4323724,40.5442342" id="Stroke-101" stroke="#C40058" stroke-width="1.5015015" stroke-linecap="round" stroke-linejoin="round"></path>
                            <path d="M72.0921021,49.688979 L72.3383483,44.4505405" id="Stroke-103" stroke="#C40058" stroke-width="1.5015015" stroke-linecap="round" stroke-linejoin="round"></path>
                            <path d="M52.4341742,24.5461562 L36.4593994,8.57108108" id="Stroke-105" stroke="#C40058" stroke-width="1.5015015" stroke-linecap="round" stroke-linejoin="round"></path>
                            <path d="M45.1108408,21.3556156 L49.2438739,17.2228829" id="Stroke-107" stroke="#C40058" stroke-width="1.5015015" stroke-linecap="round" stroke-linejoin="round"></path>
                            <path d="M34.9891892,16.9042042 L44.4468468,16.5585586" id="Stroke-109" stroke="#C40058" stroke-width="1.5015015" stroke-linecap="round" stroke-linejoin="round"></path>
                            <path d="M35.3021021,12.8988288 L40.5405405,12.6525826" id="Stroke-111" stroke="#C40058" stroke-width="1.5015015" stroke-linecap="round" stroke-linejoin="round"></path>
                            <path d="M44.7923423,7.10102102 L44.446997,16.5586787" id="Stroke-113" stroke="#C40058" stroke-width="1.5015015" stroke-linecap="round" stroke-linejoin="round"></path>
                            <path d="M40.786967,7.41408408 L40.5407207,12.6525225" id="Stroke-115" stroke="#C40058" stroke-width="1.5015015" stroke-linecap="round" stroke-linejoin="round"></path>
                            <path d="M52.4341742,32.5567568 L36.4593994,48.5318318" id="Stroke-117" stroke="#C40058" stroke-width="1.5015015" stroke-linecap="round" stroke-linejoin="round"></path>
                            <path d="M49.2437838,39.8800901 L45.1107508,35.7473574" id="Stroke-119" stroke="#C40058" stroke-width="1.5015015" stroke-linecap="round" stroke-linejoin="round"></path>
                            <path d="M44.7923423,50.0018919 L44.446997,40.5442342" id="Stroke-121" stroke="#C40058" stroke-width="1.5015015" stroke-linecap="round" stroke-linejoin="round"></path>
                            <path d="M40.786967,49.688979 L40.5407207,44.4505405" id="Stroke-123" stroke="#C40058" stroke-width="1.5015015" stroke-linecap="round" stroke-linejoin="round"></path>
                            <path d="M34.9891892,40.1987087 L44.4468468,40.5443544" id="Stroke-125" stroke="#C40058" stroke-width="1.5015015" stroke-linecap="round" stroke-linejoin="round"></path>
                            <path d="M35.3021021,44.2040841 L40.5405405,44.4503303" id="Stroke-127" stroke="#C40058" stroke-width="1.5015015" stroke-linecap="round" stroke-linejoin="round"></path>
                            <path d="M60.4449249,24.5461562 L76.42,8.57108108" id="Stroke-129" stroke="#C40058" stroke-width="1.5015015" stroke-linecap="round" stroke-linejoin="round"></path>
                            <path d="M63.6353153,17.2228228 L67.7683483,21.3555556" id="Stroke-131" stroke="#C40058" stroke-width="1.5015015" stroke-linecap="round" stroke-linejoin="round"></path>
                            <path d="M68.087027,7.10102102 L68.4323724,16.5586787" id="Stroke-133" stroke="#C40058" stroke-width="1.5015015" stroke-linecap="round" stroke-linejoin="round"></path>
                            <path d="M72.0921021,7.41408408 L72.3383483,12.6525225" id="Stroke-135" stroke="#C40058" stroke-width="1.5015015" stroke-linecap="round" stroke-linejoin="round"></path>
                            <path d="M77.8902102,16.9042042 L68.4325526,16.5585586" id="Stroke-137" stroke="#C40058" stroke-width="1.5015015" stroke-linecap="round" stroke-linejoin="round"></path>
                            <path d="M77.576997,12.8988288 L72.3385586,12.6525826" id="Stroke-139" stroke="#C40058" stroke-width="1.5015015" stroke-linecap="round" stroke-linejoin="round"></path>
                        </g>
                    </g>
                </g>
            </g>
        </g>
    </g>
</svg>