<?xml version="1.0" encoding="UTF-8"?>
<svg width="31px" height="32px" viewBox="0 0 31 32" version="1.1" xmlns="http://www.w3.org/2000/svg" xmlns:xlink="http://www.w3.org/1999/xlink">
    <title>endy-cart-48x48</title>
    <g id="Icons" stroke="none" stroke-width="1" fill="none" fill-rule="evenodd" stroke-linecap="round" stroke-linejoin="round">
        <g id="icons" transform="translate(-89.000000, -168.000000)" stroke="#243746" stroke-width="1.5">
            <g id="arrow" transform="translate(80.500000, 159.500000)">
                <g id="Group" transform="translate(0.500000, 0.500000)">
                    <g id="Group-9" transform="translate(9.500000, 9.000000)">
                        <polyline id="Stroke-1" points="0 0 3.85714286 1.5 6.85714286 23.1428571 26.7857143 23.1428571"></polyline>
                        <path d="M4.5,6.21428571 L28.2857143,7.99671429 L27.2142857,15.9495714 C27.2142857,17.2397857 26.1683571,18.2857143 24.8783571,18.2857143 L6.67864286,18.2857143" id="Stroke-3"></path>
                        <path d="M10.7142857,28.0714286 C10.7142857,29.1366429 9.85092857,30 8.78571429,30 C7.7205,30 6.85714286,29.1366429 6.85714286,28.0714286 C6.85714286,27.0062143 7.7205,26.1428571 8.78571429,26.1428571 C9.85092857,26.1428571 10.7142857,27.0062143 10.7142857,28.0714286 Z" id="Stroke-5"></path>
                        <path d="M26.7857143,28.0714286 C26.7857143,29.1366429 25.9223571,30 24.8571429,30 C23.7919286,30 22.9285714,29.1366429 22.9285714,28.0714286 C22.9285714,27.0062143 23.7919286,26.1428571 24.8571429,26.1428571 C25.9223571,26.1428571 26.7857143,27.0062143 26.7857143,28.0714286 Z" id="Stroke-7"></path>
                    </g>
                </g>
            </g>
        </g>
    </g>
</svg> 