<svg width="105" height="48" xmlns="http://www.w3.org/2000/svg"><g fill="none" fill-rule="evenodd"><path d="M15.647 40.973h-.788v-.329c0-.335.002-.67-.002-1.004-.003-.26-.124-.408-.361-.45a.476.476 0 00-.51.299.678.678 0 00-.049.267c.002.356.001.712.001 1.069v.147h-.794v-2.44h.79v.372c.139-.187.284-.31.476-.365.63-.182 1.219.118 1.235.83.012.53.002 1.06.002 1.604M16.995 38.862c.276-.33.622-.408 1.012-.36.383.047.687.384.7.818.018.546.005 1.094.005 1.65h-.781s0-.897-.002-1.292c-.002-.26-.111-.423-.306-.473-.33-.085-.619.147-.624.508-.005.37-.001.739-.001 1.108v.15h-.784V38.53h.781v.333M32.283 40.662l.25-.497c.212.124.421.236.66.279.1.018.199.024.298.011.078-.01.156-.035.174-.13.017-.095-.046-.142-.118-.18-.116-.062-.245-.086-.367-.128-.107-.037-.216-.068-.32-.111-.312-.131-.452-.341-.449-.661a.687.687 0 01.462-.661c.362-.144.731-.119 1.098-.015.154.044.304.1.447.2l-.264.503c-.187-.077-.364-.171-.56-.211-.089-.019-.179-.038-.27-.024-.082.012-.166.033-.181.136-.014.098.053.146.127.174.146.054.296.097.445.145a1.5 1.5 0 01.436.197c.437.318.345.99-.173 1.207-.466.196-.934.141-1.39-.05a1.183 1.183 0 01-.305-.184M24.173 39.053l-.557.335c-.08-.065-.145-.146-.24-.192-.305-.147-.639-.012-.737.305a.823.823 0 00.006.525c.16.46.68.412.898.167.023-.026.042-.055.074-.096l.561.331c-.16.397-.774.658-1.317.57-.634-.104-1.007-.508-1.06-1.15-.048-.593.288-1.119.825-1.29.595-.19 1.261.018 1.547.495M9.922 39.05l-.558.338c-.053-.048-.1-.099-.156-.139-.335-.244-.75-.088-.84.318a.837.837 0 00.024.462c.134.383.633.47.9.16.022-.026.041-.055.07-.092.094.056.187.11.28.163l.277.165c-.13.363-.643.628-1.252.578-.605-.05-1.036-.451-1.109-1.069-.071-.606.189-1.144.758-1.353.616-.226 1.293-.03 1.606.468M24.68 39.15h-.333v-.511h.328v-.679h.791v.669h.63v.522h-.621c0 .357-.006.703.003 1.049.003.127.105.195.24.176.093-.013.183-.045.283-.071l.156.548c-.374.174-.748.247-1.127.05-.252-.131-.346-.367-.349-.64-.002-.296 0-.592 0-.888v-.224M28.401 38.99c.406-.033.808.36.783.818a.803.803 0 01-.79.753c-.444-.002-.784-.356-.781-.813.003-.43.346-.76.788-.757M26.95 37.405c.245.001.41.172.407.422-.003.249-.17.414-.416.413a.406.406 0 01-.419-.417c-.002-.246.175-.42.428-.418M10.992 40.218a.524.524 0 00.791-.013c.212-.247.188-.729-.047-.945a.528.528 0 00-.57-.09c-.248.118-.317.339-.328.528 0 .25.053.407.154.52zm1.728-.47c0 .711-.474 1.214-1.19 1.256-.354.02-.693-.029-.992-.238-.361-.254-.501-.615-.495-1.046.007-.589.332-1.021.903-1.167.456-.117.9-.084 1.295.194.343.24.483.589.48 1zM20.282 39.051c-.23.03-.438.278-.405.484h.942c-.022-.34-.233-.523-.537-.484zm1.3.916h-1.701c.04.393.605.665 1.136.21l.397.42c-.102.13-.262.23-.44.3a1.62 1.62 0 01-1.16.017c-.51-.183-.804-.69-.749-1.27.068-.706.542-1.14 1.253-1.147.475-.005.875.134 1.112.578.146.272.175.569.153.892zM27.33 38.924v-.401h-.71c-.02 0-.042.003-.068.004v2.445h.778V40.6a1.417 1.417 0 01-.28-.87 1.29 1.29 0 01.28-.805M29.47 38.955c.184.244.294.55.277.876a1.363 1.363 0 01-.276.745v.395h.783v-.15c0-.37-.004-.739.002-1.108.005-.36.294-.593.623-.508.195.05.304.213.306.473.003.395.002 1.292.002 1.292h.781c0-.556.013-1.104-.004-1.65-.013-.434-.318-.771-.7-.818-.39-.048-.736.03-1.012.36v-.333h-.781v.426M30.219 41.83v.889h.622v-.204h-.367v-.164h.313v-.174h-.313v-.16h.393l-.128-.186h-.52M30.95 41.83l.286.429-.311.46h.311l.186-.284.153.284h.338l-.312-.46.287-.428h-.311l-.155.236-.16-.236h-.311M32.29 42.532c-.07-.005-.115-.038-.112-.11.002-.08.06-.109.274-.09l.033.002c-.004.14-.07.208-.194.198zm.459-.457c-.004-.11-.072-.188-.172-.226-.212-.08-.412-.034-.612.07l.082.178c.295-.105.432-.09.443.065-.106.023-.25-.003-.357.025-.15.04-.226.126-.219.274.007.142.099.238.245.256a.504.504 0 00.32-.09v.089h.271s.005-.434-.001-.641zM33.73 42.019l-.202.122c-.019-.017-.036-.036-.056-.05-.12-.088-.271-.032-.304.115a.3.3 0 00.01.167.19.19 0 00.324.057l.025-.033.101.06.1.058c-.046.132-.232.227-.451.21a.42.42 0 01-.4-.387c-.027-.219.067-.413.273-.488.222-.082.467-.01.58.169M33.895 42.06h-.122v-.186h.12v-.248h.29v.244h.229v.19h-.227c0 .131-.002.257.001.384.002.046.039.07.088.064.034-.005.067-.017.103-.026l.058.2c-.137.064-.274.09-.412.018-.092-.048-.127-.134-.128-.234v-.324-.081M29.131 42.927l.07-.122c.05.04.132.04.17.005.04-.034.054-.145.054-.145l-.306-.65h.158l.22.47.185-.468h.146l-.31.808c-.04.097-.069.11-.11.128a.328.328 0 01-.19.01c-.057-.017-.087-.036-.087-.036" fill="#243746"/><path d="M28.75 42.588a.217.217 0 110-.433.217.217 0 010 .433zm.029-.571a.351.351 0 00-.242.096v-.377h-.157v.98h.157v-.085a.355.355 0 10.242-.614zM7.631 34.869h2.863V23.952H7.63zM22.121 34.869H19.81l-4.57-6.383v6.383h-2.755V23.952h2.666l4.214 6.01v-6.01h2.756v10.917M33.749 34.869h-2.311l-4.57-6.383v6.383h-2.756V23.952h2.667l4.214 6.01v-6.01h2.756v10.917M50.262 34.869L46.19 23.952h3.058l2.472 7.059 2.471-7.059h2.934l-4.072 10.917h-2.791M59.96 30.406h2.24l-1.12-3.076-1.12 3.076zm2.613-6.454l4.16 10.917h-2.897l-.782-2.116h-3.965l-.765 2.116h-2.827l4.16-10.917h2.916zM65.48 23.952h9.6v2.454h-3.378v8.463H68.84v-8.463h-3.36v-2.454M80.27 26.281c-1.476 0-2.436 1.245-2.436 3.13 0 1.884.96 3.129 2.436 3.129s2.471-1.245 2.471-3.13c0-1.884-.995-3.129-2.47-3.129zm0 8.766c-3.147 0-5.316-2.383-5.316-5.636 0-3.272 2.169-5.637 5.316-5.637 3.165 0 5.352 2.365 5.352 5.637 0 3.253-2.187 5.636-5.352 5.636zM89.996 28.984h1.777c1.014 0 1.476-.516 1.476-1.316s-.462-1.315-1.476-1.315h-1.777v2.631zm0 2.276v3.609h-2.827V23.952h4.907c2.347 0 3.964 1.334 3.964 3.716 0 1.654-.835 2.792-2.169 3.29l2.56 3.91h-3.164l-2.276-3.608h-.995z" fill="#243746"/><path d="M39.363 44.666a1.067 1.067 0 01-.338-2.082l2.555-.85a1.066 1.066 0 011.35.675c.09.27.07.56-.058.815a1.06 1.06 0 01-.617.536l-2.554.85a1.06 1.06 0 01-.338.056" fill="#FFFFFE"/><path d="M41.917 41.055c-.182 0-.362.03-.535.088l-2.554.85a1.69 1.69 0 101.074 3.206l2.55-.849c.428-.142.775-.443.977-.847a1.68 1.68 0 00.092-1.292 1.688 1.688 0 00-1.604-1.156zm0 1.246a.446.446 0 01.141.867l-2.554.852a.445.445 0 01-.282-.845l2.554-.851a.448.448 0 01.14-.023z" fill="#243746"/><path d="M38.709 42.577a1.066 1.066 0 01-.955-1.545c.127-.256.347-.447.618-.536l3.945-1.315a1.067 1.067 0 11.676 2.027l-3.947 1.314a1.052 1.052 0 01-.337.055" fill="#FFFFFE"/><path d="M42.655 38.504c-.182 0-.362.029-.536.087l-3.945 1.314a1.679 1.679 0 00-.978.848 1.689 1.689 0 002.05 2.359l3.944-1.314c.428-.143.776-.444.977-.848a1.687 1.687 0 00-1.513-2.446zm0 1.245a.445.445 0 01.141.868l-3.946 1.315a.446.446 0 01-.281-.845l3.945-1.315a.447.447 0 01.141-.023z" fill="#243746"/><path d="M38.71 40.47a1.066 1.066 0 01-.956-1.546c.032-.065.07-.125.113-.18a1.064 1.064 0 01-.226-.657c0-1.668-.687-2.766-1.482-4.037-.847-1.356-1.806-2.892-1.806-5.17 0-3.312 3.017-6.329 6.329-6.329s6.329 3.017 6.33 6.33c0 2.278-.96 3.813-1.806 5.168-.796 1.272-1.482 2.37-1.482 4.038v.049l-.005.031a1.018 1.018 0 01-.027.173 1.22 1.22 0 01-.112.278 1.108 1.108 0 01-.114.161l-.013.016a1.212 1.212 0 01-.318.245l-.074.033-.025.013-3.99 1.329a1.057 1.057 0 01-.337.055" fill="#FFFFFE"/><path d="M40.682 21.928c-1.751 0-3.52.765-4.854 2.099-1.333 1.333-2.098 3.102-2.098 4.853 0 2.457 1.01 4.073 1.901 5.5.775 1.24 1.387 2.219 1.387 3.707 0 .232.048.455.134.657a1.689 1.689 0 002.096 2.26l3.942-1.314.01-.003h.003l.002-.002.067-.022.047-.023.066-.03.022-.01.023-.012a1.76 1.76 0 00.097-.054l.005-.003.005-.003c.066-.04.116-.078.153-.106l.002-.002.007-.005a1.62 1.62 0 00.102-.086l.01-.01.01-.008a1.74 1.74 0 00.097-.103l.012-.012.014-.017a1.668 1.668 0 00.402-1.092c0-1.489.613-2.468 1.387-3.707.892-1.427 1.901-3.043 1.901-5.5 0-1.751-.765-3.52-2.098-4.853-1.334-1.334-3.103-2.099-4.854-2.099zm0 1.246c2.986 0 5.706 2.72 5.707 5.706 0 2.1-.87 3.493-1.712 4.84-.81 1.296-1.576 2.521-1.576 4.367l-.002.016c0 .016-.002.031-.005.046a.32.32 0 01-.02.082.369.369 0 01-.016.042c-.005.012-.012.024-.019.036a.48.48 0 01-.024.037c-.008.012-.017.022-.026.033-.01.011-.019.022-.029.031-.01.01-.022.019-.034.028a.458.458 0 01-.071.045l-.044.02-.015.006-3.946 1.315a.443.443 0 01-.563-.282.445.445 0 01.281-.563l1.342-.447h-1.2a.445.445 0 01-.446-.445c0-1.846-.766-3.07-1.577-4.368-.841-1.346-1.711-2.739-1.711-4.839 0-2.986 2.72-5.706 5.706-5.706z" fill="#243746"/><path d="M43.041 30.495c-1.025 1.538-1.037 3.618-1.037 3.639a.243.243 0 11-.487 0c0-.084.01-1.94.89-3.531h-.647a.237.237 0 01-.107-.025l-.214.43a.244.244 0 01-.461-.11v-.046l-.079.156a.244.244 0 01-.46-.11v-.046l-.079.156a.244.244 0 01-.461-.11v-.046l-.078.156a.244.244 0 01-.46-.11v-.295h-.403c.878 1.592.889 3.447.889 3.53a.244.244 0 11-.487 0c0-.02-.014-2.103-1.038-3.638a.243.243 0 01.203-.379h1.078a.24.24 0 01.107.025l.214-.43a.243.243 0 01.461.11v.046l.078-.155a.243.243 0 01.462.109v.046l.078-.155a.243.243 0 01.461.109v.046l.078-.155a.243.243 0 01.461.109v.295h.836a.243.243 0 01.202.379" fill="#243746"/><path d="M40.682 24.607s3.236 0 3.774 3.235c-.007.001-.538-2.156-3.774-3.235" fill="#F3B92D"/><path d="M9.506 3.835c-.321 0-.49.238-.507.517H7.595c.101-.965.803-1.735 1.911-1.735 1.142 0 1.862.652 1.862 1.616 0 .669-.474 1.142-.999 1.65l-.854.846h1.87v1.167H7.62v-.871l1.785-1.777c.355-.363.592-.626.592-.93 0-.28-.186-.483-.49-.483M13.144 5.3c0 .803.237 1.488.838 1.488.6 0 .837-.685.837-1.489 0-.803-.237-1.489-.837-1.489s-.838.686-.838 1.49zm-1.311 0c0-1.583.871-2.683 2.149-2.683 1.277 0 2.157 1.1 2.157 2.682 0 1.582-.88 2.682-2.157 2.682-1.278 0-2.149-1.1-2.149-2.682zM18.99 7.896h-1.32V4.174l-1.209.584V3.472l1.616-.77h.913v5.194M21.596 3.709c-.406 0-.71.287-.71.702 0 .423.304.71.71.71.415 0 .702-.287.702-.71 0-.415-.287-.702-.702-.702zm-.6 2.774a.54.54 0 00.55.39c.498 0 .794-.55.803-1.092V5.74c-.152.22-.508.39-.956.39-1.058 0-1.717-.754-1.717-1.684 0-1.04.736-1.828 1.929-1.828.668 0 1.243.313 1.59.863.304.457.431 1.016.431 1.7 0 1.625-.761 2.8-2.072 2.8-1.032 0-1.667-.583-1.836-1.497h1.278zM71.802 40.6h1.066l-.533-1.463-.533 1.463zm1.243-3.07l1.98 5.194h-1.379l-.372-1.007h-1.887l-.363 1.007h-1.345l1.98-5.195h1.386zM78.697 37.53l.795 3.053.72-3.054h1.37l-1.37 5.195h-1.244l-.804-3.046-.812 3.046h-1.244l-1.362-5.195h1.388l.727 3.054.804-3.054h1.032M83.427 40.6h1.066l-.533-1.463-.533 1.463zm1.243-3.07l1.98 5.194H85.27l-.372-1.007h-1.887l-.364 1.007h-1.345l1.98-5.195h1.387zM88.444 39.924h.845c.483 0 .703-.246.703-.626s-.22-.627-.703-.627h-.845v1.253zm0 1.082v1.718h-1.346v-5.195h2.335c1.117 0 1.887.635 1.887 1.769 0 .786-.398 1.328-1.032 1.565l1.218 1.86H90l-1.083-1.717h-.473zM93.85 41.548c.862 0 1.345-.55 1.345-1.421 0-.88-.483-1.43-1.345-1.43h-.559v2.85h.559zm-1.895-4.019h1.962c1.633 0 2.623 1.015 2.623 2.598 0 1.582-.99 2.597-2.623 2.597h-1.962v-5.195zM12.097 12.87h-1.652v2.736h1.652c1.03 0 1.492-.551 1.492-1.368 0-.835-.462-1.367-1.492-1.367zm-1.652 5.116v3.392H7.621V10.473H12.4c2.363 0 3.961 1.332 3.961 3.765 0 2.416-1.598 3.748-3.96 3.748h-1.955zM20.41 15.5h1.777c1.012 0 1.473-.516 1.473-1.315 0-.8-.461-1.314-1.473-1.314H20.41v2.628zm0 2.273v3.605h-2.824V10.473h4.902c2.345 0 3.961 1.332 3.961 3.712 0 1.652-.835 2.788-2.167 3.286l2.558 3.907h-3.162l-2.273-3.605h-.995zM32.666 12.8c-1.474 0-2.433 1.243-2.433 3.125 0 1.883.96 3.126 2.433 3.126 1.475 0 2.47-1.243 2.47-3.126 0-1.882-.995-3.126-2.47-3.126zm0 8.756c-3.143 0-5.31-2.38-5.31-5.63 0-3.269 2.167-5.63 5.31-5.63 3.162 0 5.347 2.361 5.347 5.63 0 3.25-2.185 5.63-5.347 5.63zM43.182 18.91c1.811 0 2.824-1.155 2.824-2.985 0-1.847-1.013-3.001-2.824-3.001h-1.173v5.985h1.173zm-3.98-8.437h4.122c3.427 0 5.506 2.131 5.506 5.452 0 3.322-2.079 5.453-5.506 5.453h-4.121V10.473zM49.896 16.92v-6.447h2.842v6.198c0 1.546.728 2.345 1.918 2.345 1.172 0 1.9-.8 1.9-2.345v-6.198H59.4v6.465c0 2.984-1.865 4.618-4.743 4.618-2.877 0-4.76-1.634-4.76-4.636M65.722 10.295c2.718 0 4.316 1.616 4.707 3.837h-2.842c-.284-.8-.87-1.333-1.865-1.333-1.51 0-2.362 1.333-2.362 3.126 0 1.777.853 3.126 2.362 3.126.995 0 1.581-.532 1.865-1.35h2.842c-.39 2.238-1.99 3.855-4.707 3.855-3.055 0-5.24-2.327-5.24-5.63 0-3.304 2.185-5.63 5.24-5.63M70.963 10.473h9.591v2.45H77.18v8.455h-2.86v-8.454h-3.356v-2.451" fill="#243746"/></g></svg> 