<svg width="48" height="48" xmlns="http://www.w3.org/2000/svg"><g fill="#243746" fill-rule="evenodd"><path d="M6.55 13.78a18.617 18.617 0 0110.228-9.018 18.621 18.621 0 0113.597.32 18.617 18.617 0 019.592 9.069L5.047 26.86A18.61 18.61 0 016.55 13.78zm33.994.16a19.225 19.225 0 00-9.933-9.42 19.225 19.225 0 00-14.042-.332 19.221 19.221 0 00-10.562 9.313A19.218 19.218 0 004.472 27.07L1.226 28.25l.209.575L43.623 13.47l-.209-.574-2.87 1.045zM3.932 36.27l.208.573 42.314-15.4-.21-.574-42.312 15.4M25.359 34.287c.056-.099.1-.176.13-.237a.224.224 0 00.01-.192l-.918-2.522a.277.277 0 00-.192-.181c-.06-.01-.12-.022-.182-.034l-.1-.278c.402-.055.76-.03 1.073.081.313.11.532.26.658.45.127.19.222.347.286.472.063.125.117.249.16.37.059.16.102.315.13.466.029.15.03.34.006.57-.023.23-.116.463-.274.693-.16.23-.39.432-.692.6l-.095-.258zm-.13.34c-.34.066-.645.061-.913-.014a1.49 1.49 0 01-.655-.354 2.004 2.004 0 01-.366-.442 3.155 3.155 0 01-.2-.441 3.541 3.541 0 01-.188-.827 1.376 1.376 0 01.205-.871c.168-.285.425-.536.769-.752l.101.277c-.05.063-.098.126-.144.188a.29.29 0 000 .215l.918 2.52a.254.254 0 00.15.148c.075.034.15.064.226.091l.097.262zM27.137 33.931l-.075.011c-.018 0-.04-.014-.07-.04a.202.202 0 01-.054-.072.119.119 0 01.014-.115.577.577 0 01.143-.123c.073-.048.1-.093.085-.134l-1.053-2.895c-.015-.04-.065-.055-.151-.047a.611.611 0 01-.19-.002c-.04-.01-.068-.036-.083-.08a.148.148 0 010-.095.223.223 0 01.023-.07l.064-.038 1.353-.493 1.202 3.297c.014.04.064.056.15.047a.665.665 0 01.191.001c.042.01.07.036.085.08.01.027.01.06.003.095-.009.037-.016.06-.028.071l-.063.038-1.546.564zm1.657-2.37l.064.175a.36.36 0 01.03.157c-.005.034-.021.056-.05.066-.027.01-.064.001-.11-.025-.047-.028-.091-.088-.135-.183-.044-.095-.129-.145-.257-.15l-.181-.009-.123-.337.134-.123c.094-.087.128-.181.1-.283a.46.46 0 01-.017-.224c.013-.048.038-.077.072-.09.059-.02.111.032.158.158l.063.177.252.69zm-1.352-1.931l1.092-.399.312.856.062.172c.008.021.002.048-.017.08a.162.162 0 01-.087.067.177.177 0 01-.12-.002c-.045-.015-.102-.066-.172-.152a1.093 1.093 0 00-.228-.217.655.655 0 00-.255-.11 1.155 1.155 0 00-.244-.022c-.075.003-.125.003-.152.003l-.066-.002c-.018-.001-.03-.01-.036-.025l-.09-.25zM13.108 35.192L10.4 39.369c-.033.051-.108.057-.224.018a.887.887 0 00-.26-.058c-.06.001-.106.03-.142.085a.28.28 0 00-.034.122c-.005.055 0 .094.014.113l.077.076 1.956 1.266.1.041a.264.264 0 00.102-.03.248.248 0 00.105-.086.166.166 0 00.018-.163.902.902 0 00-.162-.217c-.083-.09-.109-.16-.076-.212l2.707-4.177-1.474-.955zm1.598 1.485c-.005.008-.002.036.008.084.01.05.032.101.063.158a.661.661 0 01.072.224.848.848 0 01-.015.31c-.025.117-.073.26-.147.439-.073.177-.08.284-.022.322.027.018.062.02.102.004.04-.015.067-.033.08-.053l.14-.216.702-1.084-.778-.505-.205.317zm-2.096-1.358c-.005.007-.031.017-.08.027a.565.565 0 01-.17.006.622.622 0 00-.234.029.8.8 0 00-.277.139 2.172 2.172 0 00-.3.267c-.104.11-.179.177-.225.195-.046.022-.082.022-.11.004-.02-.012-.033-.04-.04-.08a.14.14 0 01.02-.106l.14-.218.704-1.084.777.504-.205.317zM18.511 40.777l-.78-.207.118-.443.78.207.503-1.89c.016-.057-.03-.116-.136-.176a.84.84 0 01-.219-.157.164.164 0 01-.033-.16.28.28 0 01.069-.108c.037-.04.068-.063.094-.064l.106.005 2.255.6.095.047c.015.02.03.048.046.088a.242.242 0 010 .148c-.017.064-.051.103-.104.121a.916.916 0 01-.263.024c-.122-.001-.191.027-.207.086l-1.124 4.223c-.015.058.03.117.138.177.106.06.178.111.216.151.037.043.046.094.03.157a.209.209 0 01-.065.109 1.35 1.35 0 01-.092.073l-.106-.007-2.255-.6-.096-.047a.315.315 0 01-.043-.096.214.214 0 01-.011-.134c.016-.063.053-.104.108-.123a.84.84 0 01.267-.027c.122.002.19-.028.207-.086l.502-1.89zm-2.213-3.086c.015-.06-.03-.118-.138-.178a.884.884 0 01-.218-.156.16.16 0 01-.033-.16.274.274 0 01.068-.11c.038-.04.068-.06.094-.064l.107.007 2.254.6.096.047a.3.3 0 01.045.087c.016.041.016.09 0 .15-.016.061-.05.102-.102.118a.824.824 0 01-.261.027c-.122-.002-.19.028-.205.085l-1.124 4.224c-.016.059.03.117.135.176.106.06.177.11.214.15.036.042.046.094.03.158a.231.231 0 01-.065.11 1.617 1.617 0 01-.092.071l-.107-.006-2.255-.6-.096-.048a.362.362 0 01-.043-.094.22.22 0 01-.01-.137.164.164 0 01.108-.123.884.884 0 01.267-.024c.122 0 .192-.03.207-.088l1.124-4.222zM25.273 40.492l-.014-.265c-.01-.19-.06-.283-.149-.279-.049.003-.095.034-.133.092-.039.058-.061.162-.067.312-.005.149-.09.263-.253.34l-.23.112.028.512.241.084c.171.062.266.164.285.31.018.146.055.247.106.302.053.055.099.082.14.08.042-.003.075-.026.095-.068a.511.511 0 00.021-.225l-.013-.266-.057-1.04zm-.96-1.762c.002.023.014.04.038.047.023.009.053.018.088.03.035.012.104.031.206.06.1.026.208.07.319.129a.918.918 0 01.3.255c.087.112.16.241.218.387.061.146.116.238.17.278a.26.26 0 00.162.053.23.23 0 00.145-.057c.038-.035.059-.068.056-.101l-.014-.259-.07-1.288-1.638.09.02.376zm-1.958 4.714c.003.06-.053.11-.171.145a.872.872 0 00-.245.11.162.162 0 00-.065.15.282.282 0 00.045.12c.028.048.054.075.078.083l.106.014 2.048-.111-.305-5.578-2.049.113-.103.027a.416.416 0 00-.062.083.231.231 0 00-.039.133.162.162 0 00.082.141c.05.03.135.057.256.08.12.024.181.067.185.127l.239 4.363zm2.215.11c-.001-.023.01-.04.033-.05a2.728 2.728 0 01.283-.12c.098-.04.2-.094.306-.164a.962.962 0 00.27-.288c.075-.121.135-.256.178-.408.042-.153.087-.25.136-.295a.248.248 0 01.158-.07.236.236 0 01.148.04c.045.03.068.06.069.094l.013.258.072 1.29-1.645.09-.021-.378zM31.595 38.73l.07-1.892c.003-.043.033-.104.093-.185.059-.081.138-.184.235-.31a.297.297 0 00-.028-.18.427.427 0 00-.13-.17l-.06.005-1.24.562-.035.039a.406.406 0 00.042.212c.027.06.056.1.09.124.035.023.14.026.32.009.18-.019.265.025.256.132l-.098 1.227.485.427zm-1.317 1.589l-2.219-1.969c-.048-.04-.124-.051-.227-.036a.773.773 0 01-.25.007.178.178 0 01-.137-.108.276.276 0 01-.016-.126c.003-.056.015-.093.031-.11l.087-.062 2.123-.964a.305.305 0 00.089-.016.222.222 0 00.08-.04c.021-.018.05-.013.088.013a.286.286 0 01.09.117.203.203 0 01.015.138c-.014.047-.056.092-.129.133a.388.388 0 00-.167.19c-.037.086-.028.152.029.198l1.757 1.594.865 1.907c.032.068.062.103.092.108.03.004.077.006.145.007.083.014.137.05.164.11.02.043.026.084.02.126-.008.042-.016.08-.026.113l-.087.064-1.57.71-.104.026a.221.221 0 01-.09-.037.221.221 0 01-.085-.099c-.03-.062-.023-.135.02-.216a.704.704 0 00.077-.195.312.312 0 00-.032-.171l-.633-1.412zM36.08 35.193l-.176-.197c-.128-.142-.224-.183-.29-.124-.037.032-.053.085-.047.155.006.07.054.164.143.285.089.119.095.26.018.424l-.11.231.34.38.242-.083c.17-.06.31-.04.416.062.107.102.197.157.272.169.076.011.128.002.159-.026.03-.028.041-.065.03-.111a.49.49 0 00-.123-.19l-.177-.198-.696-.777zm-1.85-.773c.015.018.036.021.058.014l.088-.033c.036-.013.102-.04.197-.081.095-.044.205-.076.33-.1a.945.945 0 01.394.012c.138.032.276.088.414.163.136.077.238.113.304.111a.257.257 0 00.162-.06.221.221 0 00.075-.133c.01-.053.004-.09-.019-.115l-.171-.191-.863-.962-1.22 1.095.25.28zm1.424 4.903c.04.045.026.118-.042.22a.902.902 0 00-.124.238.167.167 0 00.044.158c.02.024.059.046.11.066.05.018.09.024.113.015l.091-.055 1.527-1.37-3.728-4.157-1.528 1.37-.063.085a.31.31 0 00.004.105.242.242 0 00.051.127c.045.048.096.068.153.06a.89.89 0 00.25-.097c.108-.057.183-.063.223-.019l2.919 3.254zm1.796-1.301c-.016-.019-.018-.038-.006-.06l.04-.084a5.81 5.81 0 01.105-.187c.052-.092.098-.199.136-.319a.938.938 0 00.031-.394 1.549 1.549 0 00-.118-.43c-.061-.144-.087-.25-.076-.315a.254.254 0 01.078-.154.225.225 0 01.141-.061c.053-.004.09.006.113.03l.171.193.863.961-1.227 1.1-.251-.28zM36.407 32.462l-.449-.48.858-1.244 3.779 1.506c.466.185.766.286.901.303.135.017.233-.004.293-.062a.354.354 0 01.182-.104.2.2 0 01.156.026c.058.04.089.103.095.19a.384.384 0 01-.075.249L41.13 34.32c-.094.135-.186.224-.28.266-.095.042-.176.041-.239-.003a.202.202 0 01-.096-.156 1.502 1.502 0 01.005-.215c.006-.079-.01-.132-.048-.158a.42.42 0 00-.109-.04l-.304-.088c-.145-.045-.272-.083-.378-.117l-.596.862-.287-.37.47-.682-2.86-1.158zm2.47 3.072l-2.184-2.636.691.27 1.594 1.905c.032.044.068.087.109.132.04.044.086.084.136.118.11.076.227.118.352.128a.54.54 0 00.344-.087c.105-.067.189-.08.25-.038.074.05.09.105.05.162l-.798 1.159c-.055.08-.122.094-.198.04-.096-.066-.135-.196-.115-.395.02-.2.015-.341-.015-.427a1.235 1.235 0 00-.215-.331zM43.598 29.332l.013-.107c-.003-.018-.023-.047-.057-.086a.259.259 0 00-.109-.078.166.166 0 00-.163.024.904.904 0 00-.167.209c-.067.103-.128.145-.186.127l-4.726-1.563-.641 1.942-.014.106a.377.377 0 00.057.088.216.216 0 00.107.084c.062.02.117.012.161-.024a.85.85 0 00.17-.209c.065-.103.127-.145.185-.126l4.148 1.372c.058.018.082.09.074.21a.893.893 0 00.01.27.165.165 0 00.116.116c.032.01.074.01.129 0 .054-.008.09-.023.105-.041l.055-.094.733-2.22zm-2.638-.984a5.67 5.67 0 01-.008-.29c-.011-.095-.054-.156-.13-.18l-1.785-.591c-.075-.023-.153.008-.236.099l-.137.19-.228-.075c-.013-.19.01-.377.069-.558.09-.268.244-.492.464-.67.22-.177.431-.276.631-.299.201-.022.354-.027.458-.018.104.011.22.037.347.079.125.04.237.096.338.167.102.07.201.186.295.349.096.164.163.288.2.374a.952.952 0 01.06.363c.154-.217.337-.36.548-.427.21-.067.39-.08.539-.042a9.136 9.136 0 00.807.18c.08.011.136.005.174-.02a.17.17 0 00.075-.09 1.52 1.52 0 00.04-.161.17.17 0 01.089-.099.192.192 0 01.152-.005.5.5 0 01.114.056c.036.024.098.07.186.136.088.065.148.173.179.323.032.15-.006.386-.112.709a1.774 1.774 0 01-.21.452.875.875 0 01-.288.261.635.635 0 01-.285.102.906.906 0 01-.279-.057l-1.195-.394c-.138-.06-.256-.056-.36.014a.472.472 0 00-.192.228l-.32-.106zM8.536 33.945l.108-.066a.274.274 0 00.046-.12.29.29 0 00-.006-.162.2.2 0 00-.142-.135 1.088 1.088 0 00-.322-.002c-.145.014-.23-.013-.256-.081l-2.038-5.6-2.3.837-.108.066a.433.433 0 00-.042.118.27.27 0 00.003.164.196.196 0 00.142.135c.068.016.175.018.321.003.145-.015.23.013.255.08l1.79 4.916c.025.069-.023.144-.145.226a1.044 1.044 0 00-.243.21c-.042.056-.05.12-.022.196a.351.351 0 00.092.121c.05.045.088.066.118.066l.127-.018 2.622-.954zm-.908-2.931c.08-.071.163-.147.246-.228.083-.08.11-.163.08-.246l-.875-2.402c-.032-.089-.102-.135-.211-.14A3.372 3.372 0 006.53 28l-.097-.266a1.85 1.85 0 011.661-.32c.396.11.711.286.948.527.235.24.398.484.488.73.057.157.09.311.1.461.011.152-.037.363-.145.637a3.343 3.343 0 01-.48.82 1.719 1.719 0 01-1.285.681l-.093-.256zM14.058 31.934l.109-.065a.28.28 0 00.051-.122.27.27 0 00-.001-.163.196.196 0 00-.143-.135 1.054 1.054 0 00-.321-.003c-.146.014-.23-.012-.255-.08L11.46 25.77l-2.3.837-.109.068a.415.415 0 00-.04.116.27.27 0 000 .164.2.2 0 00.143.136c.068.015.175.016.321.002.145-.015.231.012.256.08l1.788 4.913c.025.067-.023.143-.145.225-.12.083-.203.152-.244.21-.042.056-.05.12-.022.194a.33.33 0 00.093.121c.049.045.088.068.118.068l.125-.018 2.613-.952zm-1.032-3.199c.06-.052.154-.127.28-.226.084-.084.11-.17.077-.26l-.773-2.124c-.031-.089-.121-.14-.267-.15l-.279.011-.097-.266c.168-.155.36-.27.575-.349.319-.116.644-.136.973-.06.33.075.58.199.75.37.169.174.287.313.355.419.068.105.13.234.185.385.053.147.085.294.094.442.009.148-.028.327-.112.538a4.763 4.763 0 01-.206.466c-.053.1-.153.208-.3.327.321-.016.591.05.812.198.22.148.367.307.44.476.073.168.152.337.235.51.082.17.148.297.196.38.048.084.098.134.148.152a.211.211 0 00.14.002c.042-.016.102-.046.181-.09a.203.203 0 01.159.009.234.234 0 01.118.14.555.555 0 01.032.149c.004.052.008.144.011.276.005.133-.053.268-.171.41-.117.14-.367.28-.75.42a2.19 2.19 0 01-.58.14c-.156.009-.31-.017-.459-.078-.15-.061-.251-.125-.305-.191a1.1 1.1 0 01-.155-.303l-.514-1.413c-.045-.173-.14-.28-.285-.323a.59.59 0 00-.369-.007l-.139-.38zM19.9 29.314c.092-.164.163-.296.213-.397a.393.393 0 00.012-.325l-1.556-4.276a.48.48 0 00-.321-.31c-.1-.018-.2-.038-.301-.06l-.172-.472c.683-.093 1.287-.046 1.816.14.53.187.901.441 1.115.762.217.323.376.59.483.803.108.213.199.42.273.625.099.272.172.536.22.79.05.256.053.579.012.97-.041.391-.196.782-.464 1.173-.27.391-.66.73-1.17 1.016l-.16-.44zm-.228.58c-.578.11-1.093.101-1.547-.023-.454-.126-.825-.326-1.112-.602-.286-.275-.494-.525-.62-.752a5.127 5.127 0 01-.34-.749 6.046 6.046 0 01-.32-1.404c-.055-.503.06-.995.347-1.479.285-.484.72-.91 1.304-1.276l.172.472c-.086.108-.17.216-.25.32a.481.481 0 000 .366l1.558 4.282c.04.11.126.193.256.25.13.056.26.107.39.155l.162.44zM24.356 22.424a.594.594 0 00-.328-.361l-.47-.167-.17-.472c.371-.135.742-.2 1.112-.191.37.007.686.093.946.255.262.164.468.317.621.46.153.143.307.315.464.516.155.2.288.395.399.584.11.188.196.37.258.542a6.3 6.3 0 01.109.333c.038.129.088.317.147.566.06.246.085.527.07.84a2.203 2.203 0 01-.281.957 3.22 3.22 0 01-.698.877c-.292.26-.578.441-.861.544l-.171-.471c.006-.015.071-.12.194-.32a.657.657 0 00.076-.597l-1.417-3.895zm-3.168.575c-.025-.068-.11-.095-.255-.08a1.062 1.062 0 01-.322-.004.196.196 0 01-.142-.135.275.275 0 01-.002-.164.412.412 0 01.041-.117l.11-.067 2.298-.837 2.288 6.284-2.3.836-.126.02c-.03-.001-.07-.024-.118-.068a.33.33 0 01-.093-.122.2.2 0 01.022-.195c.041-.057.123-.126.244-.208.12-.083.169-.159.144-.227L21.187 23zM32.14 22.821l-1.224-3.363c-.017-.047-.105-.063-.264-.05-.161.013-.26.009-.302-.014-.042-.024-.08-.08-.11-.17a.497.497 0 01-.031-.255l.046-.044 1.31-.477.07.001a.514.514 0 01.141.215c.029.08.036.143.02.193-.013.05-.081.13-.206.24-.125.111-.185.172-.182.182l1.413 3.88c.075.21.123.45.14.722.02.272-.074.572-.283.9a1.64 1.64 0 01-.842.683l-.14-.389c.17-.139.297-.275.38-.406a1.697 1.697 0 00.24-1.12 3.196 3.196 0 00-.176-.728zm-1.298 2.363a.21.21 0 00.224-.02l.185.513-.694.254a2.075 2.075 0 01-.391.106 1.901 1.901 0 01-.423-.006 2.386 2.386 0 01-.425-.076 1.177 1.177 0 01-.334-.173 1.027 1.027 0 01-.285-.31 2.364 2.364 0 01-.193-.406 6.687 6.687 0 00-.05-.137.954.954 0 01-.036-.124l-1.426-3.92c-.024-.068-.11-.095-.256-.08-.146.015-.25.015-.316 0-.063-.015-.11-.06-.137-.133a.29.29 0 01-.015-.177.5.5 0 01.044-.11l.11-.066 2.626-.956.126-.019c.032.001.07.023.118.068.05.045.08.085.095.122a.198.198 0 01-.024.194 1.043 1.043 0 01-.246.21c-.124.084-.172.16-.147.227l1.749 4.806.05.137a.137.137 0 00.07.076zM37.232 23.504l-.164-.451c.19-.099.338-.202.442-.308.105-.106.202-.254.294-.442.093-.187.158-.352.193-.493.035-.14.04-.288.013-.441-.026-.154.036-.259.19-.314a.296.296 0 01.167-.005c.067.016.108.083.126.199.052.254.055.49.012.707a2.085 2.085 0 01-.28.68 2.455 2.455 0 01-.43.548 1.72 1.72 0 01-.563.32zm-2.108-5.794l-.177-.484c.13-.047.276-.087.434-.117a.699.699 0 01.416.03.45.45 0 00.344.017c.138-.05.205-.12.21-.21a.317.317 0 01.08-.216.484.484 0 01.187-.12c.125-.047.211-.006.258.12.103.286.208.571.313.86.105.288.213.576.324.868.049.13.078.214.09.247a.922.922 0 01.034.116.912.912 0 01-.095.156.366.366 0 01-.17.119c-.099.036-.198.01-.295-.08a7.393 7.393 0 00-.767-.907c-.23-.222-.432-.352-.61-.39a1.313 1.313 0 00-.355-.05c-.06.007-.134.021-.22.04zm1.617 5.973c-.577.108-1.094.101-1.548-.025-.454-.125-.825-.325-1.111-.6-.287-.275-.494-.527-.622-.754a5.226 5.226 0 01-.339-.748 6.063 6.063 0 01-.32-1.405c-.055-.501.062-.994.346-1.478.288-.484.722-.908 1.305-1.276l.172.472c-.086.108-.168.215-.248.321a.484.484 0 000 .364l1.559 4.282c.04.11.125.193.255.25.13.056.26.108.39.156l.16.44zM38.71 15.856l2.038 5.601c.025.067-.023.143-.144.225-.12.082-.201.153-.243.208a.198.198 0 00-.022.196.35.35 0 00.092.122c.05.043.089.067.119.067l.127-.018 2.621-.954.108-.067c.018-.018.033-.058.046-.119a.285.285 0 00-.005-.162.197.197 0 00-.143-.134 1.035 1.035 0 00-.321-.004c-.146.014-.232-.012-.256-.08l-2.04-5.6-1.977.72zm2.573-.456c.003.01.032.029.086.053a.68.68 0 00.197.052.831.831 0 01.267.095c.099.053.194.132.286.237.092.106.196.259.313.456.116.198.214.282.292.254.037-.014.062-.046.077-.096a.186.186 0 00.008-.113l-.107-.29-.527-1.452-1.046.38.154.424zm-2.806 1.027c.003.01-.007.042-.032.097a.718.718 0 01-.118.167.815.815 0 00-.142.242 1.016 1.016 0 00-.067.367c-.003.14.01.3.04.478.029.18.037.299.022.356-.014.059-.039.094-.076.108-.026.01-.06.003-.104-.02a.166.166 0 01-.089-.096l-.106-.29-.528-1.452 1.045-.38.155.423zM41.152 9.41h.354v-.4h.188c.14 0 .151.114.16.224.005.059.011.119.03.177h.353c-.03-.054-.033-.19-.038-.247-.013-.144-.073-.25-.169-.288.117-.043.173-.168.173-.287 0-.218-.175-.33-.376-.33h-.675v1.152zm.354-.876h.166c.135 0 .176.042.176.114 0 .103-.09.114-.156.114h-.186v-.228z"/><path d="M40.779 8.859a.907.907 0 111.815 0 .907.907 0 01-1.815 0zm-.357 0c0 .696.567 1.262 1.264 1.263.696 0 1.263-.567 1.263-1.263 0-.697-.567-1.264-1.263-1.264-.697 0-1.264.567-1.264 1.264zM12.486 20.098l.81.391-.305 1.713-5.514.492c-.693.061-1.122.116-1.29.162-.168.048-.271.12-.31.218a.486.486 0 01-.164.219.275.275 0 01-.206.054c-.093-.016-.167-.076-.221-.178a.522.522 0 01-.049-.348l.422-2.37c.038-.217.103-.377.195-.482.092-.104.19-.148.296-.13a.286.286 0 01.209.148c.046.082.084.166.113.25.03.085.085.136.166.15.037.006.069.009.095.006l5.753-.295zm-4.861-2.42l4.134 2.002-.983.051-3.01-1.446a3.148 3.148 0 00-.21-.089 1.25 1.25 0 00-.231-.066.95.95 0 00-.506.04.739.739 0 00-.374.301c-.093.142-.187.205-.287.187-.118-.02-.168-.077-.152-.17l.333-1.869c.023-.13.095-.184.22-.162.153.028.274.169.36.422.086.254.173.425.259.514.086.089.235.183.447.285zM14.66 15.823a9.908 9.908 0 00-.03-.512.44.44 0 00-.181-.319l-4.042-3.15a.535.535 0 00-.494-.1 8.056 8.056 0 01-.325.127l-.446-.346c.594-.497 1.2-.816 1.816-.954.616-.138 1.124-.118 1.52.06.398.18.712.338.94.477.23.14.441.284.634.434.258.2.484.408.684.623.198.213.395.52.59.917.194.398.28.864.258 1.398-.023.533-.193 1.09-.509 1.669l-.415-.324zm.13.69c-.485.448-.981.749-1.49.902-.509.152-.982.183-1.42.092-.438-.092-.786-.207-1.042-.348a5.708 5.708 0 01-.771-.51 6.788 6.788 0 01-1.145-1.15c-.353-.445-.537-.985-.553-1.618-.016-.632.145-1.298.483-1.997l.447.349c-.017.154-.03.305-.044.454a.544.544 0 00.218.348l4.045 3.152c.103.082.235.11.392.086a8.26 8.26 0 00.465-.084l.415.323zM14.542 6.854l2.83 6.082c.034.074-.013.163-.14.268a1.2 1.2 0 00-.255.258.222.222 0 00-.005.22c.018.04.057.083.116.128.058.046.105.067.14.065l.139-.034 2.847-1.325.116-.085c.018-.022.03-.067.04-.138a.324.324 0 00-.023-.181.22.22 0 00-.172-.138 1.178 1.178 0 00-.36.027c-.16.03-.259.008-.294-.065l-2.83-6.082-2.15 1zm2.84-.762c.006.012.04.029.101.052a.776.776 0 00.227.04c.087.004.19.03.306.08.116.05.23.13.344.24.114.11.244.269.394.48.15.21.267.295.352.256.04-.019.065-.057.077-.113.01-.057.01-.1-.003-.13l-.147-.315-.734-1.577-1.13.527.213.46zm-3.054 1.426c.005.012-.004.05-.027.111a.726.726 0 01-.114.199.912.912 0 00-.136.286c-.037.12-.05.26-.038.417.01.157.042.335.092.533.051.198.07.33.06.397-.01.067-.034.11-.074.128-.028.013-.068.01-.12-.012a.191.191 0 01-.108-.1l-.147-.315-.734-1.578 1.131-.526.215.46zM26.207 7.763l.024-.357c.017-.256-.035-.388-.153-.396-.07-.005-.133.03-.195.1-.061.072-.107.207-.14.406-.031.199-.163.337-.394.416l-.327.111-.045.69.31.152c.219.108.33.261.332.46.003.198.034.338.096.42.06.083.118.126.174.13.056.003.102-.022.137-.076.035-.055.056-.154.066-.298l.025-.358.09-1.4zm-1.002-2.515c-.002.03.013.054.041.069.032.013.07.032.116.053.046.022.134.06.264.112.132.053.269.128.41.225.14.097.262.228.36.39.1.165.177.349.232.554.056.204.117.337.181.397.065.061.135.094.21.1a.317.317 0 00.202-.053c.06-.04.09-.083.094-.127l.022-.346.113-1.736-2.213-.145-.032.507zm-3.372 5.992c-.005.081-.089.137-.251.168a1.19 1.19 0 00-.346.104.22.22 0 00-.111.19.37.37 0 00.04.169c.03.068.06.109.091.124l.14.037 2.754.18.49-7.51-2.753-.18-.143.018a.46.46 0 00-.096.103.304.304 0 00-.073.17.22.22 0 00.086.203c.063.048.173.098.33.149.156.05.232.117.227.198l-.385 5.877zm2.944.505c.003-.032.02-.053.051-.063l.122-.04c.047-.015.14-.04.278-.075.137-.036.282-.091.435-.17.152-.078.29-.191.408-.34.12-.15.221-.322.303-.518.081-.196.16-.32.23-.371a.34.34 0 01.223-.07c.075.004.14.03.193.078.053.048.078.094.076.137l-.023.347-.114 1.736-2.215-.145.033-.506zM34.42 10.142a.675.675 0 00.146-.528 72.042 72.042 0 01-.123-.547l.346-.45c.352.273.637.588.852.945.216.357.325.708.327 1.054.002.347-.019.635-.063.867a4.905 4.905 0 01-.212.752c-.097.27-.203.513-.315.73a3.846 3.846 0 01-.613.878c-.097.114-.247.273-.448.48a3.412 3.412 0 01-.757.574 2.49 2.49 0 01-1.081.306 3.651 3.651 0 01-1.255-.137c-.423-.12-.767-.284-1.036-.492l.347-.448c.019-.003.157-.005.421-.007.264-.003.467-.098.614-.287l2.85-3.69zm-2.45-2.668c.049-.065.023-.162-.079-.292a1.202 1.202 0 01-.19-.308c-.026-.074-.012-.147.042-.216a.317.317 0 01.155-.101.485.485 0 01.137-.03l.128.063 2.178 1.682-4.601 5.956-2.178-1.682-.093-.108c-.019-.029-.019-.08-.007-.153a.368.368 0 01.06-.162.22.22 0 01.2-.096c.079.005.193.041.344.106.153.066.252.066.302.002l3.601-4.66z"/></g></svg> 