<?xml version="1.0" encoding="UTF-8"?>
<svg width="171px" height="171px" viewBox="0 0 171 171" version="1.1" xmlns="http://www.w3.org/2000/svg" xmlns:xlink="http://www.w3.org/1999/xlink">
    <title>brandspark-gravy-eng-172x171</title>
    <defs>
        <polygon id="path-1" points="0 0 170.882 0 170.882 170.943 0 170.943"></polygon>
    </defs>
    <g id="brandspark-gravy-eng-172x171" stroke="none" stroke-width="1" fill="none" fill-rule="evenodd">
        <g id="Group-4">
            <mask id="mask-2" fill="white">
                <use xlink:href="#path-1"></use>
            </mask>
            <g id="Clip-2"></g>
            <path d="M170.382,85.472 C170.382,132.4 132.339,170.443 85.411,170.443 C38.483,170.443 0.44,132.4 0.44,85.472 C0.44,38.543 38.483,0.5 85.411,0.5 C132.339,0.5 170.382,38.543 170.382,85.472" id="Fill-1" fill="#243746" mask="url(#mask-2)"></path>
            <path d="M85.411,1 C38.834,1 0.94,38.894 0.94,85.472 C0.94,132.05 38.834,169.943 85.411,169.943 C131.989,169.943 169.882,132.05 169.882,85.472 C169.882,38.894 131.989,1 85.411,1 Z M85.411,170.943 C38.282,170.943 -0.06,132.601 -0.06,85.472 C-0.06,38.343 38.282,0 85.411,0 C132.54,0 170.882,38.343 170.882,85.472 C170.882,132.601 132.54,170.943 85.411,170.943 L85.411,170.943 Z" id="Fill-3" fill="#FFFFFE" mask="url(#mask-2)"></path>
        </g>
        <path d="M23.193,118.961 C23.259,118.696 23.185,118.359 22.97,117.951 L22.613,117.266 L20.743,118.245 L21.069,118.869 C21.279,119.271 21.521,119.53 21.796,119.646 C22.07,119.764 22.36,119.742 22.666,119.582 C22.953,119.432 23.128,119.225 23.193,118.961 Z M20.414,120.624 C20.474,120.293 20.386,119.902 20.152,119.453 L19.783,118.748 L17.627,119.876 L18.006,120.603 C18.231,121.031 18.495,121.318 18.796,121.464 C19.098,121.61 19.427,121.59 19.781,121.404 C20.142,121.216 20.353,120.956 20.414,120.624 Z M19.414,123.016 C19.09,123.028 18.787,122.965 18.5,122.824 C18.213,122.684 17.942,122.472 17.686,122.188 C17.429,121.907 17.193,121.558 16.974,121.143 L15.916,119.119 L22.965,115.429 L24.041,117.481 C24.459,118.279 24.601,118.954 24.47,119.509 C24.34,120.063 23.996,120.487 23.437,120.779 C23.069,120.973 22.715,121.037 22.375,120.978 C22.036,120.916 21.72,120.767 21.43,120.528 C21.514,120.987 21.484,121.406 21.34,121.786 C21.196,122.165 20.889,122.478 20.419,122.724 C20.072,122.905 19.736,123.003 19.414,123.016 L19.414,123.016 Z" id="Fill-5" fill="#FFFFFE"></path>
        <path d="M23.666,124.826 C23.312,124.649 22.955,124.556 22.593,124.544 L19.883,126.234 L19.151,125.06 L23.878,122.113 L24.5,123.11 L23.642,123.85 C24.013,123.836 24.375,123.886 24.729,124.001 C25.082,124.117 25.383,124.354 25.635,124.714 L24.586,125.625 C24.329,125.271 24.022,125.004 23.666,124.826" id="Fill-6" fill="#FFFFFE"></path>
        <path d="M25.507,129.582 C25.238,129.287 24.994,129.06 24.776,128.901 C24.557,128.743 24.364,128.636 24.195,128.579 C24.026,128.521 23.874,128.505 23.741,128.53 C23.608,128.557 23.488,128.607 23.382,128.684 C23.22,128.801 23.126,128.941 23.102,129.104 C23.078,129.269 23.128,129.437 23.253,129.61 C23.392,129.802 23.567,129.956 23.779,130.072 C23.99,130.188 24.23,130.268 24.498,130.311 L25.507,129.582 Z M23.367,131.366 L23.89,130.848 C23.567,130.807 23.25,130.711 22.945,130.563 C22.638,130.413 22.364,130.17 22.122,129.834 C21.843,129.447 21.73,129.057 21.783,128.663 C21.836,128.27 22.058,127.932 22.451,127.648 C23,127.253 23.57,127.185 24.158,127.442 C24.747,127.7 25.416,128.256 26.164,129.11 L26.294,129.016 C26.537,128.841 26.662,128.648 26.669,128.44 C26.675,128.233 26.588,128.005 26.409,127.755 C26.22,127.494 26.003,127.264 25.754,127.063 C25.505,126.863 25.241,126.681 24.96,126.514 L25.757,125.727 C26.052,125.912 26.336,126.123 26.613,126.36 C26.888,126.598 27.156,126.896 27.416,127.259 C27.837,127.845 28.037,128.366 28.011,128.824 C27.986,129.283 27.703,129.707 27.159,130.099 L24.062,132.33 L23.367,131.366 L23.367,131.366 Z" id="Fill-7" fill="#FFFFFE"></path>
        <path d="M27.355,136.305 L30.125,133.937 C30.311,133.776 30.426,133.605 30.468,133.423 C30.509,133.241 30.448,133.054 30.282,132.86 C30.138,132.69 29.949,132.567 29.714,132.489 C29.481,132.41 29.217,132.365 28.923,132.354 L26.066,134.797 L25.167,133.745 L29.4,130.124 L30.166,131.019 L29.652,131.625 C30.007,131.664 30.351,131.739 30.679,131.853 C31.009,131.966 31.295,132.165 31.542,132.451 C31.881,132.849 32.026,133.246 31.976,133.644 C31.926,134.04 31.702,134.408 31.305,134.748 L28.254,137.356 L27.355,136.305" id="Fill-8" fill="#FFFFFE"></path>
        <path d="M34.956,138.06 C34.888,137.875 34.814,137.715 34.732,137.58 C34.648,137.445 34.522,137.293 34.352,137.126 C34.09,136.867 33.771,136.761 33.396,136.808 C33.021,136.854 32.619,137.097 32.186,137.534 C31.804,137.924 31.594,138.281 31.559,138.607 C31.523,138.934 31.615,139.205 31.834,139.421 C32.015,139.599 32.226,139.71 32.468,139.754 C32.711,139.799 32.978,139.804 33.272,139.769 L34.956,138.06 Z M32.093,141.245 L32.552,140.614 C32.243,140.644 31.929,140.626 31.611,140.561 C31.292,140.495 30.994,140.324 30.713,140.049 C30.505,139.845 30.35,139.613 30.248,139.355 C30.145,139.099 30.104,138.823 30.124,138.529 C30.141,138.235 30.235,137.928 30.402,137.604 C30.567,137.283 30.815,136.955 31.143,136.621 C31.505,136.254 31.865,135.98 32.226,135.801 C32.586,135.622 32.931,135.524 33.264,135.512 C33.595,135.499 33.907,135.552 34.199,135.672 C34.491,135.791 34.751,135.965 34.981,136.191 C35.173,136.381 35.332,136.563 35.455,136.738 C35.579,136.914 35.679,137.083 35.756,137.246 L37.642,135.331 L38.781,136.146 L32.939,142.079 L32.093,141.245 L32.093,141.245 Z" id="Fill-9" fill="#FFFFFE"></path>
        <path d="M38.788,145.409 C38.497,145.548 38.197,145.619 37.886,145.620045 C37.575,145.622 37.261,145.558 36.947,145.426 C36.63,145.294 36.326,145.105 36.03,144.86 C35.657,144.551 35.342,144.226 35.086,143.884 C34.83,143.542 34.62,143.193 34.456,142.838 L35.523,141.91 C35.656,142.28 35.833,142.643 36.051,142.999 C36.271,143.355 36.534,143.661 36.841,143.916 C37.115,144.142 37.386,144.263 37.658,144.278 C37.929,144.293 38.167,144.177 38.375,143.929 C38.468,143.816 38.534,143.703 38.572,143.591 C38.61,143.478 38.621,143.351 38.602,143.211 C38.584,143.07 38.534,142.902 38.453,142.705 C38.371,142.507 38.26,142.271 38.121,141.995 C37.926,141.625 37.771,141.294 37.655,141.002 C37.538,140.71 37.469,140.439 37.451,140.189 C37.433,139.94 37.465,139.702 37.548,139.477 C37.63,139.25 37.77,139.019 37.966,138.781 C38.192,138.51 38.441,138.309 38.712,138.18 C38.984,138.05 39.27,137.985 39.57,137.984 C39.871,137.984 40.174,138.045 40.481,138.17 C40.788,138.294 41.084,138.474 41.367,138.709 C41.716,138.999 41.99,139.28 42.187,139.554 C42.384,139.827 42.546,140.116 42.673,140.422 L41.613,141.34 C41.511,141.006 41.371,140.692 41.193,140.4 C41.015,140.108 40.806,139.862 40.562,139.661 C40.267,139.416 40.001,139.3 39.765,139.314 C39.528,139.327 39.333,139.43 39.175,139.618 C39.09,139.72 39.034,139.819 39.002,139.918 C38.97,140.016 38.964,140.133 38.982,140.268 C39,140.402 39.047,140.562 39.125,140.746 C39.202,140.93 39.31,141.154 39.451,141.42 C39.655,141.81 39.817,142.158 39.933,142.464 C40.048,142.77 40.115,143.052 40.131,143.309 C40.147,143.567 40.111,143.813 40.023,144.044 C39.936,144.276 39.794,144.511 39.598,144.747 C39.347,145.049 39.077,145.27 38.788,145.409" id="Fill-10" fill="#FFFFFE"></path>
        <path d="M44.556,146.069 C44.542,145.737 44.405,145.48 44.145,145.3 C43.942,145.159 43.715,145.089 43.466,145.089 C43.216,145.089 42.948,145.134 42.66,145.225 L41.298,147.186 C41.39,147.353 41.488,147.495 41.593,147.614 C41.698,147.734 41.849,147.862 42.045,147.999 C42.344,148.206 42.675,148.256 43.042,148.149 C43.408,148.043 43.766,147.737 44.117,147.231 C44.423,146.789 44.569,146.402 44.556,146.069 Z M44.364,148.948 C44.039,149.181 43.715,149.333 43.395,149.405 C43.073,149.477 42.757,149.479 42.451,149.409 C42.143,149.341 41.856,149.215 41.59,149.03 C41.369,148.877 41.184,148.723 41.035,148.567 C40.885,148.412 40.758,148.261 40.654,148.114 L39.458,149.839 L38.203,149.22 L42.601,142.882 L43.568,143.552 L43.238,144.25 C43.529,144.181 43.837,144.149 44.166,144.156 C44.493,144.164 44.817,144.279 45.14,144.503 C45.38,144.669 45.572,144.871 45.717,145.106 C45.861,145.344 45.948,145.609 45.978,145.904 C46.005,146.201 45.967,146.521 45.861,146.862 C45.753,147.205 45.567,147.569 45.299,147.954 C45.001,148.384 44.689,148.715 44.364,148.948 L44.364,148.948 Z" id="Fill-11" fill="#FFFFFE"></path>
        <path d="M48.982,150.304 C48.615,150.146 48.299,150.039 48.035,149.983 C47.771,149.929 47.549,149.91 47.373,149.928 C47.195,149.944 47.05,149.992 46.939,150.07 C46.828,150.148 46.74,150.244 46.674,150.357 C46.574,150.53 46.547,150.696 46.591,150.855 C46.637,151.015 46.751,151.147 46.938,151.254 C47.143,151.372 47.366,151.441 47.606,151.461 C47.846,151.479 48.098,151.454 48.359,151.383 L48.982,150.304 Z M47.762,152.809 L48.026,152.122 C47.713,152.217 47.387,152.259 47.046,152.25 C46.707,152.239 46.357,152.131 45.996,151.924 C45.584,151.685 45.321,151.375 45.208,150.994 C45.094,150.614 45.16,150.214 45.402,149.795 C45.74,149.209 46.23,148.913 46.873,148.906 C47.515,148.9 48.353,149.133 49.386,149.604 L49.466,149.465 C49.617,149.206 49.652,148.979 49.573,148.787 C49.493,148.595 49.32,148.422 49.054,148.268 C48.775,148.107 48.481,147.986 48.172,147.906 C47.865,147.826 47.548,147.768 47.223,147.73 L47.627,146.686 C47.972,146.733 48.319,146.81 48.667,146.913 C49.014,147.017 49.382,147.18 49.768,147.401 C50.393,147.763 50.789,148.157 50.953,148.586 C51.119,149.014 51.035,149.518 50.701,150.097 L48.792,153.403 L47.762,152.809 L47.762,152.809 Z" id="Fill-12" fill="#FFFFFE"></path>
        <path d="M54.022,151.592 C53.626,151.63 53.274,151.739 52.962,151.921 L51.56,154.792 L50.317,154.185 L52.761,149.18 L53.819,149.695 L53.483,150.776 C53.791,150.567 54.125,150.418 54.485,150.329 C54.845,150.239 55.227,150.281 55.63,150.452 L55.225,151.782 C54.818,151.617 54.417,151.554 54.022,151.592" id="Fill-13" fill="#FFFFFE"></path>
        <polyline id="Fill-14" fill="#FFFFFE" points="57.595 157.527 56.771 154.131 55.735 156.685 54.453 156.164 57.502 148.652 58.867 148.97 56.961 153.66 59.518 152.209 60.96 152.795 58.121 154.33 59.03 157.886 57.595 157.527"></polyline>
        <polyline id="Fill-15" fill="#FFFFFE" points="70.026 161.136 70.993 155.389 67.655 160.579 66.357 160.261 65.784 154.112 64.009 159.662 62.676 159.336 65.163 151.752 67.043 152.213 67.576 158.529 70.954 153.17 72.802 153.623 71.503 161.498 70.026 161.136"></polyline>
        <path d="M77.156,158.103 C76.976,157.745 76.679,157.541 76.268,157.489 C75.856,157.438 75.525,157.561 75.275,157.859 C75.023,158.158 74.866,158.567 74.799,159.089 C74.736,159.594 74.791,160.025 74.961,160.386 C75.133,160.745 75.421,160.951 75.825,161.002 C76.252,161.056 76.593,160.934 76.847,160.635 C77.103,160.337 77.262,159.928 77.328,159.407 C77.392,158.895 77.336,158.46 77.156,158.103 Z M78.32,160.765 C78.145,161.103 77.925,161.381 77.657,161.6 C77.389,161.817 77.086,161.971 76.75,162.061 C76.413,162.149 76.057,162.171 75.684,162.123 C75.31,162.076 74.972,161.968 74.673,161.799 C74.373,161.629 74.124,161.405 73.927,161.129 C73.729,160.852 73.587,160.528 73.501,160.157 C73.418,159.786 73.404,159.375 73.461,158.926 C73.517,158.476 73.633,158.081 73.806,157.742 C73.981,157.404 74.201,157.126 74.463,156.907 C74.729,156.688 75.027,156.533 75.361,156.439 C75.694,156.346 76.047,156.322 76.421,156.369 C76.794,156.417 77.133,156.526 77.437,156.701 C77.741,156.875 77.994,157.101 78.194,157.378 C78.396,157.655 78.539,157.979 78.624,158.35 C78.709,158.722 78.724,159.132 78.667,159.582 C78.609,160.032 78.494,160.426 78.32,160.765 L78.32,160.765 Z" id="Fill-16" fill="#FFFFFE"></path>
        <path d="M83.402,162.255 C83.007,162.541 82.442,162.666 81.705,162.633 C81.297,162.613 80.905,162.541 80.527,162.416 C80.147,162.291 79.826,162.148 79.565,161.99 L79.802,160.847 C80.092,161.061 80.412,161.235 80.759,161.37 C81.107,161.506 81.454,161.581 81.798,161.598 C82.099,161.611 82.33,161.57 82.492,161.474 C82.654,161.378 82.74,161.241 82.748,161.064 C82.752,160.965 82.739,160.878 82.708,160.803 C82.676,160.729 82.621,160.66 82.539,160.599 C82.457,160.537 82.344,160.479 82.201,160.422 C82.057,160.365 81.875,160.305 81.655,160.24 C81.321,160.14 81.035,160.034 80.798,159.924 C80.561,159.813 80.369,159.686 80.22,159.544 C80.073,159.403 79.968,159.24 79.903,159.057 C79.838,158.872 79.811,158.653 79.825,158.4 C79.846,157.916 80.043,157.531 80.415,157.244 C80.786,156.958 81.297,156.829 81.951,156.859 C82.68,156.894 83.323,157.055 83.878,157.342 L83.641,158.485 C83.372,158.318 83.084,158.183 82.777,158.076 C82.47,157.969 82.178,157.909 81.903,157.896 C81.641,157.885 81.445,157.921 81.314,158.008 C81.183,158.094 81.115,158.214 81.107,158.367 C81.104,158.444 81.116,158.512 81.143,158.571 C81.171,158.63 81.222,158.688 81.296,158.746 C81.371,158.803 81.474,158.859 81.606,158.916 C81.738,158.973 81.907,159.032 82.113,159.095 C82.468,159.204 82.772,159.315 83.02,159.427 C83.269,159.538 83.471,159.666 83.626,159.813 C83.781,159.958 83.89,160.127 83.955,160.318 C84.019,160.51 84.044,160.736 84.033,160.997 C84.006,161.551 83.796,161.97 83.402,162.255" id="Fill-17" fill="#FFFFFE"></path>
        <path d="M87.988,162.641 C87.851,162.662 87.681,162.675 87.482,162.679 C87.205,162.684 86.955,162.66 86.73,162.611 C86.505,162.562 86.312,162.473 86.149,162.345 C85.986,162.217 85.857,162.046 85.765,161.832 C85.672,161.618 85.625,161.354 85.619,161.039 L85.567,158.18 L84.783,158.193 L84.762,157.063 L85.546,157.049 L85.516,155.285 L86.873,155.054 L86.908,157.025 L88.05,157.005 L88.243,158.132 L86.928,158.155 L86.974,160.784 C86.979,161.007 87.037,161.177 87.151,161.294 C87.264,161.412 87.457,161.468 87.724,161.463 C87.902,161.46 88.047,161.441 88.163,161.409 L88.355,162.57 C88.249,162.596 88.126,162.619 87.988,162.641" id="Fill-18" fill="#FFFFFE"></path>
        <polyline id="Fill-19" fill="#FFFFFE" points="95.086 155.304 95.933 161.881 94.412 162.077 93.564 155.5 91.22 155.802 91.05 154.487 97.18 153.696 97.567 154.984 95.086 155.304"></polyline>
        <path d="M99.834,157.206 C99.541,157.475 99.326,157.774 99.186,158.107 L99.798,161.243 L98.441,161.508 L97.374,156.041 L98.528,155.815 L98.912,156.88 C99.032,156.528 99.209,156.207 99.441,155.919 C99.675,155.631 100.005,155.434 100.43,155.327 L100.908,156.632 C100.484,156.746 100.126,156.937 99.834,157.206" id="Fill-20" fill="#FFFFFE"></path>
        <path d="M106.365,159.709 L106.043,158.984 C105.852,159.289 105.633,159.565 105.385,159.814 C105.137,160.063 104.835,160.234 104.477,160.328 C103.964,160.464 103.543,160.423 103.211,160.205 C102.878,159.986 102.643,159.621 102.507,159.108 L101.484,155.239 L102.822,154.885 L103.755,158.408 C103.817,158.646 103.921,158.821 104.067,158.934 C104.211,159.047 104.402,159.071 104.641,159.009 C104.857,158.952 105.052,158.834 105.227,158.657 C105.403,158.479 105.561,158.265 105.702,158.012 L104.74,154.377 L106.078,154.023 L107.503,159.408 L106.365,159.709" id="Fill-21" fill="#FFFFFE"></path>
        <path d="M112.473,157.348 C112.215,157.761 111.738,158.089 111.041,158.333 C110.657,158.468 110.265,158.549 109.867,158.574 C109.469,158.601 109.119,158.589 108.817,158.54 L108.609,157.391 C108.959,157.48 109.318,157.522 109.691,157.518 C110.064,157.513 110.416,157.453 110.741,157.339 C111.023,157.239 111.222,157.114 111.337,156.965 C111.453,156.814 111.479,156.655 111.42,156.489 C111.387,156.395 111.343,156.319 111.286,156.262 C111.228,156.204 111.151,156.162 111.052,156.136 C110.953,156.109 110.827,156.097 110.672,156.098 C110.517,156.099 110.326,156.111 110.099,156.134 C109.751,156.166 109.447,156.176 109.184,156.161 C108.923,156.147 108.699,156.103 108.508,156.026 C108.319,155.95 108.159,155.839 108.031,155.692 C107.902,155.547 107.796,155.354 107.711,155.114 C107.552,154.657 107.589,154.226 107.826,153.821 C108.063,153.416 108.491,153.105 109.106,152.89 C109.795,152.646 110.451,152.556 111.076,152.613 L111.283,153.763 C110.97,153.71 110.652,153.691 110.329,153.707 C110.004,153.723 109.711,153.777 109.451,153.868 C109.203,153.955 109.036,154.063 108.947,154.191 C108.857,154.32 108.838,154.458 108.889,154.604 C108.915,154.676 108.951,154.734 109,154.778 C109.047,154.822 109.117,154.857 109.207,154.883 C109.297,154.907 109.414,154.922 109.557,154.924 C109.702,154.927 109.88,154.92 110.094,154.901 C110.465,154.869 110.788,154.858 111.06,154.868 C111.333,154.878 111.567,154.922 111.766,154.999 C111.964,155.076 112.128,155.191 112.26,155.345 C112.391,155.499 112.5,155.699 112.586,155.945 C112.77,156.468 112.732,156.936 112.473,157.348" id="Fill-22" fill="#FFFFFE"></path>
        <path d="M116.867,155.989 C116.748,156.062 116.596,156.136 116.412,156.215 C116.158,156.322 115.916,156.396 115.691,156.433 C115.464,156.471 115.252,156.461 115.052,156.404 C114.852,156.347 114.669,156.237 114.504,156.073 C114.337,155.909 114.194,155.683 114.072,155.393 L112.952,152.76 L112.231,153.066 L111.789,152.026 L112.51,151.72 L111.82,150.096 L112.992,149.372 L113.763,151.188 L114.814,150.741 L115.415,151.714 L114.206,152.228 L115.232,154.647 C115.321,154.854 115.438,154.989 115.587,155.055 C115.737,155.121 115.935,155.102 116.182,154.996 C116.346,154.927 116.474,154.855 116.568,154.782 L117.183,155.786 C117.093,155.85 116.988,155.918 116.867,155.989" id="Fill-23" fill="#FFFFFE"></path>
        <path d="M119.096,149.971 C118.833,149.846 118.552,149.859 118.25,150.013 C118.003,150.138 117.838,150.344 117.756,150.632 C117.674,150.92 117.713,151.281 117.874,151.717 L119.848,150.715 C119.609,150.345 119.358,150.097 119.096,149.971 Z M121.37,150.743 C121.394,150.8 121.416,150.846 121.433,150.88 L118.245,152.498 C118.526,152.968 118.84,153.252 119.189,153.352 C119.537,153.451 119.904,153.402 120.287,153.208 C120.609,153.044 120.878,152.839 121.092,152.592 C121.308,152.345 121.503,152.056 121.679,151.724 L122.316,152.617 C122.141,152.938 121.92,153.236 121.651,153.511 C121.38,153.786 121.044,154.026 120.637,154.231 C120.289,154.41 119.941,154.523 119.595,154.574 C119.25,154.625 118.915,154.599 118.588,154.497 C118.262,154.395 117.954,154.213 117.665,153.951 C117.375,153.688 117.117,153.334 116.89,152.889 C116.686,152.484 116.558,152.094 116.511,151.717 C116.463,151.34 116.484,150.989 116.575,150.662 C116.666,150.336 116.821,150.042 117.038,149.78 C117.255,149.52 117.524,149.307 117.848,149.143 C118.218,148.955 118.573,148.856 118.913,148.848 C119.253,148.839 119.57,148.904 119.861,149.046 C120.152,149.187 120.419,149.39 120.662,149.654 C120.904,149.92 121.115,150.227 121.292,150.576 C121.32,150.631 121.344,150.687 121.37,150.743 L121.37,150.743 Z" id="Fill-24" fill="#FFFFFE"></path>
        <path d="M124.598,146.908 C124.404,146.929 124.23,146.964 124.079,147.012 C123.928,147.061 123.753,147.146 123.548,147.271 C123.236,147.466 123.056,147.751 123.013,148.126 C122.969,148.501 123.109,148.95 123.432,149.473 C123.72,149.938 124.017,150.226 124.326,150.338 C124.635,150.449 124.92,150.425 125.181,150.263 C125.397,150.129 125.555,149.95 125.656,149.725 C125.757,149.5 125.825,149.241 125.861,148.948 L124.598,146.908 Z M127.016,150.443 L126.511,149.847 C126.467,150.154 126.375,150.455 126.236,150.75 C126.097,151.044 125.86,151.294 125.527,151.5 C125.28,151.653 125.017,151.75 124.742,151.789 C124.469,151.827 124.191,151.802 123.91,151.714 C123.628,151.625 123.352,151.462 123.079,151.225 C122.804,150.987 122.545,150.669 122.298,150.27 C122.027,149.832 121.846,149.416 121.757,149.024 C121.669,148.632 121.658,148.272 121.722,147.947 C121.788,147.623 121.914,147.332 122.1,147.077 C122.286,146.822 122.515,146.609 122.79,146.439 C123.018,146.298 123.233,146.188 123.433,146.109 C123.634,146.031 123.822,145.974 123.998,145.937 L122.584,143.651 L123.646,142.737 L128.025,149.818 L127.016,150.443 L127.016,150.443 Z" id="Fill-25" fill="#FFFFFE"></path>
        <path d="M130.277,140.245 L131.387,143.304 L133.062,141.927 L130.277,140.245 Z M136.104,143.757 L134.183,142.618 L131.857,144.529 L132.578,146.55 L131.41,147.509 L128.644,139.438 L129.9,138.405 L137.104,142.576 L136.104,143.757 L136.104,143.757 Z" id="Fill-26" fill="#FFFFFE"></path>
        <polyline id="Fill-27" fill="#FFFFFE" points="142.059 137.859 141.195 138.741 137.825 136.908 139.734 140.232 138.871 141.114 133.803 138.476 134.64 137.357 137.988 139.247 136.102 135.98 136.957 135.106 140.255 136.933 138.337 133.698 139.25 132.768 142.059 137.859"></polyline>
        <path d="M143.761,131.545 C143.547,131.883 143.392,132.179 143.298,132.432 C143.204,132.684 143.15,132.898 143.139,133.077 C143.13,133.255 143.154,133.405 143.213,133.527 C143.273,133.649 143.353,133.751 143.456,133.833 C143.611,133.958 143.771,134.012 143.934,133.992 C144.098,133.973 144.249,133.879 144.382,133.712 C144.532,133.527 144.634,133.318 144.691,133.084 C144.747,132.85 144.76,132.598 144.731,132.327 L143.761,131.545 Z M146.046,133.139 L145.409,132.772 C145.455,133.096 145.447,133.425 145.383,133.759 C145.321,134.094 145.158,134.423 144.897,134.746 C144.598,135.116 144.252,135.328 143.858,135.381 C143.464,135.435 143.079,135.309 142.703,135.004 C142.176,134.579 141.96,134.048 142.053,133.412 C142.148,132.776 142.507,131.985 143.132,131.038 L143.007,130.937 C142.775,130.748 142.556,130.679 142.355,130.727 C142.152,130.775 141.954,130.92 141.761,131.158 C141.558,131.409 141.393,131.681 141.267,131.973 C141.139,132.265 141.033,132.568 140.947,132.884 L139.976,132.322 C140.078,131.989 140.207,131.658 140.361,131.331 C140.518,131.003 140.736,130.665 141.016,130.318 C141.47,129.757 141.921,129.428 142.37,129.331 C142.818,129.234 143.303,129.396 143.824,129.816 L146.793,132.215 L146.046,133.139 L146.046,133.139 Z" id="Fill-28" fill="#FFFFFE"></path>
        <path d="M145.81,126.77 C145.788,127.166 145.84,127.532 145.972,127.867 L148.589,129.699 L147.796,130.833 L143.232,127.64 L143.906,126.676 L144.921,127.175 C144.763,126.839 144.669,126.486 144.636,126.116 C144.603,125.747 144.703,125.376 144.935,125.003 L146.185,125.61 C145.961,125.987 145.835,126.374 145.81,126.77" id="Fill-29" fill="#FFFFFE"></path>
        <path d="M148.427,122.027 C148.264,122.135 148.127,122.245 148.015,122.357 C147.903,122.47 147.785,122.628 147.663,122.832 C147.473,123.148 147.445,123.483 147.579,123.837 C147.711,124.189 148.041,124.525 148.569,124.842 C149.037,125.122 149.433,125.242 149.759,125.199 C150.086,125.157 150.327,125.004 150.485,124.74 C150.616,124.522 150.673,124.291 150.661,124.045 C150.646,123.799 150.588,123.538 150.485,123.261 L148.427,122.027 Z M152.198,124.06 L151.476,123.761 C151.577,124.056 151.633,124.365 151.645,124.689 C151.656,125.015 151.561,125.345 151.359,125.682 C151.209,125.933 151.021,126.138 150.794,126.298 C150.569,126.458 150.31,126.563 150.021,126.613 C149.731,126.663 149.41,126.646 149.058,126.56 C148.705,126.475 148.328,126.311 147.925,126.069 C147.484,125.805 147.134,125.519 146.875,125.211 C146.616,124.902 146.44,124.589 146.349,124.271 C146.259,123.951 146.237,123.636 146.285,123.323 C146.334,123.012 146.44,122.717 146.606,122.44 C146.745,122.21 146.884,122.014 147.027,121.852 C147.169,121.691 147.308,121.553 147.449,121.439 L145.144,120.058 L145.669,118.758 L152.808,123.041 L152.198,124.06 L152.198,124.06 Z" id="Fill-30" fill="#FFFFFE"></path>
        <path d="M154.93,118.097 C155.033,118.572 154.919,119.141 154.591,119.802 C154.411,120.167 154.187,120.498 153.919,120.794 C153.652,121.091 153.392,121.326 153.142,121.502 L152.191,120.824 C152.503,120.645 152.792,120.423 153.055,120.159 C153.321,119.896 153.528,119.608 153.682,119.299 C153.816,119.03 153.873,118.803 153.849,118.615 C153.827,118.428 153.736,118.295 153.577,118.217 C153.488,118.171 153.402,118.148 153.322,118.147 C153.241,118.146 153.156,118.17 153.067,118.22 C152.977,118.27 152.878,118.35 152.768,118.458 C152.658,118.566 152.531,118.709 152.382,118.885 C152.157,119.149 151.945,119.368 151.747,119.541 C151.55,119.714 151.357,119.839 151.168,119.917 C150.979,119.994 150.788,120.025 150.593,120.011 C150.399,119.996 150.188,119.932 149.961,119.819 C149.527,119.604 149.253,119.269 149.14,118.813 C149.028,118.357 149.117,117.837 149.407,117.252 C149.732,116.598 150.139,116.074 150.627,115.681 L151.577,116.359 C151.316,116.539 151.076,116.748 150.853,116.984 C150.632,117.223 150.461,117.466 150.336,117.714 C150.221,117.948 150.175,118.142 150.202,118.297 C150.228,118.451 150.31,118.563 150.448,118.631 C150.516,118.666 150.584,118.682 150.649,118.68 C150.714,118.678 150.789,118.654 150.871,118.609 C150.953,118.564 151.046,118.493 151.15,118.396 C151.254,118.297 151.378,118.166 151.518,118.005 C151.762,117.722 151.986,117.489 152.188,117.307 C152.39,117.124 152.588,116.991 152.786,116.908 C152.98,116.825 153.179,116.793 153.38,116.812 C153.582,116.829 153.799,116.897 154.033,117.014 C154.529,117.259 154.828,117.62 154.93,118.097" id="Fill-31" fill="#FFFFFE"></path>
        <path d="M148.722,85.472 C148.722,120.438 120.377,148.782 85.411,148.782 C50.446,148.782 22.1,120.438 22.1,85.472 C22.1,50.506 50.446,22.161 85.411,22.161 C120.377,22.161 148.722,50.506 148.722,85.472" id="Fill-32" fill="#FFFFFE"></path>
        <path d="M85.411,22.661 C50.777,22.661 22.6,50.838 22.6,85.472 C22.6,120.105 50.777,148.282 85.411,148.282 C120.045,148.282 148.222,120.105 148.222,85.472 C148.222,50.838 120.045,22.661 85.411,22.661 Z M85.411,149.282 C50.225,149.282 21.6,120.657 21.6,85.472 C21.6,50.286 50.225,21.661 85.411,21.661 C120.596,21.661 149.222,50.286 149.222,85.472 C149.222,120.657 120.596,149.282 85.411,149.282 L85.411,149.282 Z" id="Fill-33" fill="#243746"></path>
        <path d="M17.294,114.512 C16.319,112.232 15.45,109.877 14.712,107.512 C12.494,100.403 11.369,92.988 11.369,85.472 C11.369,44.729 44.516,11.581 85.26,11.581 C126.003,11.581 159.151,44.729 159.151,85.472 C159.151,92.963 158.034,100.355 155.83,107.444 C155.138,109.667 154.332,111.881 153.433,114.022 L152.511,113.636 C153.397,111.523 154.193,109.34 154.875,107.147 C157.048,100.155 158.151,92.862 158.151,85.472 C158.151,45.279 125.453,12.581 85.26,12.581 C45.068,12.581 12.369,45.279 12.369,85.472 C12.369,92.887 13.478,100.202 15.668,107.214 C16.394,109.547 17.252,111.869 18.214,114.119 L17.294,114.512" id="Fill-34" fill="#FFFFFE"></path>
        <path d="M59.228,51.772 L63.162,51.772 L63.808,47.669 L59.874,47.669 L59.228,51.772 Z M58.048,59.471 L55.491,58.881 L56.052,55.256 L53.13,55.256 L53.13,51.688 L56.615,51.688 L57.205,47.754 L54.142,47.754 L53.552,44.186 L57.767,44.186 L58.413,40.168 L61.111,40.168 L60.464,44.186 L64.313,44.186 L64.988,39.971 L67.573,40.561 L66.983,44.186 L69.904,44.186 L69.904,47.754 L66.449,47.754 L65.802,51.688 L68.921,51.688 L69.484,55.256 L65.241,55.256 L64.594,59.273 L61.925,59.273 L62.543,55.256 L58.694,55.256 L58.048,59.471 L58.048,59.471 Z" id="Fill-35" fill="#243746"></path>
        <polyline id="Fill-36" fill="#243746" points="81.731 75.267 81.731 42.548 73.174 45.883 72.041 37.703 82.927 32.67 92.302 32.67 92.302 75.267 81.731 75.267"></polyline>
        <polyline id="Fill-37" fill="#243746" points="70.717 96.485 70.099 87.037 67.402 96.506 64.109 96.506 61.413 87.037 60.794 96.485 57.728 96.485 58.756 82.282 63.306 82.282 66.064 92.06 68.842 82.282 73.268 82.282 74.297 96.485 70.717 96.485"></polyline>
        <path d="M85.135,86.018 C84.566,85.188 83.766,84.772 82.736,84.772 C81.709,84.772 80.908,85.188 80.339,86.018 C79.768,86.849 79.484,87.971 79.484,89.383 C79.484,90.797 79.768,91.919 80.339,92.748 C80.908,93.579 81.709,93.995 82.736,93.995 C83.766,93.995 84.566,93.579 85.135,92.748 C85.706,91.919 85.989,90.797 85.989,89.383 C85.989,87.971 85.706,86.849 85.135,86.018 Z M89.046,92.368 C88.724,93.273 88.267,94.053 87.677,94.705 C87.086,95.356 86.369,95.86 85.526,96.218 C84.682,96.573 83.745,96.753 82.716,96.753 C81.7,96.753 80.778,96.573 79.948,96.218 C79.117,95.86 78.407,95.359 77.817,94.715 C77.227,94.069 76.771,93.298 76.449,92.399 C76.126,91.5 75.964,90.502 75.964,89.404 C75.964,88.308 76.126,87.305 76.449,86.399 C76.771,85.494 77.227,84.715 77.817,84.063 C78.407,83.411 79.122,82.907 79.959,82.55 C80.794,82.192 81.728,82.015 82.757,82.015 C83.786,82.015 84.72,82.192 85.557,82.55 C86.393,82.907 87.104,83.408 87.688,84.053 C88.269,84.698 88.724,85.47 89.046,86.368 C89.367,87.268 89.529,88.266 89.529,89.363 C89.529,90.46 89.367,91.462 89.046,92.368 L89.046,92.368 Z" id="Fill-38" fill="#243746"></path>
        <path d="M100.655,94.2 C100.386,94.764 100.024,95.227 99.563,95.589 C99.103,95.954 98.566,96.222 97.948,96.393 C97.33,96.564 96.671,96.649 95.972,96.649 C95.012,96.649 94.126,96.554 93.316,96.361 C92.506,96.169 91.739,95.908 91.011,95.579 L91.526,92.574 C92.266,92.972 93.024,93.291 93.8,93.531 C94.575,93.772 95.32,93.892 96.034,93.892 C96.541,93.892 96.952,93.786 97.268,93.572 C97.585,93.36 97.742,93.04 97.742,92.615 C97.742,92.409 97.711,92.231 97.649,92.08 C97.586,91.929 97.467,91.781 97.289,91.638 C97.111,91.493 96.865,91.347 96.548,91.194 C96.233,91.044 95.829,90.873 95.335,90.681 C94.62,90.406 94.006,90.135 93.491,89.867 C92.976,89.6 92.555,89.302 92.225,88.973 C91.897,88.643 91.652,88.266 91.496,87.84 C91.337,87.414 91.258,86.907 91.258,86.316 C91.258,85.631 91.384,85.027 91.639,84.505 C91.893,83.984 92.236,83.544 92.667,83.189 C93.1,82.831 93.611,82.563 94.202,82.386 C94.792,82.207 95.429,82.118 96.116,82.118 C97.036,82.118 97.825,82.199 98.482,82.365 C99.141,82.529 99.78,82.763 100.397,83.064 L99.861,86.029 C99.217,85.658 98.576,85.373 97.937,85.175 C97.3,84.976 96.706,84.876 96.158,84.876 C95.622,84.876 95.222,84.978 94.963,85.186 C94.704,85.391 94.572,85.658 94.572,85.987 C94.572,86.166 94.602,86.326 94.665,86.471 C94.727,86.615 94.835,86.753 94.994,86.883 C95.152,87.014 95.371,87.147 95.652,87.284 C95.933,87.421 96.294,87.572 96.733,87.737 C97.501,88.025 98.16,88.314 98.71,88.602 C99.257,88.89 99.708,89.205 100.057,89.549 C100.408,89.892 100.661,90.279 100.818,90.711 C100.977,91.144 101.056,91.642 101.056,92.204 C101.056,92.972 100.921,93.638 100.655,94.2" id="Fill-39" fill="#243746"></path>
        <polyline id="Fill-40" fill="#243746" points="109.392 85.267 109.392 96.485 105.851 96.485 105.851 85.267 101.921 85.267 101.921 82.282 113.16 82.282 113.653 85.267 109.392 85.267"></polyline>
        <polyline id="Fill-41" fill="#243746" points="49.557 104.625 49.557 115.844 46.016 115.844 46.016 104.625 42.085 104.625 42.085 101.641 53.325 101.641 53.817 104.625 49.557 104.625"></polyline>
        <path d="M61.762,104.821 C61.365,104.472 60.782,104.297 60.013,104.297 L58.88,104.297 L58.88,108.434 L59.972,108.434 C60.726,108.434 61.314,108.256 61.732,107.898 C62.151,107.541 62.359,107.021 62.359,106.335 C62.359,105.676 62.161,105.17 61.762,104.821 Z M66.579,115.391 L62.976,115.987 L59.868,110.966 L58.903,110.966 L58.903,115.844 L55.403,115.844 L55.403,101.641 L60.363,101.641 C62.092,101.641 63.433,102.021 64.386,102.783 C65.34,103.545 65.817,104.659 65.817,106.128 C65.817,107.116 65.591,107.942 65.138,108.608 C64.686,109.273 64.035,109.792 63.183,110.162 L66.579,115.391 L66.579,115.391 Z" id="Fill-42" fill="#243746"></path>
        <path d="M79.34,112.787 C79.04,113.521 78.621,114.132 78.085,114.618 C77.55,115.106 76.917,115.47 76.192,115.709 C75.463,115.949 74.669,116.07 73.804,116.07 C72.94,116.07 72.143,115.953 71.417,115.72 C70.689,115.486 70.065,115.127 69.542,114.64 C69.02,114.152 68.617,113.542 68.329,112.808 C68.041,112.074 67.895,111.212 67.895,110.224 L67.895,101.641 L71.437,101.641 L71.437,110.204 C71.437,111.123 71.639,111.837 72.044,112.344 C72.448,112.853 73.049,113.105 73.844,113.105 C74.654,113.105 75.259,112.855 75.657,112.354 C76.053,111.854 76.252,111.15 76.252,110.245 L76.252,101.641 L79.793,101.641 L79.793,110.204 C79.793,111.192 79.643,112.054 79.34,112.787" id="Fill-43" fill="#243746"></path>
        <path d="M91.29,113.559 C91.022,114.122 90.658,114.585 90.199,114.948 C89.739,115.312 89.201,115.579 88.583,115.751 C87.964,115.923 87.306,116.009 86.607,116.009 C85.646,116.009 84.761,115.912 83.951,115.72 C83.141,115.528 82.374,115.268 81.646,114.938 L82.162,111.933 C82.901,112.331 83.659,112.649 84.436,112.89 C85.21,113.13 85.955,113.25 86.669,113.25 C87.175,113.25 87.587,113.145 87.903,112.931 C88.22,112.719 88.377,112.399 88.377,111.975 C88.377,111.768 88.346,111.59 88.285,111.439 C88.222,111.288 88.102,111.141 87.923,110.996 C87.746,110.852 87.5,110.705 87.184,110.554 C86.867,110.402 86.463,110.231 85.969,110.038 C85.255,109.765 84.641,109.494 84.126,109.226 C83.611,108.959 83.189,108.66 82.861,108.331 C82.531,108 82.288,107.624 82.131,107.198 C81.972,106.773 81.893,106.265 81.893,105.676 C81.893,104.989 82.019,104.386 82.275,103.863 C82.528,103.343 82.871,102.903 83.302,102.547 C83.734,102.19 84.246,101.923 84.837,101.743 C85.427,101.566 86.064,101.476 86.751,101.476 C87.67,101.476 88.459,101.559 89.118,101.724 C89.776,101.888 90.416,102.121 91.033,102.423 L90.497,105.387 C89.852,105.017 89.211,104.732 88.572,104.533 C87.935,104.334 87.341,104.234 86.792,104.234 C86.257,104.234 85.858,104.338 85.598,104.543 C85.337,104.749 85.208,105.017 85.208,105.346 C85.208,105.524 85.238,105.686 85.3,105.83 C85.363,105.974 85.471,106.111 85.628,106.241 C85.787,106.372 86.005,106.505 86.288,106.643 C86.569,106.779 86.928,106.931 87.368,107.097 C88.136,107.384 88.795,107.672 89.344,107.96 C89.893,108.248 90.342,108.564 90.693,108.907 C91.042,109.25 91.296,109.638 91.454,110.069 C91.612,110.502 91.691,111 91.691,111.563 C91.691,112.331 91.556,112.996 91.29,113.559" id="Fill-44" fill="#243746"></path>
        <polyline id="Fill-45" fill="#243746" points="100.028 104.625 100.028 115.844 96.487 115.844 96.487 104.625 92.556 104.625 92.556 101.641 103.794 101.641 104.288 104.625 100.028 104.625"></polyline>
        <polyline id="Fill-46" fill="#243746" points="105.874 115.844 105.874 101.641 114.724 101.641 114.724 104.46 109.332 104.46 109.332 107.055 113.447 107.055 113.9 109.957 109.332 109.957 109.332 113.024 114.91 113.024 114.91 115.844 105.874 115.844"></polyline>
        <path d="M125.458,106.816 C125.259,106.271 124.981,105.816 124.625,105.454 C124.268,105.093 123.837,104.826 123.337,104.654 C122.837,104.485 122.285,104.398 121.681,104.398 L120.405,104.398 L120.405,113.086 L121.681,113.086 C122.312,113.086 122.878,113 123.378,112.829 C123.879,112.658 124.304,112.399 124.655,112.051 C125.005,111.703 125.275,111.255 125.468,110.709 C125.661,110.162 125.755,109.508 125.755,108.742 C125.755,108.005 125.657,107.363 125.458,106.816 Z M128.813,111.613 C128.491,112.485 128.012,113.236 127.382,113.867 C126.752,114.499 125.972,114.985 125.045,115.329 C124.121,115.672 123.06,115.844 121.866,115.844 L116.884,115.844 L116.884,101.641 L121.763,101.641 C122.999,101.641 124.086,101.813 125.026,102.155 C125.965,102.5 126.752,102.979 127.382,103.597 C128.012,104.214 128.491,104.958 128.813,105.83 C129.134,106.701 129.295,107.665 129.295,108.722 C129.295,109.778 129.134,110.742 128.813,111.613 L128.813,111.613 Z" id="Fill-47" fill="#243746"></path>
        <path d="M61.838,125.124 C61.676,124.905 61.464,124.797 61.204,124.797 C61.012,124.797 60.833,124.854 60.664,124.967 C60.496,125.081 60.337,125.224 60.192,125.395 L60.192,127.475 C60.312,127.52 60.422,127.551 60.521,127.57 C60.62,127.589 60.751,127.598 60.917,127.598 C61.28,127.598 61.564,127.482 61.771,127.252 C61.978,127.021 62.082,126.643 62.082,126.117 C62.082,125.674 62.001,125.342 61.838,125.124 Z M63.055,127.152 C62.945,127.463 62.79,127.721 62.589,127.926 C62.39,128.132 62.15,128.283 61.868,128.382 C61.586,128.48 61.274,128.529 60.932,128.529 C60.572,128.529 60.239,128.502 59.935,128.448 C59.631,128.395 59.336,128.32 59.051,128.225 L59.051,121.795 L60.192,121.614 L60.192,124.397 C60.337,124.245 60.517,124.105 60.733,123.979 C60.948,123.853 61.202,123.789 61.493,123.789 C61.733,123.789 61.96,123.836 62.172,123.928 C62.384,124.02 62.568,124.158 62.723,124.346 C62.877,124.531 63,124.766 63.088,125.048 C63.177,125.33 63.221,125.664 63.221,126.05 C63.221,126.475 63.166,126.842 63.055,127.152 L63.055,127.152 Z" id="Fill-48" fill="#243746"></path>
        <path d="M66.319,128.719 C66.217,129.004 66.106,129.242 65.986,129.432 C65.866,129.621 65.733,129.773 65.587,129.888 C65.441,130.002 65.28,130.082 65.103,130.13 C64.925,130.178 64.726,130.201 64.504,130.201 C64.403,130.201 64.321,130.195 64.257,130.187 C64.194,130.177 64.137,130.166 64.086,130.152 L63.934,129.203 C64.01,129.223 64.091,129.238 64.176,129.251 C64.262,129.264 64.359,129.27 64.466,129.27 C64.63,129.27 64.778,129.23 64.908,129.152 C65.038,129.072 65.137,128.951 65.208,128.787 L65.312,128.482 L63.649,123.97 L64.836,123.818 L65.901,127.086 L66.926,123.885 L68.057,123.885 L66.319,128.719" id="Fill-49" fill="#243746"></path>
        <path d="M74.819,128.43 C74.496,128.533 74.148,128.586 73.774,128.586 C73.299,128.586 72.87,128.506 72.487,128.344 C72.104,128.183 71.778,127.955 71.508,127.66 C71.24,127.365 71.032,127.01 70.886,126.592 C70.741,126.174 70.667,125.711 70.667,125.205 C70.667,124.698 70.743,124.236 70.891,123.818 C71.04,123.4 71.251,123.042 71.523,122.744 C71.795,122.447 72.122,122.216 72.501,122.051 C72.881,121.887 73.302,121.805 73.764,121.805 C74.144,121.805 74.485,121.847 74.786,121.932 C75.086,122.018 75.357,122.133 75.598,122.279 L75.417,123.467 C75.202,123.305 74.962,123.169 74.7,123.061 C74.437,122.951 74.144,122.896 73.822,122.896 C73.239,122.896 72.782,123.102 72.449,123.513 C72.117,123.924 71.951,124.486 71.951,125.199 C71.951,125.927 72.125,126.49 72.472,126.893 C72.821,127.293 73.287,127.494 73.869,127.494 C74.173,127.494 74.462,127.443 74.738,127.342 C75.013,127.24 75.278,127.107 75.531,126.943 L75.703,128.025 C75.436,128.19 75.142,128.324 74.819,128.43" id="Fill-50" fill="#243746"></path>
        <path d="M79.254,126.184 C78.927,126.221 78.658,126.275 78.447,126.344 C78.236,126.414 78.071,126.492 77.952,126.577 C77.832,126.662 77.749,126.756 77.701,126.857 C77.654,126.959 77.63,127.063 77.63,127.171 C77.63,127.336 77.679,127.465 77.777,127.561 C77.875,127.655 78.011,127.703 78.187,127.703 C78.382,127.703 78.57,127.66 78.75,127.574 C78.928,127.489 79.097,127.367 79.254,127.209 L79.254,126.184 Z M79.417,128.473 L79.321,127.873 C79.137,128.07 78.922,128.234 78.675,128.367 C78.428,128.5 78.133,128.567 77.792,128.567 C77.399,128.567 77.084,128.455 76.846,128.23 C76.609,128.006 76.491,127.693 76.491,127.295 C76.491,126.737 76.718,126.324 77.174,126.055 C77.63,125.785 78.324,125.607 79.254,125.518 L79.254,125.385 C79.254,125.139 79.187,124.963 79.05,124.857 C78.915,124.754 78.72,124.701 78.467,124.701 C78.202,124.701 77.943,124.736 77.69,124.806 C77.437,124.875 77.187,124.964 76.941,125.072 L76.798,124.16 C77.064,124.053 77.342,123.963 77.633,123.895 C77.924,123.824 78.253,123.789 78.62,123.789 C79.214,123.789 79.659,123.908 79.954,124.146 C80.248,124.383 80.394,124.777 80.394,125.328 L80.394,128.473 L79.417,128.473 L79.417,128.473 Z" id="Fill-51" fill="#243746"></path>
        <path d="M84.298,128.473 L84.298,125.471 C84.298,125.268 84.252,125.105 84.16,124.981 C84.068,124.857 83.918,124.797 83.709,124.797 C83.525,124.797 83.346,124.849 83.172,124.953 C82.998,125.058 82.829,125.198 82.665,125.375 L82.665,128.473 L81.524,128.473 L81.524,123.885 L82.493,123.885 L82.597,124.53 C82.813,124.328 83.044,124.153 83.291,124.008 C83.538,123.862 83.817,123.789 84.126,123.789 C84.557,123.789 84.883,123.911 85.105,124.154 C85.327,124.398 85.438,124.736 85.438,125.166 L85.438,128.473 L84.298,128.473" id="Fill-52" fill="#243746"></path>
        <path d="M89.086,126.184 C88.758,126.221 88.489,126.275 88.278,126.344 C88.067,126.414 87.902,126.492 87.783,126.577 C87.663,126.662 87.58,126.756 87.532,126.857 C87.485,126.959 87.461,127.063 87.461,127.171 C87.461,127.336 87.51,127.465 87.608,127.561 C87.706,127.655 87.842,127.703 88.018,127.703 C88.213,127.703 88.401,127.66 88.581,127.574 C88.759,127.489 88.928,127.367 89.086,127.209 L89.086,126.184 Z M89.248,128.473 L89.152,127.873 C88.968,128.07 88.753,128.234 88.506,128.367 C88.259,128.5 87.964,128.567 87.623,128.567 C87.23,128.567 86.916,128.455 86.677,128.23 C86.44,128.006 86.322,127.693 86.322,127.295 C86.322,126.737 86.549,126.324 87.005,126.055 C87.461,125.785 88.155,125.607 89.086,125.518 L89.086,125.385 C89.086,125.139 89.018,124.963 88.881,124.857 C88.746,124.754 88.551,124.701 88.298,124.701 C88.033,124.701 87.774,124.736 87.521,124.806 C87.268,124.875 87.018,124.964 86.772,125.072 L86.629,124.16 C86.895,124.053 87.173,123.963 87.464,123.895 C87.755,123.824 88.085,123.789 88.451,123.789 C89.045,123.789 89.49,123.908 89.785,124.146 C90.079,124.383 90.225,124.777 90.225,125.328 L90.225,128.473 L89.248,128.473 L89.248,128.473 Z" id="Fill-53" fill="#243746"></path>
        <path d="M94.196,124.948 C94.049,124.879 93.914,124.828 93.787,124.797 C93.661,124.765 93.499,124.748 93.302,124.748 C92.999,124.748 92.75,124.871 92.557,125.114 C92.364,125.358 92.267,125.733 92.267,126.24 C92.267,126.689 92.351,127.021 92.519,127.232 C92.687,127.445 92.897,127.551 93.151,127.551 C93.36,127.551 93.548,127.494 93.715,127.38 C93.883,127.266 94.044,127.113 94.196,126.924 L94.196,124.948 Z M94.357,128.473 L94.262,127.836 C94.097,128.032 93.903,128.203 93.677,128.349 C93.453,128.494 93.179,128.567 92.856,128.567 C92.616,128.567 92.391,128.521 92.182,128.43 C91.973,128.338 91.789,128.2 91.63,128.016 C91.472,127.832 91.349,127.598 91.26,127.313 C91.171,127.028 91.128,126.693 91.128,126.307 C91.128,125.883 91.181,125.514 91.289,125.199 C91.396,124.887 91.544,124.63 91.731,124.431 C91.917,124.23 92.131,124.082 92.372,123.984 C92.612,123.886 92.866,123.837 93.131,123.837 C93.353,123.837 93.551,123.853 93.725,123.885 C93.899,123.916 94.056,123.957 94.196,124.008 L94.196,121.795 L95.335,121.614 L95.335,128.473 L94.357,128.473 L94.357,128.473 Z" id="Fill-54" fill="#243746"></path>
        <path d="M96.542,128.473 L97.682,128.473 L97.682,123.885 L96.542,123.885 L96.542,128.473 Z M97.596,122.935 C97.462,123.055 97.304,123.115 97.121,123.115 C96.931,123.115 96.769,123.055 96.636,122.935 C96.503,122.814 96.437,122.659 96.437,122.469 C96.437,122.273 96.503,122.113 96.636,121.989 C96.769,121.865 96.931,121.805 97.121,121.805 C97.304,121.805 97.462,121.865 97.596,121.989 C97.729,122.113 97.795,122.273 97.795,122.469 C97.795,122.659 97.729,122.814 97.596,122.935 L97.596,122.935 Z" id="Fill-55" fill="#243746"></path>
        <path d="M101.395,126.184 C101.068,126.221 100.798,126.275 100.587,126.344 C100.377,126.414 100.211,126.492 100.092,126.577 C99.972,126.662 99.889,126.756 99.841,126.857 C99.794,126.959 99.771,127.063 99.771,127.171 C99.771,127.336 99.82,127.465 99.918,127.561 C100.015,127.655 100.152,127.703 100.328,127.703 C100.523,127.703 100.711,127.66 100.89,127.574 C101.069,127.489 101.238,127.367 101.395,127.209 L101.395,126.184 Z M101.557,128.473 L101.461,127.873 C101.278,128.07 101.063,128.234 100.816,128.367 C100.569,128.5 100.274,128.567 99.932,128.567 C99.54,128.567 99.225,128.455 98.987,128.23 C98.75,128.006 98.631,127.693 98.631,127.295 C98.631,126.737 98.859,126.324 99.315,126.055 C99.771,125.785 100.464,125.607 101.395,125.518 L101.395,125.385 C101.395,125.139 101.328,124.963 101.191,124.857 C101.055,124.754 100.861,124.701 100.608,124.701 C100.342,124.701 100.084,124.736 99.831,124.806 C99.578,124.875 99.328,124.964 99.082,125.072 L98.939,124.16 C99.205,124.053 99.483,123.963 99.774,123.895 C100.065,123.824 100.394,123.789 100.76,123.789 C101.355,123.789 101.799,123.908 102.094,124.146 C102.388,124.383 102.535,124.777 102.535,125.328 L102.535,128.473 L101.557,128.473 L101.557,128.473 Z" id="Fill-56" fill="#243746"></path>
        <path d="M106.439,128.473 L106.439,125.471 C106.439,125.268 106.392,125.105 106.3,124.981 C106.209,124.857 106.058,124.797 105.849,124.797 C105.666,124.797 105.487,124.849 105.313,124.953 C105.138,125.058 104.969,125.198 104.805,125.375 L104.805,128.473 L103.665,128.473 L103.665,123.885 L104.633,123.885 L104.738,124.53 C104.954,124.328 105.185,124.153 105.431,124.008 C105.678,123.862 105.958,123.789 106.267,123.789 C106.698,123.789 107.024,123.911 107.246,124.154 C107.467,124.398 107.579,124.736 107.579,125.166 L107.579,128.473 L106.439,128.473" id="Fill-57" fill="#243746"></path>
        <path d="M111.649,128.183 C111.336,128.433 110.875,128.558 110.267,128.558 C109.931,128.558 109.605,128.514 109.289,128.425 C108.972,128.336 108.703,128.231 108.481,128.111 L108.633,127.161 C108.88,127.326 109.149,127.457 109.441,127.556 C109.732,127.654 110.02,127.703 110.305,127.703 C110.552,127.703 110.74,127.66 110.87,127.574 C111,127.489 111.065,127.373 111.065,127.229 C111.065,127.146 111.05,127.074 111.022,127.014 C110.994,126.954 110.945,126.9 110.875,126.853 C110.805,126.805 110.711,126.761 110.589,126.72 C110.469,126.679 110.318,126.636 110.134,126.592 C109.855,126.521 109.616,126.445 109.417,126.363 C109.217,126.281 109.054,126.185 108.927,126.074 C108.801,125.963 108.708,125.833 108.647,125.684 C108.587,125.535 108.557,125.356 108.557,125.147 C108.557,124.748 108.705,124.424 108.999,124.174 C109.294,123.924 109.71,123.799 110.248,123.799 C110.849,123.799 111.384,123.906 111.853,124.121 L111.701,125.072 C111.473,124.945 111.231,124.844 110.974,124.768 C110.718,124.691 110.476,124.654 110.248,124.654 C110.033,124.654 109.873,124.691 109.768,124.768 C109.664,124.844 109.612,124.945 109.612,125.072 C109.612,125.135 109.625,125.19 109.65,125.238 C109.674,125.285 109.719,125.332 109.783,125.375 C109.845,125.42 109.933,125.463 110.044,125.504 C110.155,125.545 110.295,125.588 110.466,125.632 C110.764,125.708 111.017,125.787 111.226,125.869 C111.435,125.951 111.606,126.05 111.739,126.164 C111.873,126.277 111.968,126.412 112.029,126.568 C112.089,126.723 112.119,126.908 112.119,127.123 C112.119,127.579 111.962,127.933 111.649,128.183" id="Fill-58" fill="#243746"></path>
        <path d="M144.077,157.877 L144.567,157.877 C145.138,157.877 145.602,157.686 145.602,157.223 C145.602,156.813 145.303,156.541 144.649,156.541 C144.376,156.541 144.186,156.57 144.077,156.595 L144.077,157.877 Z M144.047,160.414 L143.012,160.414 L143.012,155.941 C143.42,155.86 143.994,155.806 144.731,155.806 C145.576,155.806 145.957,155.941 146.283,156.133 C146.53,156.323 146.72,156.678 146.72,157.114 C146.72,157.604 146.337,157.986 145.794,158.149 L145.794,158.204 C146.228,158.369 146.473,158.694 146.612,159.295 C146.748,159.976 146.83,160.249 146.938,160.414 L145.82,160.414 C145.684,160.249 145.602,159.841 145.466,159.322 C145.383,158.832 145.113,158.613 144.54,158.613 L144.047,158.613 L144.047,160.414 Z M141.297,158.067 C141.297,160.059 142.768,161.639 144.785,161.639 C146.748,161.639 148.191,160.059 148.191,158.096 C148.191,156.104 146.748,154.497 144.756,154.497 C142.768,154.497 141.297,156.104 141.297,158.067 Z M149.336,158.067 C149.336,160.604 147.348,162.593 144.756,162.593 C142.195,162.593 140.151,160.604 140.151,158.067 C140.151,155.588 142.195,153.598 144.756,153.598 C147.348,153.598 149.336,155.588 149.336,158.067 L149.336,158.067 Z" id="Fill-59" fill="#243746"></path>
        <path d="M77.792,140.387 L77.792,139.587 L79.849,137.487 C80.07,137.249 80.236,137.04 80.346,136.862 C80.458,136.684 80.512,136.489 80.512,136.279 C80.512,136.013 80.436,135.813 80.283,135.68 C80.129,135.547 79.909,135.479 79.62,135.479 C79.336,135.479 79.067,135.539 78.812,135.658 C78.556,135.777 78.31,135.931 78.072,136.118 L77.936,135.148 C78.163,134.973 78.424,134.826 78.722,134.71 C79.02,134.594 79.359,134.536 79.739,134.536 C80.323,134.536 80.778,134.682 81.104,134.974 C81.429,135.266 81.592,135.664 81.592,136.169 C81.592,136.355 81.571,136.529 81.529,136.688 C81.486,136.847 81.421,137.001 81.334,137.151 C81.246,137.301 81.134,137.453 81.001,137.605 C80.869,137.759 80.713,137.924 80.538,138.1 L79.143,139.485 L81.558,139.485 L81.695,140.387 L77.792,140.387" id="Fill-60" fill="#243746"></path>
        <path d="M85.61,135.943 C85.409,135.583 85.113,135.403 84.721,135.403 C84.331,135.403 84.031,135.583 83.825,135.943 C83.618,136.304 83.514,136.826 83.514,137.513 C83.514,138.198 83.618,138.722 83.825,139.081 C84.031,139.441 84.331,139.621 84.721,139.621 C85.113,139.621 85.409,139.441 85.61,139.081 C85.811,138.722 85.912,138.198 85.912,137.513 C85.912,136.826 85.811,136.304 85.61,135.943 Z M86.843,138.784 C86.733,139.155 86.579,139.469 86.379,139.724 C86.181,139.979 85.94,140.171 85.657,140.302 C85.374,140.432 85.062,140.497 84.721,140.497 C84.376,140.497 84.062,140.432 83.782,140.302 C83.502,140.171 83.26,139.979 83.059,139.724 C82.858,139.469 82.702,139.155 82.591,138.784 C82.481,138.412 82.425,137.988 82.425,137.513 C82.425,137.036 82.481,136.612 82.591,136.241 C82.702,135.87 82.858,135.557 83.059,135.302 C83.26,135.046 83.502,134.854 83.782,134.723 C84.062,134.593 84.376,134.527 84.721,134.527 C85.062,134.527 85.374,134.593 85.657,134.723 C85.94,134.854 86.181,135.046 86.379,135.302 C86.579,135.557 86.733,135.87 86.843,136.241 C86.954,136.612 87.009,137.036 87.009,137.513 C87.009,137.988 86.954,138.412 86.843,138.784 L86.843,138.784 Z" id="Fill-61" fill="#243746"></path>
        <path d="M87.682,140.387 L87.682,139.587 L89.74,137.487 C89.96,137.249 90.126,137.04 90.237,136.862 C90.348,136.684 90.403,136.489 90.403,136.279 C90.403,136.013 90.327,135.813 90.173,135.68 C90.02,135.547 89.799,135.479 89.51,135.479 C89.227,135.479 88.958,135.539 88.703,135.658 C88.447,135.777 88.201,135.931 87.962,136.118 L87.827,135.148 C88.053,134.973 88.315,134.826 88.613,134.71 C88.911,134.594 89.25,134.536 89.629,134.536 C90.213,134.536 90.668,134.682 90.995,134.974 C91.32,135.266 91.483,135.664 91.483,136.169 C91.483,136.355 91.461,136.529 91.419,136.688 C91.377,136.847 91.312,137.001 91.224,137.151 C91.136,137.301 91.025,137.453 90.892,137.605 C90.759,137.759 90.604,137.924 90.428,138.1 L89.034,139.485 L91.449,139.485 L91.585,140.387 L87.682,140.387" id="Fill-62" fill="#243746"></path>
        <polyline id="Fill-63" fill="#243746" points="93.405 140.387 93.405 135.692 92.231 136.144 92.112 135.284 93.532 134.63 94.493 134.63 94.493 140.387 93.405 140.387"></polyline>
    </g>
</svg>