<svg width="83" height="48" xmlns="http://www.w3.org/2000/svg"><g fill="none" fill-rule="nonzero"><path stroke="#243746" stroke-width=".765" fill="#243746" d="M8.002 27.347L4.18 29.356l.73-4.256-3.092-3.014 4.273-.62 1.911-3.872 1.91 3.872 4.274.62-3.092 3.014.73 4.256zM24.83 17.402l-3.821 2.01.73-4.256-3.092-3.014 4.273-.62 1.91-3.873 1.912 3.872 4.272.621-3.091 3.014.73 4.256zM42.042 9.753l-4.047 2.01.773-4.256-3.274-3.014 4.525-.621L42.042 0l2.023 3.872 4.524.62-3.273 3.015.772 4.255zM58.488 17.402l-3.822 2.01.73-4.256-3.092-3.014 4.273-.62 1.911-3.873 1.91 3.872 4.274.621-3.092 3.014.73 4.256z"/><path stroke="#243746" stroke-width=".765" d="M75.317 27.347l-3.822 2.009.73-4.256-3.092-3.014 4.273-.62 1.91-3.872 1.912 3.872 4.272.62L78.41 25.1l.73 4.256z"/><path fill="#243746" d="M75.317 27.347l-3.822 2.009.73-4.256-3.092-3.014 4.273-.62 1.91-3.872 2.25 4.081.317 1.582 1.195 5.948zM37.605 43.243V40.91h1.779v-2.008h-1.779v-2.429h-2.18v2.429h-2.6l3.824-7.4h-2.39l-4.055 7.649v1.759h5.221v2.333h2.18zm4.15.134c.841 0 1.492-.67 1.492-1.53s-.65-1.51-1.492-1.51c-.841 0-1.492.65-1.492 1.51s.65 1.53 1.492 1.53zm6.636.057c2.811 0 4.494-2.658 4.494-6.31 0-1.511-.23-2.659-.822-3.691-.785-1.435-2.085-2.123-3.557-2.123-2.62 0-4.15 1.817-4.15 4.035 0 2.104 1.453 3.863 3.824 3.863 1.148 0 2.085-.516 2.467-1.243v.172c0 1.645-.88 3.29-2.275 3.29-.823 0-1.32-.44-1.55-1.148h-2.37c.42 1.97 1.72 3.155 3.939 3.155zm.095-6.12c-1.128 0-1.931-.802-1.931-2.026 0-1.167.803-1.97 1.931-1.97 1.167 0 1.951.803 1.951 1.97 0 1.224-.784 2.027-1.95 2.027z"/></g></svg> 