<svg width="83" height="48" xmlns="http://www.w3.org/2000/svg" xmlns:xlink="http://www.w3.org/1999/xlink"><defs><path id="a" d="M0 26.632h45.535V0H0z"/><path id="c" d="M0 26.632h45.535V0H0z"/><path id="e" d="M0 26.632h45.535V0H0z"/><path id="g" d="M0 26.632h45.535V0H0z"/></defs><g fill="none" fill-rule="evenodd"><path d="M41.513 15.81l-1.494 2.65a.169.169 0 01-.134.078c-.028 0-1.622-.88-1.622-.88l.95 4.16c.007.021.007.04.007.06a.27.27 0 01-.458.193l-1.692-1.968-.648 1.15a.207.207 0 01-.152.078c-.009 0-2.123-.416-2.123-.416s.721 2.284.721 2.307c0 .072-.04.137-.1.172l-.895.513 3.877 3.087a.193.193 0 01.056.137c0 .025-.409 1.615-.409 1.615s3.42-.71 3.436-.71c.128 0 .236.111.236.242l-.07 2.65h1.03l-.064-2.65c0-.131.103-.241.234-.241.014 0 3.434.709 3.434.709s-.412-1.59-.412-1.615a.2.2 0 01.057-.137l3.877-3.087-.894-.513a.199.199 0 01-.099-.172c0-.023.72-2.307.72-2.307s-2.111.416-2.119.416a.208.208 0 01-.156-.078l-.648-1.15-1.69 1.968a.292.292 0 01-.192.077.27.27 0 01-.269-.27c0-.02.959-4.22.959-4.22s-1.594.88-1.62.88a.16.16 0 01-.135-.077l-1.499-2.652" fill="#243746" fill-rule="nonzero"/><g transform="translate(18.747 10.053)"><mask id="b" fill="#fff"><use xlink:href="#a"/></mask><path d="M36.973 24.682h6.615V1.95h-6.615v22.733zm7.588 1.95H36a.974.974 0 01-.973-.975V.975c0-.539.435-.975.973-.975h8.561c.538 0 .974.436.974.975v24.682a.974.974 0 01-.974.975z" fill="#243746" fill-rule="nonzero" mask="url(#b)"/></g><g transform="translate(18.747 10.053)"><mask id="d" fill="#fff"><use xlink:href="#c"/></mask><path d="M1.947 24.682H8.56V1.95H1.947v22.733zm7.588 1.95H.973A.974.974 0 010 25.657V.975C0 .436.436 0 .973 0h8.562c.537 0 .973.436.973.975v24.682a.974.974 0 01-.973.975z" fill="#243746" fill-rule="nonzero" mask="url(#d)"/></g><g transform="translate(18.747 10.053)"><mask id="f" fill="#fff"><use xlink:href="#e"/></mask><path d="M36 1.95H9.535a.974.974 0 010-1.95H36a.974.974 0 010 1.95" fill="#243746" fill-rule="nonzero" mask="url(#f)"/></g><g transform="translate(18.747 10.053)"><mask id="h" fill="#fff"><use xlink:href="#g"/></mask><path d="M36 26.632H9.535a.974.974 0 010-1.95H36a.974.974 0 010 1.95" fill="#243746" fill-rule="nonzero" mask="url(#h)"/></g><path fill="#243746" d="M20.106 10.929h8.3v24.266h-8.3zM54.376 10.929h8.3v24.266h-8.3z"/></g></svg> 