<?xml version="1.0" encoding="UTF-8"?>
<svg width="107px" height="95px" viewBox="0 0 107 95" version="1.1" xmlns="http://www.w3.org/2000/svg" xmlns:xlink="http://www.w3.org/1999/xlink">
    <defs>
        <path d="M0,49.5261234 C0,74.6777922 66.5943409,91.1351688 91.7460097,91.1351688 L91.7460097,91.1351688 C116.897981,91.1351688 137.287325,70.7458247 137.287325,45.5941558 L137.287325,45.5941558 C137.287325,20.442487 116.897981,0.0531428571 91.7460097,0.0531428571 L91.7460097,0.0531428571 C66.5943409,0.0531428571 0,24.3744545 0,49.5261234 L0,49.5261234 Z" id="path-1"></path>
        <path d="M0,49.5261234 C0,74.6777922 66.5943409,91.1351688 91.7460097,91.1351688 L91.7460097,91.1351688 C116.897981,91.1351688 137.287325,70.7458247 137.287325,45.5941558 L137.287325,45.5941558 C137.287325,20.442487 116.897981,0.0531428571 91.7460097,0.0531428571 L91.7460097,0.0531428571 C66.5943409,0.0531428571 0,24.3744545 0,49.5261234 L0,49.5261234 Z" id="path-3"></path>
        <path d="M0,49.5261234 C0,74.6777922 66.5943409,91.1351688 91.7460097,91.1351688 L91.7460097,91.1351688 C116.897981,91.1351688 137.287325,70.7458247 137.287325,45.5941558 L137.287325,45.5941558 C137.287325,20.442487 116.897981,0.0531428571 91.7460097,0.0531428571 L91.7460097,0.0531428571 C66.5943409,0.0531428571 0,24.3744545 0,49.5261234" id="path-5"></path>
        <path d="M0,49.5261234 C0,74.6777922 66.5943409,91.1351688 91.7460097,91.1351688 L91.7460097,91.1351688 C116.897981,91.1351688 137.287325,70.7458247 137.287325,45.5941558 L137.287325,45.5941558 C137.287325,20.442487 116.897981,0.0531428571 91.7460097,0.0531428571 L91.7460097,0.0531428571 C66.5943409,0.0531428571 0,24.3744545 0,49.5261234" id="path-7"></path>
        <path d="M0,49.5261234 C0,74.6777922 66.5943409,91.1351688 91.7460097,91.1351688 L91.7460097,91.1351688 C116.897981,91.1351688 137.287325,70.7458247 137.287325,45.5941558 L137.287325,45.5941558 C137.287325,20.442487 116.897981,0.0531428571 91.7460097,0.0531428571 L91.7460097,0.0531428571 C66.5943409,0.0531428571 0,24.3744545 0,49.5261234" id="path-9"></path>
        <path d="M0,49.5261234 C0,74.6777922 66.5943409,91.1351688 91.7460097,91.1351688 L91.7460097,91.1351688 C116.897981,91.1351688 137.287325,70.7458247 137.287325,45.5941558 L137.287325,45.5941558 C137.287325,20.442487 116.897981,0.0531428571 91.7460097,0.0531428571 L91.7460097,0.0531428571 C66.5943409,0.0531428571 0,24.3744545 0,49.5261234" id="path-11"></path>
        <path d="M0,49.5261234 C0,74.6777922 66.5943409,91.1351688 91.7460097,91.1351688 L91.7460097,91.1351688 C116.897981,91.1351688 137.287325,70.7458247 137.287325,45.5941558 L137.287325,45.5941558 C137.287325,20.442487 116.897981,0.0531428571 91.7460097,0.0531428571 L91.7460097,0.0531428571 C66.5943409,0.0531428571 0,24.3744545 0,49.5261234" id="path-13"></path>
        <path d="M0,49.5261234 C0,74.6777922 66.5943409,91.1351688 91.7460097,91.1351688 L91.7460097,91.1351688 C116.897981,91.1351688 137.287325,70.7458247 137.287325,45.5941558 L137.287325,45.5941558 C137.287325,20.442487 116.897981,0.0531428571 91.7460097,0.0531428571 L91.7460097,0.0531428571 C66.5943409,0.0531428571 0,24.3744545 0,49.5261234" id="path-15"></path>
        <path d="M0,49.5261234 C0,74.6777922 66.5943409,91.1351688 91.7460097,91.1351688 L91.7460097,91.1351688 C116.897981,91.1351688 137.287325,70.7458247 137.287325,45.5941558 L137.287325,45.5941558 C137.287325,20.442487 116.897981,0.0531428571 91.7460097,0.0531428571 L91.7460097,0.0531428571 C66.5943409,0.0531428571 0,24.3744545 0,49.5261234" id="path-17"></path>
        <path d="M0,49.5261234 C0,74.6777922 66.5943409,91.1351688 91.7460097,91.1351688 L91.7460097,91.1351688 C116.897981,91.1351688 137.287325,70.7458247 137.287325,45.5941558 L137.287325,45.5941558 C137.287325,20.442487 116.897981,0.0531428571 91.7460097,0.0531428571 L91.7460097,0.0531428571 C66.5943409,0.0531428571 0,24.3744545 0,49.5261234" id="path-19"></path>
        <path d="M0,49.5261234 C0,74.6777922 66.5943409,91.1351688 91.7460097,91.1351688 L91.7460097,91.1351688 C116.897981,91.1351688 137.287325,70.7458247 137.287325,45.5941558 L137.287325,45.5941558 C137.287325,20.442487 116.897981,0.0531428571 91.7460097,0.0531428571 L91.7460097,0.0531428571 C66.5943409,0.0531428571 0,24.3744545 0,49.5261234" id="path-21"></path>
        <path d="M0,49.5261234 C0,74.6777922 66.5943409,91.1351688 91.7460097,91.1351688 L91.7460097,91.1351688 C116.897981,91.1351688 137.287325,70.7458247 137.287325,45.5941558 L137.287325,45.5941558 C137.287325,20.442487 116.897981,0.0531428571 91.7460097,0.0531428571 L91.7460097,0.0531428571 C66.5943409,0.0531428571 0,24.3744545 0,49.5261234" id="path-23"></path>
        <path d="M0,49.5261234 C0,74.6777922 66.5943409,91.1351688 91.7460097,91.1351688 L91.7460097,91.1351688 C116.897981,91.1351688 137.287325,70.7458247 137.287325,45.5941558 L137.287325,45.5941558 C137.287325,20.442487 116.897981,0.0531428571 91.7460097,0.0531428571 L91.7460097,0.0531428571 C66.5943409,0.0531428571 0,24.3744545 0,49.5261234" id="path-25"></path>
        <path d="M0,49.5261234 C0,74.6777922 66.5943409,91.1351688 91.7460097,91.1351688 L91.7460097,91.1351688 C116.897981,91.1351688 137.287325,70.7458247 137.287325,45.5941558 L137.287325,45.5941558 C137.287325,20.442487 116.897981,0.0531428571 91.7460097,0.0531428571 L91.7460097,0.0531428571 C66.5943409,0.0531428571 0,24.3744545 0,49.5261234" id="path-27"></path>
        <path d="M0,49.5261234 C0,74.6777922 66.5943409,91.1351688 91.7460097,91.1351688 L91.7460097,91.1351688 C116.897981,91.1351688 137.287325,70.7458247 137.287325,45.5941558 L137.287325,45.5941558 C137.287325,20.442487 116.897981,0.0531428571 91.7460097,0.0531428571 L91.7460097,0.0531428571 C66.5943409,0.0531428571 0,24.3744545 0,49.5261234" id="path-29"></path>
        <path d="M0,49.5261234 C0,74.6777922 66.5943409,91.1351688 91.7460097,91.1351688 L91.7460097,91.1351688 C116.897981,91.1351688 137.287325,70.7458247 137.287325,45.5941558 L137.287325,45.5941558 C137.287325,20.442487 116.897981,0.0531428571 91.7460097,0.0531428571 L91.7460097,0.0531428571 C66.5943409,0.0531428571 0,24.3744545 0,49.5261234" id="path-31"></path>
        <path d="M0,49.5261234 C0,74.6777922 66.5943409,91.1351688 91.7460097,91.1351688 L91.7460097,91.1351688 C116.897981,91.1351688 137.287325,70.7458247 137.287325,45.5941558 L137.287325,45.5941558 C137.287325,20.442487 116.897981,0.0531428571 91.7460097,0.0531428571 L91.7460097,0.0531428571 C66.5943409,0.0531428571 0,24.3744545 0,49.5261234" id="path-33"></path>
        <path d="M0,49.5261234 C0,74.6777922 66.5943409,91.1351688 91.7460097,91.1351688 L91.7460097,91.1351688 C116.897981,91.1351688 137.287325,70.7458247 137.287325,45.5941558 L137.287325,45.5941558 C137.287325,20.442487 116.897981,0.0531428571 91.7460097,0.0531428571 L91.7460097,0.0531428571 C66.5943409,0.0531428571 0,24.3744545 0,49.5261234" id="path-35"></path>
        <path d="M0,49.5261234 C0,74.6777922 66.5943409,91.1351688 91.7460097,91.1351688 L91.7460097,91.1351688 C116.897981,91.1351688 137.287325,70.7458247 137.287325,45.5941558 L137.287325,45.5941558 C137.287325,20.442487 116.897981,0.0531428571 91.7460097,0.0531428571 L91.7460097,0.0531428571 C66.5943409,0.0531428571 0,24.3744545 0,49.5261234" id="path-37"></path>
        <path d="M0,49.5261234 C0,74.6777922 66.5943409,91.1351688 91.7460097,91.1351688 L91.7460097,91.1351688 C116.897981,91.1351688 137.287325,70.7458247 137.287325,45.5941558 L137.287325,45.5941558 C137.287325,20.442487 116.897981,0.0531428571 91.7460097,0.0531428571 L91.7460097,0.0531428571 C66.5943409,0.0531428571 0,24.3744545 0,49.5261234" id="path-39"></path>
        <path d="M0,49.5261234 C0,74.6777922 66.5943409,91.1351688 91.7460097,91.1351688 L91.7460097,91.1351688 C116.897981,91.1351688 137.287325,70.7458247 137.287325,45.5941558 L137.287325,45.5941558 C137.287325,20.442487 116.897981,0.0531428571 91.7460097,0.0531428571 L91.7460097,0.0531428571 C66.5943409,0.0531428571 0,24.3744545 0,49.5261234" id="path-41"></path>
        <path d="M0,49.5261234 C0,74.6777922 66.5943409,91.1351688 91.7460097,91.1351688 L91.7460097,91.1351688 C116.897981,91.1351688 137.287325,70.7458247 137.287325,45.5941558 L137.287325,45.5941558 C137.287325,20.442487 116.897981,0.0531428571 91.7460097,0.0531428571 L91.7460097,0.0531428571 C66.5943409,0.0531428571 0,24.3744545 0,49.5261234" id="path-43"></path>
        <path d="M0,49.5261234 C0,74.6777922 66.5943409,91.1351688 91.7460097,91.1351688 L91.7460097,91.1351688 C116.897981,91.1351688 137.287325,70.7458247 137.287325,45.5941558 L137.287325,45.5941558 C137.287325,20.442487 116.897981,0.0531428571 91.7460097,0.0531428571 L91.7460097,0.0531428571 C66.5943409,0.0531428571 0,24.3744545 0,49.5261234" id="path-45"></path>
        <path d="M0,49.5261234 C0,74.6777922 66.5943409,91.1351688 91.7460097,91.1351688 L91.7460097,91.1351688 C116.897981,91.1351688 137.287325,70.7458247 137.287325,45.5941558 L137.287325,45.5941558 C137.287325,20.442487 116.897981,0.0531428571 91.7460097,0.0531428571 L91.7460097,0.0531428571 C66.5943409,0.0531428571 0,24.3744545 0,49.5261234" id="path-47"></path>
        <path d="M0,49.5261234 C0,74.6777922 66.5943409,91.1351688 91.7460097,91.1351688 L91.7460097,91.1351688 C116.897981,91.1351688 137.287325,70.7458247 137.287325,45.5941558 L137.287325,45.5941558 C137.287325,20.442487 116.897981,0.0531428571 91.7460097,0.0531428571 L91.7460097,0.0531428571 C66.5943409,0.0531428571 0,24.3744545 0,49.5261234" id="path-49"></path>
        <path d="M0,49.5261234 C0,74.6777922 66.5943409,91.1351688 91.7460097,91.1351688 L91.7460097,91.1351688 C116.897981,91.1351688 137.287325,70.7458247 137.287325,45.5941558 L137.287325,45.5941558 C137.287325,20.442487 116.897981,0.0531428571 91.7460097,0.0531428571 L91.7460097,0.0531428571 C66.5943409,0.0531428571 0,24.3744545 0,49.5261234" id="path-51"></path>
        <path d="M0,49.5261234 C0,74.6777922 66.5943409,91.1351688 91.7460097,91.1351688 L91.7460097,91.1351688 C116.897981,91.1351688 137.287325,70.7458247 137.287325,45.5941558 L137.287325,45.5941558 C137.287325,20.442487 116.897981,0.0531428571 91.7460097,0.0531428571 L91.7460097,0.0531428571 C66.5943409,0.0531428571 0,24.3744545 0,49.5261234" id="path-53"></path>
        <path d="M0,49.5261234 C0,74.6777922 66.5943409,91.1351688 91.7460097,91.1351688 L91.7460097,91.1351688 C116.897981,91.1351688 137.287325,70.7458247 137.287325,45.5941558 L137.287325,45.5941558 C137.287325,20.442487 116.897981,0.0531428571 91.7460097,0.0531428571 L91.7460097,0.0531428571 C66.5943409,0.0531428571 0,24.3744545 0,49.5261234" id="path-55"></path>
        <path d="M0,49.5261234 C0,74.6777922 66.5943409,91.1351688 91.7460097,91.1351688 L91.7460097,91.1351688 C116.897981,91.1351688 137.287325,70.7458247 137.287325,45.5941558 L137.287325,45.5941558 C137.287325,20.442487 116.897981,0.0531428571 91.7460097,0.0531428571 L91.7460097,0.0531428571 C66.5943409,0.0531428571 0,24.3744545 0,49.5261234" id="path-57"></path>
        <path d="M0,49.5261234 C0,74.6777922 66.5943409,91.1351688 91.7460097,91.1351688 L91.7460097,91.1351688 C116.897981,91.1351688 137.287325,70.7458247 137.287325,45.5941558 L137.287325,45.5941558 C137.287325,20.442487 116.897981,0.0531428571 91.7460097,0.0531428571 L91.7460097,0.0531428571 C66.5943409,0.0531428571 0,24.3744545 0,49.5261234" id="path-59"></path>
        <path d="M0,49.5261234 C0,74.6777922 66.5943409,91.1351688 91.7460097,91.1351688 L91.7460097,91.1351688 C116.897981,91.1351688 137.287325,70.7458247 137.287325,45.5941558 L137.287325,45.5941558 C137.287325,20.442487 116.897981,0.0531428571 91.7460097,0.0531428571 L91.7460097,0.0531428571 C66.5943409,0.0531428571 0,24.3744545 0,49.5261234" id="path-61"></path>
        <path d="M0,49.5261234 C0,74.6777922 66.5943409,91.1351688 91.7460097,91.1351688 L91.7460097,91.1351688 C116.897981,91.1351688 137.287325,70.7458247 137.287325,45.5941558 L137.287325,45.5941558 C137.287325,20.442487 116.897981,0.0531428571 91.7460097,0.0531428571 L91.7460097,0.0531428571 C66.5943409,0.0531428571 0,24.3744545 0,49.5261234" id="path-63"></path>
        <path d="M0,49.5261234 C0,74.6777922 66.5943409,91.1351688 91.7460097,91.1351688 L91.7460097,91.1351688 C116.897981,91.1351688 137.287325,70.7458247 137.287325,45.5941558 L137.287325,45.5941558 C137.287325,20.442487 116.897981,0.0531428571 91.7460097,0.0531428571 L91.7460097,0.0531428571 C66.5943409,0.0531428571 0,24.3744545 0,49.5261234" id="path-65"></path>
        <path d="M0,49.5261234 C0,74.6777922 66.5943409,91.1351688 91.7460097,91.1351688 L91.7460097,91.1351688 C116.897981,91.1351688 137.287325,70.7458247 137.287325,45.5941558 L137.287325,45.5941558 C137.287325,20.442487 116.897981,0.0531428571 91.7460097,0.0531428571 L91.7460097,0.0531428571 C66.5943409,0.0531428571 0,24.3744545 0,49.5261234" id="path-67"></path>
        <path d="M0,49.5261234 C0,74.6777922 66.5943409,91.1351688 91.7460097,91.1351688 L91.7460097,91.1351688 C116.897981,91.1351688 137.287325,70.7458247 137.287325,45.5941558 L137.287325,45.5941558 C137.287325,20.442487 116.897981,0.0531428571 91.7460097,0.0531428571 L91.7460097,0.0531428571 C66.5943409,0.0531428571 0,24.3744545 0,49.5261234" id="path-69"></path>
        <path d="M0,49.5261234 C0,74.6777922 66.5943409,91.1351688 91.7460097,91.1351688 L91.7460097,91.1351688 C116.897981,91.1351688 137.287325,70.7458247 137.287325,45.5941558 L137.287325,45.5941558 C137.287325,20.442487 116.897981,0.0531428571 91.7460097,0.0531428571 L91.7460097,0.0531428571 C66.5943409,0.0531428571 0,24.3744545 0,49.5261234" id="path-71"></path>
        <path d="M0,49.5261234 C0,74.6777922 66.5943409,91.1351688 91.7460097,91.1351688 L91.7460097,91.1351688 C116.897981,91.1351688 137.287325,70.7458247 137.287325,45.5941558 L137.287325,45.5941558 C137.287325,20.442487 116.897981,0.0531428571 91.7460097,0.0531428571 L91.7460097,0.0531428571 C66.5943409,0.0531428571 0,24.3744545 0,49.5261234" id="path-73"></path>
        <path d="M0,49.5261234 C0,74.6777922 66.5943409,91.1351688 91.7460097,91.1351688 L91.7460097,91.1351688 C116.897981,91.1351688 137.287325,70.7458247 137.287325,45.5941558 L137.287325,45.5941558 C137.287325,20.442487 116.897981,0.0531428571 91.7460097,0.0531428571 L91.7460097,0.0531428571 C66.5943409,0.0531428571 0,24.3744545 0,49.5261234" id="path-75"></path>
        <path d="M0,49.5261234 C0,74.6777922 66.5943409,91.1351688 91.7460097,91.1351688 L91.7460097,91.1351688 C116.897981,91.1351688 137.287325,70.7458247 137.287325,45.5941558 L137.287325,45.5941558 C137.287325,20.442487 116.897981,0.0531428571 91.7460097,0.0531428571 L91.7460097,0.0531428571 C66.5943409,0.0531428571 0,24.3744545 0,49.5261234" id="path-77"></path>
        <path d="M0,49.5261234 C0,74.6777922 66.5943409,91.1351688 91.7460097,91.1351688 L91.7460097,91.1351688 C116.897981,91.1351688 137.287325,70.7458247 137.287325,45.5941558 L137.287325,45.5941558 C137.287325,20.442487 116.897981,0.0531428571 91.7460097,0.0531428571 L91.7460097,0.0531428571 C66.5943409,0.0531428571 0,24.3744545 0,49.5261234 L0,49.5261234 Z" id="path-79"></path>
        <path d="M0,49.5261234 C0,74.6777922 66.5943409,91.1351688 91.7460097,91.1351688 L91.7460097,91.1351688 C116.897981,91.1351688 137.287325,70.7458247 137.287325,45.5941558 L137.287325,45.5941558 C137.287325,20.442487 116.897981,0.0531428571 91.7460097,0.0531428571 L91.7460097,0.0531428571 C66.5943409,0.0531428571 0,24.3744545 0,49.5261234 L0,49.5261234 Z" id="path-81"></path>
        <path d="M0,49.5261234 C0,74.6777922 66.5943409,91.1351688 91.7460097,91.1351688 L91.7460097,91.1351688 C116.897981,91.1351688 137.287325,70.7458247 137.287325,45.5941558 L137.287325,45.5941558 C137.287325,20.442487 116.897981,0.0531428571 91.7460097,0.0531428571 L91.7460097,0.0531428571 C66.5943409,0.0531428571 0,24.3744545 0,49.5261234 L0,49.5261234 Z" id="path-83"></path>
        <path d="M0,49.5261234 C0,74.6777922 66.5943409,91.1351688 91.7460097,91.1351688 L91.7460097,91.1351688 C116.897981,91.1351688 137.287325,70.7458247 137.287325,45.5941558 L137.287325,45.5941558 C137.287325,20.442487 116.897981,0.0531428571 91.7460097,0.0531428571 L91.7460097,0.0531428571 C66.5943409,0.0531428571 0,24.3744545 0,49.5261234 L0,49.5261234 Z" id="path-85"></path>
        <path d="M0,49.5261234 C0,74.6777922 66.5943409,91.1351688 91.7460097,91.1351688 L91.7460097,91.1351688 C116.897981,91.1351688 137.287325,70.7458247 137.287325,45.5941558 L137.287325,45.5941558 C137.287325,20.442487 116.897981,0.0531428571 91.7460097,0.0531428571 L91.7460097,0.0531428571 C66.5943409,0.0531428571 0,24.3744545 0,49.5261234" id="path-87"></path>
    </defs>
    <g id="Template" stroke="none" stroke-width="1" fill="none" fill-rule="evenodd">
        <g id="Mobile-Small" transform="translate(-128.000000, -1567.000000)">
            <g id="Canadian-Made-Mattress-Module" transform="translate(20.000000, 1194.000000)">
                <g id="perfect-firmness-illustration-138x93" transform="translate(76.263494, 374.000000)">
                    <g>
                        <path d="M50.3772545,25.0976503 C58.0896117,10.2131211 73.6351052,0.042000974 91.556326,0.042000974 C117.154274,0.042000974 137.905352,20.7930789 137.905352,46.3910269 C137.905352,71.9886731 117.154274,92.7400529 91.556326,92.7400529 C78.7573519,92.7400529 67.1700955,87.5522834 58.7825825,79.1647705" id="Stroke-1" stroke="#C40058" stroke-width="1.50974026" stroke-linecap="round" stroke-linejoin="round"></path>
                        <g id="Group-136" transform="translate(0.000000, 0.796841)">
                            <g id="Group-5">
                                <mask id="mask-2" fill="white">
                                    <use xlink:href="#path-1"></use>
                                </mask>
                                <g id="Clip-4"></g>
                                <path d="M147.808886,70.4409175 L42.1892688,70.4409175 C38.5942753,70.4409175 35.6795708,67.5265149 35.6795708,63.9312195 L35.6795708,42.9989727 C35.6795708,40.4550604 37.1615318,38.1445539 39.4732461,37.0829045 L63.066561,26.2508201 C64.6460513,25.5255409 66.3638338,25.1499175 68.1015448,25.1499175 L147.808886,25.1499175 L147.808886,70.4409175 Z" id="Fill-3" fill="#FFFFFF" mask="url(#mask-2)"></path>
                            </g>
                            <g id="Group-8">
                                <mask id="mask-4" fill="white">
                                    <use xlink:href="#path-3"></use>
                                </mask>
                                <g id="Clip-7"></g>
                                <path d="M147.808886,70.4409175 L42.1892688,70.4409175 C38.5942753,70.4409175 35.6795708,67.5265149 35.6795708,63.9312195 L35.6795708,42.9989727 C35.6795708,40.4550604 37.1615318,38.1445539 39.4732461,37.0829045 L63.066561,26.2508201 C64.6460513,25.5255409 66.3638338,25.1499175 68.1015448,25.1499175 L147.808886,25.1499175 L147.808886,70.4409175 Z" id="Stroke-6" stroke="#C40058" stroke-width="1.50974026" stroke-linecap="round" stroke-linejoin="round" mask="url(#mask-4)"></path>
                            </g>
                            <g id="Group-12">
                                <mask id="mask-6" fill="white">
                                    <use xlink:href="#path-5"></use>
                                </mask>
                                <g id="Clip-10"></g>
                                <path d="M35.6797218,48.1719468 L147.809037,48.1719468" id="Fill-9" fill="#FFFFFF" mask="url(#mask-6)"></path>
                                <path d="M35.6797218,48.1719468 L147.809037,48.1719468" id="Stroke-11" stroke="#C40058" stroke-width="1.50974026" stroke-linecap="round" stroke-linejoin="round" mask="url(#mask-6)"></path>
                            </g>
                            <g id="Group-15">
                                <mask id="mask-8" fill="white">
                                    <use xlink:href="#path-7"></use>
                                </mask>
                                <g id="Clip-14"></g>
                                <path d="M42.1763153,52.7499925 C42.1763153,53.3221841 41.7125231,53.7859763 41.1403315,53.7859763 C40.5681399,53.7859763 40.1043477,53.3221841 40.1043477,52.7499925 C40.1043477,52.177801 40.5681399,51.7140088 41.1403315,51.7140088 C41.7125231,51.7140088 42.1763153,52.177801 42.1763153,52.7499925" id="Fill-13" fill="#C40058" mask="url(#mask-8)"></path>
                            </g>
                            <g id="Group-18">
                                <mask id="mask-10" fill="white">
                                    <use xlink:href="#path-9"></use>
                                </mask>
                                <g id="Clip-17"></g>
                                <path d="M46.1252221,58.9661669 C46.1252221,59.5383584 45.6614299,60.0021506 45.0889364,60.0021506 C44.5170468,60.0021506 44.0532545,59.5383584 44.0532545,58.9661669 C44.0532545,58.3939753 44.5170468,57.9301831 45.0889364,57.9301831 C45.6614299,57.9301831 46.1252221,58.3939753 46.1252221,58.9661669" id="Fill-16" fill="#C40058" mask="url(#mask-10)"></path>
                            </g>
                            <g id="Group-21">
                                <mask id="mask-12" fill="white">
                                    <use xlink:href="#path-11"></use>
                                </mask>
                                <g id="Clip-20"></g>
                                <path d="M54.2557169,58.9661669 C54.2557169,59.5383584 53.7919247,60.0021506 53.2194312,60.0021506 C52.6475416,60.0021506 52.1837494,59.5383584 52.1837494,58.9661669 C52.1837494,58.3939753 52.6475416,57.9301831 53.2194312,57.9301831 C53.7919247,57.9301831 54.2557169,58.3939753 54.2557169,58.9661669" id="Fill-19" fill="#C40058" mask="url(#mask-12)"></path>
                            </g>
                            <g id="Group-24">
                                <mask id="mask-14" fill="white">
                                    <use xlink:href="#path-13"></use>
                                </mask>
                                <g id="Clip-23"></g>
                                <path d="M42.1763153,65.0994867 C42.1763153,65.6716782 41.7125231,66.1354705 41.1403315,66.1354705 C40.5681399,66.1354705 40.1043477,65.6716782 40.1043477,65.0994867 C40.1043477,64.5272951 40.5681399,64.0635029 41.1403315,64.0635029 C41.7125231,64.0635029 42.1763153,64.5272951 42.1763153,65.0994867" id="Fill-22" fill="#C40058" mask="url(#mask-14)"></path>
                            </g>
                            <g id="Group-27">
                                <mask id="mask-16" fill="white">
                                    <use xlink:href="#path-15"></use>
                                </mask>
                                <g id="Clip-26"></g>
                                <path d="M50.3772545,52.7499925 C50.3772545,53.3221841 49.9134623,53.7859763 49.3409688,53.7859763 C48.7690792,53.7859763 48.305287,53.3221841 48.305287,52.7499925 C48.305287,52.177801 48.7690792,51.7140088 49.3409688,51.7140088 C49.9134623,51.7140088 50.3772545,52.177801 50.3772545,52.7499925" id="Fill-25" fill="#C40058" mask="url(#mask-16)"></path>
                            </g>
                            <g id="Group-30">
                                <mask id="mask-18" fill="white">
                                    <use xlink:href="#path-17"></use>
                                </mask>
                                <g id="Clip-29"></g>
                                <path d="M50.3772545,65.0994867 C50.3772545,65.6716782 49.9134623,66.1354705 49.3409688,66.1354705 C48.7690792,66.1354705 48.305287,65.6716782 48.305287,65.0994867 C48.305287,64.5272951 48.7690792,64.0635029 49.3409688,64.0635029 C49.9134623,64.0635029 50.3772545,64.5272951 50.3772545,65.0994867" id="Fill-28" fill="#C40058" mask="url(#mask-18)"></path>
                            </g>
                            <g id="Group-33">
                                <mask id="mask-20" fill="white">
                                    <use xlink:href="#path-19"></use>
                                </mask>
                                <g id="Clip-32"></g>
                                <path d="M58.877213,52.7499925 C58.877213,53.3221841 58.4131188,53.7859763 57.8409273,53.7859763 C57.2690377,53.7859763 56.8052455,53.3221841 56.8052455,52.7499925 C56.8052455,52.177801 57.2690377,51.7140088 57.8409273,51.7140088 C58.4131188,51.7140088 58.877213,52.177801 58.877213,52.7499925" id="Fill-31" fill="#C40058" mask="url(#mask-20)"></path>
                            </g>
                            <g id="Group-36">
                                <mask id="mask-22" fill="white">
                                    <use xlink:href="#path-21"></use>
                                </mask>
                                <g id="Clip-35"></g>
                                <path d="M62.8258481,58.9661669 C62.8258481,59.5383584 62.3620558,60.0021506 61.7898643,60.0021506 C61.2176727,60.0021506 60.7538805,59.5383584 60.7538805,58.9661669 C60.7538805,58.3939753 61.2176727,57.9301831 61.7898643,57.9301831 C62.3620558,57.9301831 62.8258481,58.3939753 62.8258481,58.9661669" id="Fill-34" fill="#C40058" mask="url(#mask-22)"></path>
                            </g>
                            <g id="Group-39">
                                <mask id="mask-24" fill="white">
                                    <use xlink:href="#path-23"></use>
                                </mask>
                                <g id="Clip-38"></g>
                                <path d="M70.9563127,58.9661669 C70.9563127,59.5383584 70.4925205,60.0021506 69.9203289,60.0021506 C69.3481373,60.0021506 68.8843451,59.5383584 68.8843451,58.9661669 C68.8843451,58.3939753 69.3481373,57.9301831 69.9203289,57.9301831 C70.4925205,57.9301831 70.9563127,58.3939753 70.9563127,58.9661669" id="Fill-37" fill="#C40058" mask="url(#mask-24)"></path>
                            </g>
                            <g id="Group-42">
                                <mask id="mask-26" fill="white">
                                    <use xlink:href="#path-25"></use>
                                </mask>
                                <g id="Clip-41"></g>
                                <path d="M58.877213,65.0994867 C58.877213,65.6716782 58.4131188,66.1354705 57.8409273,66.1354705 C57.2690377,66.1354705 56.8052455,65.6716782 56.8052455,65.0994867 C56.8052455,64.5272951 57.2690377,64.0635029 57.8409273,64.0635029 C58.4131188,64.0635029 58.877213,64.5272951 58.877213,65.0994867" id="Fill-40" fill="#C40058" mask="url(#mask-26)"></path>
                            </g>
                            <g id="Group-45">
                                <mask id="mask-28" fill="white">
                                    <use xlink:href="#path-27"></use>
                                </mask>
                                <g id="Clip-44"></g>
                                <path d="M67.0778805,52.7499925 C67.0778805,53.3221841 66.6140883,53.7859763 66.0418968,53.7859763 C65.4697052,53.7859763 65.005913,53.3221841 65.005913,52.7499925 C65.005913,52.177801 65.4697052,51.7140088 66.0418968,51.7140088 C66.6140883,51.7140088 67.0778805,52.177801 67.0778805,52.7499925" id="Fill-43" fill="#C40058" mask="url(#mask-28)"></path>
                            </g>
                            <g id="Group-48">
                                <mask id="mask-30" fill="white">
                                    <use xlink:href="#path-29"></use>
                                </mask>
                                <g id="Clip-47"></g>
                                <path d="M67.0778805,65.0994867 C67.0778805,65.6716782 66.6140883,66.1354705 66.0418968,66.1354705 C65.4697052,66.1354705 65.005913,65.6716782 65.005913,65.0994867 C65.005913,64.5272951 65.4697052,64.0635029 66.0418968,64.0635029 C66.6140883,64.0635029 67.0778805,64.5272951 67.0778805,65.0994867" id="Fill-46" fill="#C40058" mask="url(#mask-30)"></path>
                            </g>
                            <g id="Group-51">
                                <mask id="mask-32" fill="white">
                                    <use xlink:href="#path-31"></use>
                                </mask>
                                <g id="Clip-50"></g>
                                <path d="M74.8733942,52.7499925 C74.8733942,53.3221841 74.4096019,53.7859763 73.8371084,53.7859763 C73.2652188,53.7859763 72.8014266,53.3221841 72.8014266,52.7499925 C72.8014266,52.177801 73.2652188,51.7140088 73.8371084,51.7140088 C74.4096019,51.7140088 74.8733942,52.177801 74.8733942,52.7499925" id="Fill-49" fill="#C40058" mask="url(#mask-32)"></path>
                            </g>
                            <g id="Group-54">
                                <mask id="mask-34" fill="white">
                                    <use xlink:href="#path-33"></use>
                                </mask>
                                <g id="Clip-53"></g>
                                <path d="M78.822301,58.9661669 C78.822301,59.5383584 78.3585088,60.0021506 77.7860153,60.0021506 C77.2141256,60.0021506 76.7503334,59.5383584 76.7503334,58.9661669 C76.7503334,58.3939753 77.2141256,57.9301831 77.7860153,57.9301831 C78.3585088,57.9301831 78.822301,58.3939753 78.822301,58.9661669" id="Fill-52" fill="#C40058" mask="url(#mask-34)"></path>
                            </g>
                            <g id="Group-57">
                                <mask id="mask-36" fill="white">
                                    <use xlink:href="#path-35"></use>
                                </mask>
                                <g id="Clip-56"></g>
                                <path d="M86.9527958,58.9661669 C86.9527958,59.5383584 86.4890036,60.0021506 85.9165101,60.0021506 C85.3446205,60.0021506 84.8808282,59.5383584 84.8808282,58.9661669 C84.8808282,58.3939753 85.3446205,57.9301831 85.9165101,57.9301831 C86.4890036,57.9301831 86.9527958,58.3939753 86.9527958,58.9661669" id="Fill-55" fill="#C40058" mask="url(#mask-36)"></path>
                            </g>
                            <g id="Group-60">
                                <mask id="mask-38" fill="white">
                                    <use xlink:href="#path-37"></use>
                                </mask>
                                <g id="Clip-59"></g>
                                <path d="M74.8733942,65.0994867 C74.8733942,65.6716782 74.4096019,66.1354705 73.8371084,66.1354705 C73.2652188,66.1354705 72.8014266,65.6716782 72.8014266,65.0994867 C72.8014266,64.5272951 73.2652188,64.0635029 73.8371084,64.0635029 C74.4096019,64.0635029 74.8733942,64.5272951 74.8733942,65.0994867" id="Fill-58" fill="#C40058" mask="url(#mask-38)"></path>
                            </g>
                            <g id="Group-63">
                                <mask id="mask-40" fill="white">
                                    <use xlink:href="#path-39"></use>
                                </mask>
                                <g id="Clip-62"></g>
                                <path d="M83.0743334,52.7499925 C83.0743334,53.3221841 82.6105412,53.7859763 82.0380477,53.7859763 C81.4661581,53.7859763 81.0023659,53.3221841 81.0023659,52.7499925 C81.0023659,52.177801 81.4661581,51.7140088 82.0380477,51.7140088 C82.6105412,51.7140088 83.0743334,52.177801 83.0743334,52.7499925" id="Fill-61" fill="#C40058" mask="url(#mask-40)"></path>
                            </g>
                            <g id="Group-66">
                                <mask id="mask-42" fill="white">
                                    <use xlink:href="#path-41"></use>
                                </mask>
                                <g id="Clip-65"></g>
                                <path d="M83.0743334,65.0994867 C83.0743334,65.6716782 82.6105412,66.1354705 82.0380477,66.1354705 C81.4661581,66.1354705 81.0023659,65.6716782 81.0023659,65.0994867 C81.0023659,64.5272951 81.4661581,64.0635029 82.0380477,64.0635029 C82.6105412,64.0635029 83.0743334,64.5272951 83.0743334,65.0994867" id="Fill-64" fill="#C40058" mask="url(#mask-42)"></path>
                            </g>
                            <g id="Group-69">
                                <mask id="mask-44" fill="white">
                                    <use xlink:href="#path-43"></use>
                                </mask>
                                <g id="Clip-68"></g>
                                <path d="M90.8695451,52.7499925 C90.8695451,53.3221841 90.4057529,53.7859763 89.8335614,53.7859763 C89.2613698,53.7859763 88.7975776,53.3221841 88.7975776,52.7499925 C88.7975776,52.177801 89.2613698,51.7140088 89.8335614,51.7140088 C90.4057529,51.7140088 90.8695451,52.177801 90.8695451,52.7499925" id="Fill-67" fill="#C40058" mask="url(#mask-44)"></path>
                            </g>
                            <g id="Group-72">
                                <mask id="mask-46" fill="white">
                                    <use xlink:href="#path-45"></use>
                                </mask>
                                <g id="Clip-71"></g>
                                <path d="M94.8184821,58.9661669 C94.8184821,59.5383584 94.3546899,60.0021506 93.7821964,60.0021506 C93.2103068,60.0021506 92.7465146,59.5383584 92.7465146,58.9661669 C92.7465146,58.3939753 93.2103068,57.9301831 93.7821964,57.9301831 C94.3546899,57.9301831 94.8184821,58.3939753 94.8184821,58.9661669" id="Fill-70" fill="#C40058" mask="url(#mask-46)"></path>
                            </g>
                            <g id="Group-75">
                                <mask id="mask-48" fill="white">
                                    <use xlink:href="#path-47"></use>
                                </mask>
                                <g id="Clip-74"></g>
                                <path d="M102.948947,58.9661669 C102.948947,59.5383584 102.485155,60.0021506 101.912661,60.0021506 C101.340771,60.0021506 100.876979,59.5383584 100.876979,58.9661669 C100.876979,58.3939753 101.340771,57.9301831 101.912661,57.9301831 C102.485155,57.9301831 102.948947,58.3939753 102.948947,58.9661669" id="Fill-73" fill="#C40058" mask="url(#mask-48)"></path>
                            </g>
                            <g id="Group-78">
                                <mask id="mask-50" fill="white">
                                    <use xlink:href="#path-49"></use>
                                </mask>
                                <g id="Clip-77"></g>
                                <path d="M90.8695451,65.0994867 C90.8695451,65.6716782 90.4057529,66.1354705 89.8335614,66.1354705 C89.2613698,66.1354705 88.7975776,65.6716782 88.7975776,65.0994867 C88.7975776,64.5272951 89.2613698,64.0635029 89.8335614,64.0635029 C90.4057529,64.0635029 90.8695451,64.5272951 90.8695451,65.0994867" id="Fill-76" fill="#C40058" mask="url(#mask-50)"></path>
                            </g>
                            <g id="Group-81">
                                <mask id="mask-52" fill="white">
                                    <use xlink:href="#path-51"></use>
                                </mask>
                                <g id="Clip-80"></g>
                                <path d="M99.0705146,52.7499925 C99.0705146,53.3221841 98.6067224,53.7859763 98.0345308,53.7859763 C97.4623393,53.7859763 96.9985471,53.3221841 96.9985471,52.7499925 C96.9985471,52.177801 97.4623393,51.7140088 98.0345308,51.7140088 C98.6067224,51.7140088 99.0705146,52.177801 99.0705146,52.7499925" id="Fill-79" fill="#C40058" mask="url(#mask-52)"></path>
                            </g>
                            <g id="Group-84">
                                <mask id="mask-54" fill="white">
                                    <use xlink:href="#path-53"></use>
                                </mask>
                                <g id="Clip-83"></g>
                                <path d="M99.0705146,65.0994867 C99.0705146,65.6716782 98.6067224,66.1354705 98.0345308,66.1354705 C97.4623393,66.1354705 96.9985471,65.6716782 96.9985471,65.0994867 C96.9985471,64.5272951 97.4623393,64.0635029 98.0345308,64.0635029 C98.6067224,64.0635029 99.0705146,64.5272951 99.0705146,65.0994867" id="Fill-82" fill="#C40058" mask="url(#mask-54)"></path>
                            </g>
                            <g id="Group-87">
                                <mask id="mask-56" fill="white">
                                    <use xlink:href="#path-55"></use>
                                </mask>
                                <g id="Clip-86"></g>
                                <path d="M107.611749,52.7499925 C107.611749,53.3221841 107.147957,53.7859763 106.575766,53.7859763 C106.003574,53.7859763 105.539782,53.3221841 105.539782,52.7499925 C105.539782,52.177801 106.003574,51.7140088 106.575766,51.7140088 C107.147957,51.7140088 107.611749,52.177801 107.611749,52.7499925" id="Fill-85" fill="#C40058" mask="url(#mask-56)"></path>
                            </g>
                            <g id="Group-90">
                                <mask id="mask-58" fill="white">
                                    <use xlink:href="#path-57"></use>
                                </mask>
                                <g id="Clip-89"></g>
                                <path d="M111.560656,58.9661669 C111.560656,59.5383584 111.096864,60.0021506 110.52437,60.0021506 C109.952481,60.0021506 109.488689,59.5383584 109.488689,58.9661669 C109.488689,58.3939753 109.952481,57.9301831 110.52437,57.9301831 C111.096864,57.9301831 111.560656,58.3939753 111.560656,58.9661669" id="Fill-88" fill="#C40058" mask="url(#mask-58)"></path>
                            </g>
                            <g id="Group-93">
                                <mask id="mask-60" fill="white">
                                    <use xlink:href="#path-59"></use>
                                </mask>
                                <g id="Clip-92"></g>
                                <path d="M119.691151,58.9661669 C119.691151,59.5383584 119.227359,60.0021506 118.654865,60.0021506 C118.082976,60.0021506 117.619183,59.5383584 117.619183,58.9661669 C117.619183,58.3939753 118.082976,57.9301831 118.654865,57.9301831 C119.227359,57.9301831 119.691151,58.3939753 119.691151,58.9661669" id="Fill-91" fill="#C40058" mask="url(#mask-60)"></path>
                            </g>
                            <g id="Group-96">
                                <mask id="mask-62" fill="white">
                                    <use xlink:href="#path-61"></use>
                                </mask>
                                <g id="Clip-95"></g>
                                <path d="M107.611749,65.0994867 C107.611749,65.6716782 107.147957,66.1354705 106.575766,66.1354705 C106.003574,66.1354705 105.539782,65.6716782 105.539782,65.0994867 C105.539782,64.5272951 106.003574,64.0635029 106.575766,64.0635029 C107.147957,64.0635029 107.611749,64.5272951 107.611749,65.0994867" id="Fill-94" fill="#C40058" mask="url(#mask-62)"></path>
                            </g>
                            <g id="Group-99">
                                <mask id="mask-64" fill="white">
                                    <use xlink:href="#path-63"></use>
                                </mask>
                                <g id="Clip-98"></g>
                                <path d="M115.812719,52.7499925 C115.812719,53.3221841 115.348927,53.7859763 114.776735,53.7859763 C114.204544,53.7859763 113.740751,53.3221841 113.740751,52.7499925 C113.740751,52.177801 114.204544,51.7140088 114.776735,51.7140088 C115.348927,51.7140088 115.812719,52.177801 115.812719,52.7499925" id="Fill-97" fill="#C40058" mask="url(#mask-64)"></path>
                            </g>
                            <g id="Group-102">
                                <mask id="mask-66" fill="white">
                                    <use xlink:href="#path-65"></use>
                                </mask>
                                <g id="Clip-101"></g>
                                <path d="M115.812719,65.0994867 C115.812719,65.6716782 115.348927,66.1354705 114.776735,66.1354705 C114.204544,66.1354705 113.740751,65.6716782 113.740751,65.0994867 C113.740751,64.5272951 114.204544,64.0635029 114.776735,64.0635029 C115.348927,64.0635029 115.812719,64.5272951 115.812719,65.0994867" id="Fill-100" fill="#C40058" mask="url(#mask-66)"></path>
                            </g>
                            <g id="Group-105">
                                <mask id="mask-68" fill="white">
                                    <use xlink:href="#path-67"></use>
                                </mask>
                                <g id="Clip-104"></g>
                                <path d="M124.644095,52.7499925 C124.644095,53.3221841 124.180303,53.7859763 123.608112,53.7859763 C123.03592,53.7859763 122.572128,53.3221841 122.572128,52.7499925 C122.572128,52.177801 123.03592,51.7140088 123.608112,51.7140088 C124.180303,51.7140088 124.644095,52.177801 124.644095,52.7499925" id="Fill-103" fill="#C40058" mask="url(#mask-68)"></path>
                            </g>
                            <g id="Group-108">
                                <mask id="mask-70" fill="white">
                                    <use xlink:href="#path-69"></use>
                                </mask>
                                <g id="Clip-107"></g>
                                <path d="M128.593002,58.9661669 C128.593002,59.5383584 128.12921,60.0021506 127.556717,60.0021506 C126.984827,60.0021506 126.521035,59.5383584 126.521035,58.9661669 C126.521035,58.3939753 126.984827,57.9301831 127.556717,57.9301831 C128.12921,57.9301831 128.593002,58.3939753 128.593002,58.9661669" id="Fill-106" fill="#C40058" mask="url(#mask-70)"></path>
                            </g>
                            <g id="Group-111">
                                <mask id="mask-72" fill="white">
                                    <use xlink:href="#path-71"></use>
                                </mask>
                                <g id="Clip-110"></g>
                                <path d="M136.723497,58.9661669 C136.723497,59.5383584 136.259705,60.0021506 135.687211,60.0021506 C135.115322,60.0021506 134.65153,59.5383584 134.65153,58.9661669 C134.65153,58.3939753 135.115322,57.9301831 135.687211,57.9301831 C136.259705,57.9301831 136.723497,58.3939753 136.723497,58.9661669" id="Fill-109" fill="#C40058" mask="url(#mask-72)"></path>
                            </g>
                            <g id="Group-114">
                                <mask id="mask-74" fill="white">
                                    <use xlink:href="#path-73"></use>
                                </mask>
                                <g id="Clip-113"></g>
                                <path d="M124.644095,65.0994867 C124.644095,65.6716782 124.180303,66.1354705 123.608112,66.1354705 C123.03592,66.1354705 122.572128,65.6716782 122.572128,65.0994867 C122.572128,64.5272951 123.03592,64.0635029 123.608112,64.0635029 C124.180303,64.0635029 124.644095,64.5272951 124.644095,65.0994867" id="Fill-112" fill="#C40058" mask="url(#mask-74)"></path>
                            </g>
                            <g id="Group-117">
                                <mask id="mask-76" fill="white">
                                    <use xlink:href="#path-75"></use>
                                </mask>
                                <g id="Clip-116"></g>
                                <path d="M132.845065,52.7499925 C132.845065,53.3221841 132.381273,53.7859763 131.808779,53.7859763 C131.23689,53.7859763 130.773097,53.3221841 130.773097,52.7499925 C130.773097,52.177801 131.23689,51.7140088 131.808779,51.7140088 C132.381273,51.7140088 132.845065,52.177801 132.845065,52.7499925" id="Fill-115" fill="#C40058" mask="url(#mask-76)"></path>
                            </g>
                            <g id="Group-120">
                                <mask id="mask-78" fill="white">
                                    <use xlink:href="#path-77"></use>
                                </mask>
                                <g id="Clip-119"></g>
                                <path d="M132.845065,65.0994867 C132.845065,65.6716782 132.381273,66.1354705 131.808779,66.1354705 C131.23689,66.1354705 130.773097,65.6716782 130.773097,65.0994867 C130.773097,64.5272951 131.23689,64.0635029 131.808779,64.0635029 C132.381273,64.0635029 132.845065,64.5272951 132.845065,65.0994867" id="Fill-118" fill="#C40058" mask="url(#mask-78)"></path>
                            </g>
                            <g id="Group-123">
                                <mask id="mask-80" fill="white">
                                    <use xlink:href="#path-79"></use>
                                </mask>
                                <g id="Clip-122"></g>
                                <path d="M73.3545049,26.5359497 C73.3545049,26.5359497 68.2256153,27.8053393 68.0824919,28.7105795 C67.7497451,30.8163653 70.6611282,31.2925373 72.3985373,31.061849 C74.1359464,30.8311607 80.5161088,28.2401445 83.9634497,27.6872776 C87.4110925,27.1344107 93.4026477,27.9819789 93.4026477,27.9819789 L112.435339,26.5078685 L113.824602,23.1692289 L95.1778003,21.4922094 L79.9125146,22.8038718 C79.2986542,22.8564107 78.707138,23.0596218 78.1902029,23.395388 L73.3545049,26.5359497 Z" id="Fill-121" fill="#FFFFFF" mask="url(#mask-80)"></path>
                            </g>
                            <g id="Group-126">
                                <mask id="mask-82" fill="white">
                                    <use xlink:href="#path-81"></use>
                                </mask>
                                <g id="Clip-125"></g>
                                <path d="M73.3545049,26.5359497 C73.3545049,26.5359497 68.2256153,27.8053393 68.0824919,28.7105795 C67.7497451,30.8163653 70.6611282,31.2925373 72.3985373,31.061849 C74.1359464,30.8311607 80.5161088,28.2401445 83.9634497,27.6872776 C87.4110925,27.1344107 93.4026477,27.9819789 93.4026477,27.9819789 L112.435339,26.5078685 L113.824602,23.1692289 L95.1778003,21.4922094 L79.9125146,22.8038718 C79.2986542,22.8564107 78.707138,23.0596218 78.1902029,23.395388 L73.3545049,26.5359497 Z" id="Stroke-124" stroke="#C40058" stroke-width="1.50974026" stroke-linecap="round" stroke-linejoin="round" mask="url(#mask-82)"></path>
                            </g>
                            <g id="Group-129">
                                <mask id="mask-84" fill="white">
                                    <use xlink:href="#path-83"></use>
                                </mask>
                                <g id="Clip-128"></g>
                                <path d="M143.191798,-3.12778929 C143.191798,-3.12778929 121.506795,22.8418568 120.844321,23.7694412 C120.182451,24.6970256 119.658571,27.1566945 118.769334,28.5495808 C117.880097,29.9421653 114.94184,32.5316718 111.93021,33.4091328 C108.917977,34.2865938 106.084496,33.3245873 104.172561,33.6259315 C102.260626,33.9272756 97.4554247,35.8890321 95.7799149,35.9210386 C92.9911227,35.9741815 89.002087,36.3102497 88.7732104,34.0039705 C88.3118338,32.0404023 90.6920903,31.2867399 94.471876,30.3965971 C96.8041227,29.8473536 97.7652234,29.5752984 99.6342818,28.9886133 C101.503944,28.4019282 100.432934,28.694214 104.493532,26.6753893 C104.493532,26.6753893 99.8688955,29.8183666 94.9039636,30.2942367 C88.8166909,30.8776003 87.5874604,30.3851231 85.2011649,30.4799347 C82.2743825,30.5961847 79.8503435,30.8661263 76.8601519,32.0899218 C73.8702623,33.3134153 72.0984312,35.134464 70.5548727,35.2289737 C68.9630026,35.326201 67.7509831,34.9868114 67.2056649,32.960136 C67.3771714,31.9012042 72.16335,29.3503471 74.6728403,27.9942984 C77.5519149,26.4383601 78.702337,25.4546133 82.0355416,24.584399 C84.1784669,24.0251912 87.5962169,22.904964 89.5166065,22.1935744 C91.2063078,21.567636 93.1155253,21.0642886 98.8706552,19.6928406 C104.625483,18.3210906 108.726542,17.7975127 110.032769,16.6135744 C111.338392,15.4293341 126.796925,-9.88206526 128.13546,-13.6298445 L143.191798,-3.12778929 Z" id="Fill-127" fill="#FFFFFF" mask="url(#mask-84)"></path>
                            </g>
                            <g id="Group-132">
                                <mask id="mask-86" fill="white">
                                    <use xlink:href="#path-85"></use>
                                </mask>
                                <g id="Clip-131"></g>
                                <path d="M143.191798,-3.12778929 C143.191798,-3.12778929 121.506795,22.8418568 120.844321,23.7694412 C120.182451,24.6970256 119.658571,27.1566945 118.769334,28.5495808 C117.880097,29.9421653 114.94184,32.5316718 111.93021,33.4091328 C108.917977,34.2865938 106.084496,33.3245873 104.172561,33.6259315 C102.260626,33.9272756 97.4554247,35.8890321 95.7799149,35.9210386 C92.9911227,35.9741815 89.002087,36.3102497 88.7732104,34.0039705 C88.3118338,32.0404023 90.6920903,31.2867399 94.471876,30.3965971 C96.8041227,29.8473536 97.7652234,29.5752984 99.6342818,28.9886133 C101.503944,28.4019282 100.432934,28.694214 104.493532,26.6753893 C104.493532,26.6753893 99.8688955,29.8183666 94.9039636,30.2942367 C88.8166909,30.8776003 87.5874604,30.3851231 85.2011649,30.4799347 C82.2743825,30.5961847 79.8503435,30.8661263 76.8601519,32.0899218 C73.8702623,33.3134153 72.0984312,35.134464 70.5548727,35.2289737 C68.9630026,35.326201 67.7509831,34.9868114 67.2056649,32.960136 C67.3771714,31.9012042 72.16335,29.3503471 74.6728403,27.9942984 C77.5519149,26.4383601 78.702337,25.4546133 82.0355416,24.584399 C84.1784669,24.0251912 87.5962169,22.904964 89.5166065,22.1935744 C91.2063078,21.567636 93.1155253,21.0642886 98.8706552,19.6928406 C104.625483,18.3210906 108.726542,17.7975127 110.032769,16.6135744 C111.338392,15.4293341 126.796925,-9.88206526 128.13546,-13.6298445 L143.191798,-3.12778929 Z" id="Stroke-130" stroke="#C40058" stroke-width="1.50974026" stroke-linecap="round" stroke-linejoin="round" mask="url(#mask-86)"></path>
                            </g>
                            <g id="Group-135">
                                <mask id="mask-88" fill="white">
                                    <use xlink:href="#path-87"></use>
                                </mask>
                                <g id="Clip-134"></g>
                                <path d="M145.285657,46.4954708 L95.460001,46.4954708 L57.2762542,46.4954708 C52.0078646,46.4954708 39.5778711,43.9026429 34.8288321,46.4954708 C31.4071568,48.3633214 32.1620269,60.1087987 33.0292218,65.1975292 C34.6485692,74.7037597 42.3228808,72.9228701 49.2236016,72.9228701 L119.732397,72.9228701 L136.232348,72.9228701 C137.547634,72.9228701 143.708884,73.8842727 144.79167,72.9228701 C147.671952,70.365974 145.285657,51.3139578 145.285657,46.4954708" id="Fill-133" fill="#C40058" opacity="0.1" mask="url(#mask-88)"></path>
                            </g>
                        </g>
                        <g id="Group-149" transform="translate(63.107143, 32.803334)">
                            <g id="Group-140" transform="translate(46.801948, 0.000000)">
                                <path d="M0.0858136364,4.99249968 C5.64830065,4.69961006 9.16116429,3.04070747 11.4055442,0.113321104" id="Fill-137" fill="#FFFFFF"></path>
                                <path d="M0.0858136364,4.99249968 C5.64830065,4.69961006 9.16116429,3.04070747 11.4055442,0.113321104" id="Stroke-139" stroke="#C40058" stroke-width="1.50974026" stroke-linecap="round" stroke-linejoin="round"></path>
                            </g>
                            <g id="Group-144" transform="translate(53.444805, 4.831169)">
                                <path d="M0.176337662,2.21068247 C1.83524026,1.91779286 3.88456169,1.33231558 4.76262662,0.161361039" id="Fill-141" fill="#FFFFFF"></path>
                                <path d="M0.176337662,2.21068247 C1.83524026,1.91779286 3.88456169,1.33231558 4.76262662,0.161361039" id="Stroke-143" stroke="#C40058" stroke-width="1.50974026" stroke-linecap="round" stroke-linejoin="round"></path>
                            </g>
                            <g id="Group-148" transform="translate(0.000000, 3.019481)">
                                <path d="M0.0377435065,0.137295779 C1.79417532,2.57703604 3.55090909,3.45510097 5.59992857,3.60154578" id="Fill-145" fill="#FFFFFF"></path>
                                <path d="M0.0377435065,0.137295779 C1.79417532,2.57703604 3.55090909,3.45510097 5.59992857,3.60154578" id="Stroke-147" stroke="#C40058" stroke-width="1.50974026" stroke-linecap="round" stroke-linejoin="round"></path>
                            </g>
                        </g>
                    </g>
                </g>
            </g>
        </g>
    </g>
</svg>