<?xml version="1.0" encoding="UTF-8"?>
<svg width="95px" height="108px" viewBox="0 0 95 108" version="1.1" xmlns="http://www.w3.org/2000/svg" xmlns:xlink="http://www.w3.org/1999/xlink">
    <!-- Generator: Sketch 55.1 (78136) - https://sketchapp.com -->
    <title>zero-motion-transfer-illustration-92x107</title>
    <desc>Created with Sketch.</desc>
    <defs>
        <path d="M0.010789916,39.2630056 C0.010789916,64.6723585 20.6087395,85.2703081 46.017493,85.2703081 L46.017493,85.2703081 C71.4262465,85.2703081 91.8899216,64.6720588 92.0251923,39.2633053 L92.0251923,39.2633053 C92.1117143,22.7960952 84.0027927,8.77310084 70.2408543,0.147162465 L70.2408543,0.147162465 L21.7998263,0.138770308 C8.72064986,8.25188796 0.010789916,22.7406471 0.010789916,39.2630056" id="path-1"></path>
        <path d="M0.010789916,39.2630056 C0.010789916,64.6723585 20.6087395,85.2703081 46.017493,85.2703081 L46.017493,85.2703081 C71.4262465,85.2703081 91.8899216,64.6720588 92.0251923,39.2633053 L92.0251923,39.2633053 C92.1117143,22.7960952 84.0027927,8.77310084 70.2408543,0.147162465 L70.2408543,0.147162465 L21.7998263,0.138770308 C8.72064986,8.25188796 0.010789916,22.7406471 0.010789916,39.2630056" id="path-3"></path>
        <path d="M0.010789916,39.2630056 C0.010789916,64.6723585 20.6087395,85.2703081 46.017493,85.2703081 L46.017493,85.2703081 C71.4262465,85.2703081 91.8899216,64.6720588 92.0251923,39.2633053 L92.0251923,39.2633053 C92.1117143,22.7960952 84.0027927,8.77310084 70.2408543,0.147162465 L70.2408543,0.147162465 L21.7998263,0.138770308 C8.72064986,8.25188796 0.010789916,22.7406471 0.010789916,39.2630056" id="path-5"></path>
    </defs>
    <g id="Template" stroke="none" stroke-width="1" fill="none" fill-rule="evenodd">
        <g id="Mobile-Small" transform="translate(-140.000000, -1721.000000)">
            <g id="Canadian-Made-Mattress-Module" transform="translate(20.000000, 1194.000000)">
                <g id="zero-motion-transfer-illustration-92x107" transform="translate(121.343137, 527.000000)">
                    <g transform="translate(-0.000000, 0.000000)">
                        <g id="Group-33" transform="translate(0.000000, 1.741672)">
                            <path d="M21.7996765,19.9203429 C8.7205,28.0334605 0.010640056,42.5219199 0.010640056,59.0448779 C0.010640056,84.4536314 20.6085896,105.051881 46.0176429,105.051881 C71.4263964,105.051881 91.8900714,84.4536314 92.0253421,59.0448779 C92.1118641,42.5776678 84.0029426,28.5546734 70.2407045,19.928735" id="Stroke-1" stroke="#C40058" stroke-width="1.49859944" stroke-linecap="round" stroke-linejoin="round"></path>
                            <path d="M62.9444134,16.6642459 L51.6890325,16.6642459 C53.8853798,14.9663328 55.3012566,12.3075176 55.3012566,9.31661289 C55.3012566,4.18930476 51.1450409,0.0330890756 46.0174331,0.0330890756 C40.8904246,0.0330890756 36.7339092,4.18930476 36.7339092,9.31661289 C36.7339092,12.3075176 38.1494863,14.9663328 40.3461333,16.6642459 L29.0907524,16.6642459 L19.4095003,53.0847081 C19.4095003,53.0847081 29.283772,58.4332095 46.0174331,58.4332095 C62.7510941,58.4332095 72.6256655,53.0847081 72.6256655,53.0847081 L62.9444134,16.6642459 Z" id="Fill-3" fill="#FFFFFF"></path>
                            <path d="M62.9444134,16.6642459 L51.6890325,16.6642459 C53.8853798,14.9663328 55.3012566,12.3075176 55.3012566,9.31661289 C55.3012566,4.18930476 51.1450409,0.0330890756 46.0174331,0.0330890756 C40.8904246,0.0330890756 36.7339092,4.18930476 36.7339092,9.31661289 C36.7339092,12.3075176 38.1494863,14.9663328 40.3461333,16.6642459 L29.0907524,16.6642459 L19.4095003,53.0847081 C19.4095003,53.0847081 29.283772,58.4332095 46.0174331,58.4332095 C62.7510941,58.4332095 72.6256655,53.0847081 72.6256655,53.0847081 L62.9444134,16.6642459 Z" id="Stroke-5" stroke="#C40058" stroke-width="1.61339216" stroke-linecap="round" stroke-linejoin="round"></path>
                            <polygon id="Fill-7" fill="#C40058" points="39.5624557 34.1719636 43.4072625 29.7400056 45.3824165 29.7400056 41.6431112 33.9462745 45.5172905 38.9962549 43.5583213 38.9962549 40.5125678 35.0312605 39.5624557 36.1171457 39.5624557 38.9962549 37.9952204 38.9962549 37.9952204 29.7400056 39.5624557 29.7400056"></polygon>
                            <path d="M50.5271084,35.5591871 L50.5271084,34.2173412 L54.0404249,34.2173412 L54.0404249,34.940865 C54.0404249,37.50347 52.3658899,39.1474336 50.1048031,39.1474336 C47.6177275,39.1474336 45.7483745,37.2175373 45.7483745,34.3678006 C45.7483745,31.5186633 47.6324137,29.5890667 50.0445594,29.5890667 C52.1704725,29.5890667 53.4814473,30.7948398 53.8438087,32.6345204 L52.2762737,32.6345204 C51.8992261,31.6394504 51.2809039,31.0061423 50.0445594,31.0061423 C48.4008955,31.0061423 47.3305958,32.4079322 47.3305958,34.3678006 C47.3305958,36.3276689 48.3859095,37.7600303 50.1048031,37.7600303 C51.506593,37.7600303 52.3512036,36.8554756 52.5475202,35.5591871 L50.5271084,35.5591871 Z" id="Fill-9" fill="#C40058"></path>
                            <path d="M50.259009,9.38887535 C50.259009,11.7311863 48.3599838,13.6302115 46.0176728,13.6302115 C43.6750622,13.6302115 41.776037,11.7311863 41.776037,9.38887535 C41.776037,7.04656443 43.6750622,5.14753922 46.0176728,5.14753922 C48.3599838,5.14753922 50.259009,7.04656443 50.259009,9.38887535" id="Fill-11" fill="#FFFFFF"></path>
                            <path d="M50.259009,9.38887535 C50.259009,11.7311863 48.3599838,13.6302115 46.0176728,13.6302115 C43.6750622,13.6302115 41.776037,11.7311863 41.776037,9.38887535 C41.776037,7.04656443 43.6750622,5.14753922 46.0176728,5.14753922 C48.3599838,5.14753922 50.259009,7.04656443 50.259009,9.38887535 Z" id="Stroke-13" stroke="#C40058" stroke-width="1.61339216" stroke-linecap="round" stroke-linejoin="round"></path>
                            <path d="M27.4545515,95.6811084 L27.4545515,81.239705" id="Stroke-15" stroke="#C40058" stroke-width="1.49859944" stroke-linecap="round" stroke-linejoin="round"></path>
                            <path d="M27.4545515,80.9452303 L30.8884423,84.379121" id="Stroke-17" stroke="#C40058" stroke-width="1.49859944" stroke-linecap="round" stroke-linejoin="round"></path>
                            <path d="M27.4545515,80.9452303 L24.0209605,84.379121" id="Stroke-19" stroke="#C40058" stroke-width="1.49859944" stroke-linecap="round" stroke-linejoin="round"></path>
                            <path d="M46.0175529,95.6811084 L46.0175529,81.239705" id="Stroke-21" stroke="#C40058" stroke-width="1.49859944" stroke-linecap="round" stroke-linejoin="round"></path>
                            <path d="M46.0175529,80.9452303 L49.451144,84.379121" id="Stroke-23" stroke="#C40058" stroke-width="1.49859944" stroke-linecap="round" stroke-linejoin="round"></path>
                            <path d="M46.0175529,80.9452303 L42.5839619,84.379121" id="Stroke-25" stroke="#C40058" stroke-width="1.49859944" stroke-linecap="round" stroke-linejoin="round"></path>
                            <path d="M64.5805843,95.6811084 L64.5805843,81.239705" id="Stroke-27" stroke="#C40058" stroke-width="1.49859944" stroke-linecap="round" stroke-linejoin="round"></path>
                            <path d="M64.5805843,80.9452303 L68.0141754,84.379121" id="Stroke-29" stroke="#C40058" stroke-width="1.49859944" stroke-linecap="round" stroke-linejoin="round"></path>
                            <path d="M64.5805843,80.9452303 L61.1469933,84.379121" id="Stroke-31" stroke="#C40058" stroke-width="1.49859944" stroke-linecap="round" stroke-linejoin="round"></path>
                        </g>
                        <g id="Group-43" transform="translate(0.000000, 21.523185)">
                            <g id="Group-36">
                                <mask id="mask-2" fill="white">
                                    <use xlink:href="#path-1"></use>
                                </mask>
                                <g id="Clip-35"></g>
                                <path d="M-2.81688739,56.1956507 L97.0938381,56.1956507" id="Stroke-34" stroke="#C40058" stroke-width="1.49859944" stroke-linecap="round" stroke-linejoin="round" mask="url(#mask-2)"></path>
                            </g>
                            <g id="Group-39">
                                <mask id="mask-4" fill="white">
                                    <use xlink:href="#path-3"></use>
                                </mask>
                                <g id="Clip-38"></g>
                                <path d="M108.719013,35.3244465 L89.7035849,35.3244465 C74.0564084,35.3244465 63.5299462,43.202284 45.7310807,43.202284 C27.9325148,43.202284 17.728851,35.3244465 2.08167451,35.3244465 L-16.9340538,35.3244465" id="Stroke-37" stroke="#C40058" stroke-width="1.49859944" stroke-linecap="round" stroke-linejoin="round" mask="url(#mask-4)"></path>
                            </g>
                            <g id="Group-42">
                                <mask id="mask-6" fill="white">
                                    <use xlink:href="#path-5"></use>
                                </mask>
                                <g id="Clip-41"></g>
                                <path d="M108.719013,39.2632454 L89.7035849,39.2632454 C74.0564084,39.2632454 63.5299462,47.1410829 45.7310807,47.1410829 C27.9325148,47.1410829 17.728851,39.2632454 2.08167451,39.2632454 L-16.9340538,39.2632454" id="Stroke-40" stroke="#C40058" stroke-width="1.49859944" stroke-linecap="round" stroke-linejoin="round" mask="url(#mask-6)"></path>
                            </g>
                        </g>
                        <path d="M44.1244022,14.3809199 C38.324223,14.3809199 38.324223,5.40910476 44.1244022,5.40910476 C49.9245815,5.40910476 49.9245815,14.3809199 44.1244022,14.3809199 M62.0266711,17.5900207 L50.1226964,17.5900207 C57.3111782,12.0329143 53.1450717,5.99439776e-05 44.1244022,5.99439776e-05 C35.0890465,5.99439776e-05 30.8264303,11.9471944 38.1258084,17.5900207 C34.0301361,17.5900207 28.2943966,16.4301048 25.8711613,18.9108863 C23.1512034,21.6943849 22.0482342,33.2920459 21.1023182,36.8494213 C16.9595899,52.4345557 11.2154583,56.6477182 28.9624723,60.2992056 C38.7342398,62.3094269 68.8647804,64.5789059 71.5071109,53.2557882 C73.5329176,44.5750011 64.3638868,26.3838022 62.0266711,17.5900207" id="Fill-44" fill="#C40058" opacity="0.1"></path>
                    </g>
                </g>
            </g>
        </g>
    </g>
</svg>