<?xml version="1.0" encoding="UTF-8"?>
<svg width="130px" height="60px" viewBox="0 0 130 60" version="1.1" xmlns="http://www.w3.org/2000/svg" xmlns:xlink="http://www.w3.org/1999/xlink">
    <!-- Generator: Sketch 53.2 (72643) - https://sketchapp.com -->
    <title>Chatelaine Logo</title>
    <desc>Created with Sketch.</desc>
    <defs>
        <polygon id="path-1" points="0 15.3688 124.14 15.3688 124.14 -0.0002 0 -0.0002"></polygon>
    </defs>
    <g id="Chatelaine-Logo" stroke="none" stroke-width="1" fill="none" fill-rule="evenodd">
        <g id="CHATELAINE" transform="translate(3.000000, 22.000000)">
            <path d="M84.1321,0.4044 L84.0981,0.3314 C84.0291,0.1834 83.9321,0.1004 83.8291,0.1004 L83.8161,0.1004 C83.7411,0.1004 83.6451,0.1234 83.5481,0.3164 L77.1771,15.1194 L77.1421,15.2024 L80.7521,15.2024 L81.4171,13.4214 L85.9771,13.4214 L86.6781,15.2024 L90.4851,15.2024 L84.1321,0.4044 Z M84.9601,10.8974 L82.3791,10.8974 L83.6661,7.5244 L84.9601,10.8974 Z" id="Fill-1" fill="#233745"></path>
            <path d="M10.0745,9.6969 L10.0425,9.7619 C9.5915,10.6969 8.8315,11.7709 6.9655,11.7709 C5.0755,11.7709 3.7565,10.0879 3.7565,7.6769 C3.7565,5.2789 5.0275,3.6029 6.8475,3.6029 C8.5955,3.6029 9.3755,4.5939 9.8085,5.3359 L9.8455,5.3949 L12.6175,3.3009 L12.5905,3.2569 C11.2935,1.1329 9.3405,0.0529 6.7895,0.0529 C2.9825,0.0529 0.0005,3.4029 0.0005,7.6769 C0.0005,11.9639 3.0665,15.3209 6.9845,15.3209 C9.7545,15.3209 11.5755,14.2239 12.8855,11.7689 L12.9105,11.7229 L10.0745,9.6969 Z" id="Fill-3" fill="#233745"></path>
            <polygon id="Fill-5" fill="#233745" points="23.1644 0.2286 23.1644 5.9006 18.6644 5.9006 18.6644 0.2286 14.9864 0.2286 14.9864 15.1276 18.6644 15.1276 18.6644 9.3426 23.1644 9.3426 23.1644 15.1276 26.8414 15.1276 26.8414 0.2286"></polygon>
            <polygon id="Fill-7" fill="#233745" points="41.3792 0.2286 41.3792 3.6706 44.9012 3.6706 44.9012 15.1276 48.5792 15.1276 48.5792 3.6706 52.1012 3.6706 52.1012 0.2286"></polygon>
            <polygon id="Fill-9" fill="#233745" points="58.1058 11.6856 58.1058 9.2556 62.9208 9.2556 62.9208 5.9896 58.1058 5.9896 58.1058 3.6716 63.8768 3.6716 63.8768 0.2276 54.4308 0.2276 54.4308 15.1276 64.1528 15.1276 64.1528 11.6856"></polygon>
            <polygon id="Fill-11" fill="#233745" points="75.2845 15.1275 66.5985 15.1275 66.5985 0.2285 70.2765 0.2285 70.2765 11.6855 75.2845 11.6855"></polygon>
            <mask id="mask-2" fill="white">
                <use xlink:href="#path-1"></use>
            </mask>
            <g id="Clip-14"></g>
            <polygon id="Fill-13" fill="#233745" mask="url(#mask-2)" points="92.504 15.1278 96.181 15.1278 96.181 0.2288 92.504 0.2288"></polygon>
            <path d="M107.9222,0.2286 L107.9222,7.5666 L99.7762,0.1056 L99.7332,0.0726 C99.5632,-0.0354 99.4782,0.0006 99.4212,0.0306 C99.3682,0.0586 99.3092,0.1206 99.2992,0.2886 L99.2922,0.3766 L99.2922,15.1276 L102.7552,15.1276 L102.7552,7.8306 L110.8722,15.2396 L110.9832,15.3266 C111.1132,15.4036 111.2162,15.3536 111.2322,15.3476 C111.3012,15.3206 111.3632,15.2506 111.3822,15.1026 L111.3842,15.0466 L111.3842,0.2286 L107.9222,0.2286 Z" id="Fill-15" fill="#233745" mask="url(#mask-2)"></path>
            <polygon id="Fill-16" fill="#233745" mask="url(#mask-2)" points="118.0941 11.6856 118.0941 9.2556 122.9071 9.2556 122.9071 5.9896 118.0941 5.9896 118.0941 3.6716 123.8651 3.6716 123.8651 0.2276 114.4171 0.2276 114.4171 15.1276 124.1401 15.1276 124.1401 11.6856"></polygon>
            <path d="M35.7522,0.3263 L35.7192,0.2533 C35.6492,0.1053 35.5532,0.0233 35.4482,0.0233 L35.4362,0.0233 C35.3622,0.0233 35.2652,0.0483 35.1692,0.2383 L33.4952,4.1253 L37.3832,4.1253 L35.7522,0.3263 Z" id="Fill-17" fill="#233745" mask="url(#mask-2)"></path>
            <path d="M37.6702,4.7945 L33.2082,4.7945 L28.7982,15.0445 L28.7612,15.1275 L32.3732,15.1275 L33.0392,13.3435 L37.5962,13.3435 L38.2992,15.1275 L42.1062,15.1275 L37.6702,4.7945 Z M33.9992,10.8195 L35.2872,7.4465 L36.5812,10.8195 L33.9992,10.8195 Z" id="Fill-18" fill="#233745" mask="url(#mask-2)"></path>
        </g>
    </g>
</svg>