<?xml version="1.0" encoding="UTF-8"?>
<svg width="464px" height="278px" viewBox="0 0 464 278" version="1.1" xmlns="http://www.w3.org/2000/svg" xmlns:xlink="http://www.w3.org/1999/xlink">
    <!-- Generator: Sketch 55.1 (78136) - https://sketchapp.com -->
    <title>Ginhan-Pattern-left</title>
    <desc>Created with Sketch.</desc>
    <g id="Ginhan-Pattern-left" stroke="none" stroke-width="1" fill="none" fill-rule="evenodd" opacity="0.05">
        <g id="ginghan-left" transform="translate(348.000000, 139.000000) scale(-1, -1) translate(-348.000000, -139.000000) translate(232.000000, 0.000000)">
            <polygon id="Fill-1" fill="#243746" points="185.569096 0.000162866156 185.569096 46.321678 231.961317 0.000162866156"></polygon>
            <polygon id="Fill-2" fill="#243746" points="0 46.3216529 0 92.6430427 46.3922207 46.3216529"></polygon>
            <polygon id="Fill-3" fill="#243746" points="46.3922583 231.607162 46.3922583 185.285772 92.784479 185.285772"></polygon>
            <polygon id="Fill-5" fill="#243746" points="46.3923461 92.6430302 92.7845668 92.6430302 92.7845668 46.3216404 46.3923461 46.3216404"></polygon>
            <polygon id="Fill-6" fill="#243746" points="46.3922207 277.928589 92.7845668 277.928589 92.7845668 231.6072 46.3922207 231.6072"></polygon>
            <polygon id="Fill-14" fill="#050302" points="100.852659 138.96432 92.784479 147.020181 92.784479 142.992125 96.8185687 138.96432"></polygon>
            <polygon id="Fill-15" fill="#050302" points="108.920989 138.96432 92.7845041 155.076167 92.7845041 151.048112 104.886899 138.96432"></polygon>
            <polygon id="Fill-16" fill="#050302" points="116.98908 138.96432 92.7845417 163.131903 92.7845417 159.104098 112.955116 138.96432"></polygon>
            <polygon id="Fill-17" fill="#050302" points="129.09155 138.96432 92.7844915 175.215695 92.7844915 179.243751 133.125515 138.96432"></polygon>
            <polygon id="Fill-18" fill="#050302" points="94.8016995 185.285622 139.176813 140.978385 139.176813 138.964357 137.159579 138.964357 92.7844664 183.271719 92.7844664 185.285622 92.7844664 185.285747"></polygon>
            <polygon id="Fill-19" fill="#050302" points="125.057473 138.96432 92.7845041 171.18789 92.7845041 167.159959 121.023133 138.96432"></polygon>
            <polygon id="Fill-20" fill="#050302" points="4.03405214 0.000250563317 -3.76419686e-05 4.02818116 -3.76419686e-05 8.05611176 8.06814191 0.000250563317"></polygon>
            <polygon id="Fill-21" fill="#050302" points="12.1023823 0.000162866156 -1.25473229e-05 12.0840799 -1.25473229e-05 16.1120105 16.136472 0.000288147814"></polygon>
            <polygon id="Fill-22" fill="#050302" points="24.2045387 0.000162866156 20.1705744 0.000288147814 0 20.1399411 0 24.1678717"></polygon>
            <polygon id="Fill-23" fill="#050302" points="36.3069209 0.000162866156 -1.25473229e-05 36.2516635 -1.25473229e-05 40.2795941 40.3411362 0.000162866156"></polygon>
            <polygon id="Fill-24" fill="#050302" points="44.3751381 0.000162866156 2.50946458e-05 44.30765 2.50946458e-05 46.3214274 2.50946458e-05 46.321678 2.01713272 46.3214274 46.3922458 2.01431609 46.3922458 0.000162866156"></polygon>
            <polygon id="Fill-25" fill="#050302" points="28.2385908 0.000250563317 -3.76419686e-05 28.19589 -3.76419686e-05 32.2238206 32.2729315 0.000250563317"></polygon>
            <polygon id="Fill-37" fill="#050302" points="4.03405214 92.6430302 -3.76419686e-05 96.6710861 -3.76419686e-05 100.698891 8.06814191 92.6430302"></polygon>
            <polygon id="Fill-38" fill="#050302" points="12.1023823 92.6430302 -1.25473229e-05 104.726947 -1.25473229e-05 108.755003 16.136472 92.6430302"></polygon>
            <polygon id="Fill-39" fill="#050302" points="20.1705995 92.6430302 2.50946458e-05 112.782808 2.50946458e-05 116.810739 24.2045638 92.6430302"></polygon>
            <polygon id="Fill-40" fill="#050302" points="36.3069209 92.6430302 -1.25473229e-05 128.894531 -1.25473229e-05 132.922587 40.3411362 92.6430302"></polygon>
            <polygon id="Fill-41" fill="#050302" points="44.3751381 92.6430302 2.50946458e-05 136.950392 2.50946458e-05 138.964295 2.50946458e-05 138.96442 2.01713272 138.964295 46.3922458 94.6571834 46.3922458 92.6430302"></polygon>
            <polygon id="Fill-42" fill="#050302" points="10.0852746 138.96432 46.3922081 102.712944 46.3919572 98.6850138 6.05118486 138.96432"></polygon>
            <polygon id="Fill-43" fill="#050302" points="18.1533664 138.96432 46.3922458 110.768806 46.3922458 106.740875 14.1192766 138.96432"></polygon>
            <polygon id="Fill-44" fill="#050302" points="26.2217592 138.96432 46.3922081 118.824667 46.3919572 114.796736 22.1874185 138.96432"></polygon>
            <polygon id="Fill-45" fill="#050302" points="34.2898509 138.96432 46.3919948 126.880653 46.3922458 122.852597 30.2557612 138.96432"></polygon>
            <polygon id="Fill-46" fill="#050302" points="42.3581811 138.96432 46.3922708 134.936514 46.3922708 130.908459 38.3239658 138.96432"></polygon>
            <polygon id="Fill-47" fill="#050302" points="28.2385908 92.6430302 -3.76419686e-05 120.83867 -3.76419686e-05 124.8666 32.2729315 92.6430302"></polygon>
            <polygon id="Fill-70" fill="#050302" points="147.24498 46.3216529 139.1768 54.3775141 139.1768 50.3495835 143.21089 46.3216529"></polygon>
            <polygon id="Fill-71" fill="#050302" points="155.313247 46.3216529 139.176888 62.4335006 139.176888 58.4054447 151.279283 46.3216529"></polygon>
            <polygon id="Fill-72" fill="#050302" points="163.381401 46.3215903 139.176863 70.4892991 139.176863 66.4613685 159.347437 46.3215903"></polygon>
            <polygon id="Fill-73" fill="#050302" points="175.483809 46.3215903 139.176875 82.5730909 139.176875 86.6010215 179.517773 46.3215903"></polygon>
            <polygon id="Fill-74" fill="#050302" points="141.193958 92.6428924 185.569071 48.3356558 185.569071 46.3216279 183.551963 46.3216279 139.17685 90.6289897 139.17685 92.6428924 139.17685 92.6430177"></polygon>
            <polygon id="Fill-75" fill="#050302" points="149.262112 92.6428924 185.569046 56.391517 185.568795 52.3635864 145.228022 92.6428924"></polygon>
            <polygon id="Fill-76" fill="#050302" points="157.330129 92.6428924 185.569134 64.4473782 185.569134 60.4194476 153.296164 92.6428924"></polygon>
            <polygon id="Fill-77" fill="#050302" points="165.398534 92.6428924 185.569108 72.5032394 185.568858 68.4753088 161.364319 92.6428924"></polygon>
            <polygon id="Fill-78" fill="#050302" points="173.466676 92.6428924 185.56882 80.5591006 185.569071 76.53117 169.432712 92.6428924"></polygon>
            <polygon id="Fill-79" fill="#050302" points="181.535069 92.6428924 185.569033 88.6149618 185.569033 84.5871565 177.500728 92.6428924"></polygon>
            <polygon id="Fill-80" fill="#050302" points="171.449794 46.3216529 139.176825 78.545223 139.176825 74.5172924 167.415454 46.3216529"></polygon>
            <polygon id="Fill-81" fill="#050302" points="96.8186064 0.000250563317 92.7845166 4.02818116 92.7845166 8.05611176 100.852696 0.000250563317"></polygon>
            <polygon id="Fill-82" fill="#050302" points="104.886937 0.000162866156 92.7845417 12.0840799 92.7845417 16.1120105 108.921026 0.000288147814"></polygon>
            <polygon id="Fill-83" fill="#050302" points="116.989093 0.000162866156 112.955003 0.000288147814 92.7845542 20.1399411 92.7845542 24.1678717"></polygon>
            <polygon id="Fill-84" fill="#050302" points="129.091576 0.000162866156 92.7845166 36.2516635 92.7845166 40.2795941 133.12554 0.000162866156"></polygon>
            <polygon id="Fill-85" fill="#050302" points="137.159579 0.000162866156 92.7845919 44.30765 92.7845919 46.3214274 92.7845919 46.321678 94.8016995 46.3214274 139.176813 2.01431609 139.176813 0.000162866156"></polygon>
            <polygon id="Fill-86" fill="#050302" points="102.869791 46.321465 139.17685 10.0700896 139.176599 6.04215899 98.8357015 46.321465"></polygon>
            <polygon id="Fill-87" fill="#050302" points="110.937883 46.321465 139.176888 18.1259508 139.176888 14.0980202 106.903919 46.321465"></polygon>
            <polygon id="Fill-88" fill="#050302" points="119.006276 46.321465 139.17685 26.181812 139.176599 22.1538814 114.971935 46.321465"></polygon>
            <polygon id="Fill-89" fill="#050302" points="127.074355 46.321465 139.176624 34.2376732 139.176875 30.2097426 123.040265 46.321465"></polygon>
            <polygon id="Fill-90" fill="#050302" points="135.14276 46.321465 139.17685 42.2935344 139.17685 38.2657291 131.10842 46.321465"></polygon>
            <polygon id="Fill-91" fill="#050302" points="121.023145 0.000250563317 92.7845166 28.19589 92.7845166 32.2238206 125.057486 0.000250563317"></polygon>
            <polygon id="Fill-92" fill="#050302" points="4.03405214 231.6072 -3.76419686e-05 235.63513 -3.76419686e-05 239.663061 8.06814191 231.6072"></polygon>
            <polygon id="Fill-93" fill="#050302" points="12.1023823 231.6072 -1.25473229e-05 243.691117 -1.25473229e-05 247.719173 16.136472 231.6072"></polygon>
            <polygon id="Fill-94" fill="#050302" points="20.1705995 231.6072 2.50946458e-05 251.746853 2.50946458e-05 255.774909 24.2045638 231.6072"></polygon>
            <polygon id="Fill-95" fill="#050302" points="36.3069209 231.6072 -1.25473229e-05 267.8587 -1.25473229e-05 271.886631 40.3411362 231.6072"></polygon>
            <polygon id="Fill-96" fill="#050302" points="44.3751381 231.6072 2.50946458e-05 275.914562 2.50946458e-05 277.928464 2.50946458e-05 277.928589 2.01713272 277.928464 46.3922458 233.621228 46.3922458 231.6072"></polygon>
            <polygon id="Fill-97" fill="#050302" points="6.05124759 277.928477 10.0853374 277.928477 46.3922708 241.676976 46.3920199 237.649171"></polygon>
            <polygon id="Fill-98" fill="#050302" points="14.1192389 277.928477 18.1534542 277.928477 46.3922081 249.732963 46.3922081 245.705032"></polygon>
            <polygon id="Fill-99" fill="#050302" points="22.1874561 277.928477 26.2216714 277.928477 46.3922458 257.788824 46.3919948 253.760893"></polygon>
            <polygon id="Fill-100" fill="#050302" points="30.2557863 277.928477 34.289876 277.928477 46.3920199 265.844685 46.3922708 261.816754"></polygon>
            <polygon id="Fill-101" fill="#050302" points="38.3238905 277.928477 42.3581058 277.928477 46.3921956 273.900546 46.3921956 269.872741"></polygon>
            <polygon id="Fill-102" fill="#050302" points="28.2385908 231.6072 -3.76419686e-05 259.802839 -3.76419686e-05 263.830644 32.2729315 231.6072"></polygon>
        </g>
        <g id="ginghan-right" transform="translate(301.500000, 115.500000) scale(-1, -1) translate(-301.500000, -115.500000) translate(232.000000, 0.000000)">
            <polygon id="Fill-4" fill="#243746" points="0.000112702703 184.563479 46.300637 184.563479 46.300637 138.170498 0.000112702703 138.170498"></polygon>
            <polygon id="Fill-7" fill="#243746" points="92.6011614 46.3931065 138.901686 46.3931065 138.901686 2.27373675e-13 92.6011614 2.27373675e-13"></polygon>
            <polygon id="Fill-8" fill="#050302" points="100.653356 184.563441 92.6011238 192.631753 92.6011238 188.597597 96.6273652 184.563441"></polygon>
            <polygon id="Fill-9" fill="#050302" points="108.705802 184.563441 92.6012114 200.70019 92.6012114 196.665909 104.679685 184.563441"></polygon>
            <polygon id="Fill-10" fill="#050302" points="116.757871 184.563441 92.6011739 208.768377 92.6011739 204.734346 112.73188 184.563441"></polygon>
            <polygon id="Fill-11" fill="#050302" points="128.836358 184.563441 92.6011864 220.870844 92.6011864 224.905126 132.862474 184.563441"></polygon>
            <polygon id="Fill-12" fill="#050302" points="136.888565 184.563479 92.6011614 228.939319 92.6011614 230.956335 92.6011614 230.95646 94.6142821 230.956335 138.901686 186.58062 138.901686 184.563479"></polygon>
            <polygon id="Fill-13" fill="#050302" points="124.810329 184.563441 92.6011488 216.836814 92.6011488 212.802658 120.784088 184.563441"></polygon>
            <polygon id="Fill-26" fill="#050302" points="100.653356 91.7774167 92.6011238 99.8457285 92.6011238 95.8114471 96.6273652 91.7774167"></polygon>
            <polygon id="Fill-27" fill="#050302" points="108.705802 91.7774167 92.6012114 107.914166 92.6012114 103.879884 104.679685 91.7774167"></polygon>
            <polygon id="Fill-28" fill="#050302" points="116.757871 91.7774167 92.6011739 115.982352 92.6011739 111.948322 112.73188 91.7774167"></polygon>
            <polygon id="Fill-29" fill="#050302" points="128.836358 91.7774167 92.6011864 128.08482 92.6011864 132.119101 132.862474 91.7774167"></polygon>
            <polygon id="Fill-30" fill="#050302" points="136.888565 91.7774167 92.6011614 136.153257 92.6011614 138.170272 92.6011614 138.170398 94.6142821 138.170272 138.901686 93.7946829 138.901686 91.7774167"></polygon>
            <polygon id="Fill-31" fill="#050302" points="98.6404233 138.170272 102.66654 138.170272 138.901585 101.862744 138.90146 97.8285878"></polygon>
            <polygon id="Fill-32" fill="#050302" points="106.692581 138.170272 110.718697 138.170272 138.901636 109.931056 138.901636 105.897151"></polygon>
            <polygon id="Fill-33" fill="#050302" points="114.744738 138.170272 118.771105 138.170272 138.901686 117.999493 138.901435 113.965337"></polygon>
            <polygon id="Fill-34" fill="#050302" points="122.797121 138.170272 126.823237 138.170272 138.90146 126.067805 138.901585 122.033523"></polygon>
            <polygon id="Fill-35" fill="#050302" points="130.849378 138.170272 134.875745 138.170272 138.901611 134.136116 138.901611 130.102086"></polygon>
            <polygon id="Fill-36" fill="#050302" points="124.810329 91.7774167 92.6011488 124.050789 92.6011488 120.016633 120.784088 91.7774167"></polygon>
            <polygon id="Fill-48" fill="#050302" points="54.3527943 138.170423 46.3005619 146.238735 46.3005619 142.204579 50.3268033 138.170423"></polygon>
            <polygon id="Fill-49" fill="#050302" points="62.4052396 138.170423 46.3006495 154.307172 46.3006495 150.27289 58.3791234 138.170423"></polygon>
            <polygon id="Fill-50" fill="#050302" points="70.4573218 138.170423 46.3006245 162.375358 46.3006245 158.341328 66.4313308 138.170423"></polygon>
            <polygon id="Fill-51" fill="#050302" points="82.5358082 138.170423 46.300637 174.477826 46.300637 178.512107 86.5619244 138.170423"></polygon>
            <polygon id="Fill-52" fill="#050302" points="48.3137327 184.563316 92.6011363 140.187601 92.6011363 138.17046 90.5880156 138.17046 46.300612 182.546301 46.300612 184.563316 46.300612 184.563441"></polygon>
            <polygon id="Fill-53" fill="#050302" points="56.3659276 184.563316 92.6010987 148.255913 92.6008483 144.221632 52.3399366 184.563316"></polygon>
            <polygon id="Fill-54" fill="#050302" points="64.418135 184.563316 92.6011989 156.324099 92.6011989 152.290069 60.3920187 184.563316"></polygon>
            <polygon id="Fill-55" fill="#050302" points="72.4705803 184.563316 92.6011614 164.392411 92.6009109 160.358381 68.4442136 184.563316"></polygon>
            <polygon id="Fill-56" fill="#050302" points="80.5226624 184.563316 92.6008859 172.460848 92.6011363 168.426692 76.4966714 184.563316"></polygon>
            <polygon id="Fill-57" fill="#050302" points="88.5751077 184.563316 92.6010987 180.52916 92.6010987 176.495004 84.5488663 184.563316"></polygon>
            <polygon id="Fill-58" fill="#050302" points="78.5097671 138.170423 46.3005869 170.443795 46.3005869 166.40964 74.4835257 138.170423"></polygon>
            <polygon id="Fill-59" fill="#050302" points="8.05223243 184.563441 -1.13686838e-13 192.631879 -1.13686838e-13 188.597597 4.02611622 184.563441"></polygon>
            <polygon id="Fill-60" fill="#050302" points="16.1045525 184.563441 8.76576577e-05 200.70019 8.76576577e-05 196.666035 12.0785615 184.563441"></polygon>
            <polygon id="Fill-61" fill="#050302" points="24.1567599 184.563441 6.26126128e-05 208.768502 6.26126128e-05 204.734346 20.1307689 184.563441"></polygon>
            <polygon id="Fill-62" fill="#050302" points="36.2352463 184.563441 7.51351352e-05 220.87097 7.51351352e-05 224.905126 40.2612373 184.563441"></polygon>
            <polygon id="Fill-63" fill="#050302" points="44.2874036 184.563479 6.82121026e-13 228.939319 6.82121026e-13 230.956335 6.82121026e-13 230.95646 2.01324595 230.956335 46.3006495 186.58062 46.3006495 184.563479"></polygon>
            <polygon id="Fill-64" fill="#050302" points="6.03926198 230.956347 10.0653782 230.956347 46.3005494 194.648819 46.3004241 190.614788"></polygon>
            <polygon id="Fill-65" fill="#050302" points="14.0914193 230.956347 18.1175355 230.956347 46.3005995 202.717256 46.3005995 198.6831"></polygon>
            <polygon id="Fill-66" fill="#050302" points="22.1435641 230.956347 26.1699307 230.956347 46.300637 210.785568 46.3003866 206.751412"></polygon>
            <polygon id="Fill-67" fill="#050302" points="30.1960595 230.956347 34.2221757 230.956347 46.3003991 218.853879 46.3006495 214.819724"></polygon>
            <polygon id="Fill-68" fill="#050302" points="38.2481166 230.956347 42.2744832 230.956347 46.3005995 226.922191 46.3005995 222.888161"></polygon>
            <polygon id="Fill-69" fill="#050302" points="32.2092052 184.563441 2.5045045e-05 216.836814 2.5045045e-05 212.802658 28.1828386 184.563441"></polygon>
        </g>
        <g id="ginghan-left" transform="translate(116.000000, 139.000000) scale(-1, -1) translate(-116.000000, -139.000000) ">
            <polygon id="Fill-1" fill="#243746" points="185.569096 0.000162866156 185.569096 46.321678 231.961317 0.000162866156"></polygon>
            <polygon id="Fill-2" fill="#243746" points="0 46.3216529 0 92.6430427 46.3922207 46.3216529"></polygon>
            <polygon id="Fill-3" fill="#243746" points="46.3922583 231.607162 46.3922583 185.285772 92.784479 185.285772"></polygon>
            <polygon id="Fill-5" fill="#243746" points="46.3923461 92.6430302 92.7845668 92.6430302 92.7845668 46.3216404 46.3923461 46.3216404"></polygon>
            <polygon id="Fill-6" fill="#243746" points="46.3922207 277.928589 92.7845668 277.928589 92.7845668 231.6072 46.3922207 231.6072"></polygon>
            <polygon id="Fill-14" fill="#050302" points="100.852659 138.96432 92.784479 147.020181 92.784479 142.992125 96.8185687 138.96432"></polygon>
            <polygon id="Fill-15" fill="#050302" points="108.920989 138.96432 92.7845041 155.076167 92.7845041 151.048112 104.886899 138.96432"></polygon>
            <polygon id="Fill-16" fill="#050302" points="116.98908 138.96432 92.7845417 163.131903 92.7845417 159.104098 112.955116 138.96432"></polygon>
            <polygon id="Fill-17" fill="#050302" points="129.09155 138.96432 92.7844915 175.215695 92.7844915 179.243751 133.125515 138.96432"></polygon>
            <polygon id="Fill-18" fill="#050302" points="94.8016995 185.285622 139.176813 140.978385 139.176813 138.964357 137.159579 138.964357 92.7844664 183.271719 92.7844664 185.285622 92.7844664 185.285747"></polygon>
            <polygon id="Fill-19" fill="#050302" points="125.057473 138.96432 92.7845041 171.18789 92.7845041 167.159959 121.023133 138.96432"></polygon>
            <polygon id="Fill-20" fill="#050302" points="4.03405214 0.000250563317 -3.76419686e-05 4.02818116 -3.76419686e-05 8.05611176 8.06814191 0.000250563317"></polygon>
            <polygon id="Fill-21" fill="#050302" points="12.1023823 0.000162866156 -1.25473229e-05 12.0840799 -1.25473229e-05 16.1120105 16.136472 0.000288147814"></polygon>
            <polygon id="Fill-22" fill="#050302" points="24.2045387 0.000162866156 20.1705744 0.000288147814 0 20.1399411 0 24.1678717"></polygon>
            <polygon id="Fill-23" fill="#050302" points="36.3069209 0.000162866156 -1.25473229e-05 36.2516635 -1.25473229e-05 40.2795941 40.3411362 0.000162866156"></polygon>
            <polygon id="Fill-24" fill="#050302" points="44.3751381 0.000162866156 2.50946458e-05 44.30765 2.50946458e-05 46.3214274 2.50946458e-05 46.321678 2.01713272 46.3214274 46.3922458 2.01431609 46.3922458 0.000162866156"></polygon>
            <polygon id="Fill-25" fill="#050302" points="28.2385908 0.000250563317 -3.76419686e-05 28.19589 -3.76419686e-05 32.2238206 32.2729315 0.000250563317"></polygon>
            <polygon id="Fill-37" fill="#050302" points="4.03405214 92.6430302 -3.76419686e-05 96.6710861 -3.76419686e-05 100.698891 8.06814191 92.6430302"></polygon>
            <polygon id="Fill-38" fill="#050302" points="12.1023823 92.6430302 -1.25473229e-05 104.726947 -1.25473229e-05 108.755003 16.136472 92.6430302"></polygon>
            <polygon id="Fill-39" fill="#050302" points="20.1705995 92.6430302 2.50946458e-05 112.782808 2.50946458e-05 116.810739 24.2045638 92.6430302"></polygon>
            <polygon id="Fill-40" fill="#050302" points="36.3069209 92.6430302 -1.25473229e-05 128.894531 -1.25473229e-05 132.922587 40.3411362 92.6430302"></polygon>
            <polygon id="Fill-41" fill="#050302" points="44.3751381 92.6430302 2.50946458e-05 136.950392 2.50946458e-05 138.964295 2.50946458e-05 138.96442 2.01713272 138.964295 46.3922458 94.6571834 46.3922458 92.6430302"></polygon>
            <polygon id="Fill-42" fill="#050302" points="10.0852746 138.96432 46.3922081 102.712944 46.3919572 98.6850138 6.05118486 138.96432"></polygon>
            <polygon id="Fill-43" fill="#050302" points="18.1533664 138.96432 46.3922458 110.768806 46.3922458 106.740875 14.1192766 138.96432"></polygon>
            <polygon id="Fill-44" fill="#050302" points="26.2217592 138.96432 46.3922081 118.824667 46.3919572 114.796736 22.1874185 138.96432"></polygon>
            <polygon id="Fill-45" fill="#050302" points="34.2898509 138.96432 46.3919948 126.880653 46.3922458 122.852597 30.2557612 138.96432"></polygon>
            <polygon id="Fill-46" fill="#050302" points="42.3581811 138.96432 46.3922708 134.936514 46.3922708 130.908459 38.3239658 138.96432"></polygon>
            <polygon id="Fill-47" fill="#050302" points="28.2385908 92.6430302 -3.76419686e-05 120.83867 -3.76419686e-05 124.8666 32.2729315 92.6430302"></polygon>
            <polygon id="Fill-70" fill="#050302" points="147.24498 46.3216529 139.1768 54.3775141 139.1768 50.3495835 143.21089 46.3216529"></polygon>
            <polygon id="Fill-71" fill="#050302" points="155.313247 46.3216529 139.176888 62.4335006 139.176888 58.4054447 151.279283 46.3216529"></polygon>
            <polygon id="Fill-72" fill="#050302" points="163.381401 46.3215903 139.176863 70.4892991 139.176863 66.4613685 159.347437 46.3215903"></polygon>
            <polygon id="Fill-73" fill="#050302" points="175.483809 46.3215903 139.176875 82.5730909 139.176875 86.6010215 179.517773 46.3215903"></polygon>
            <polygon id="Fill-74" fill="#050302" points="141.193958 92.6428924 185.569071 48.3356558 185.569071 46.3216279 183.551963 46.3216279 139.17685 90.6289897 139.17685 92.6428924 139.17685 92.6430177"></polygon>
            <polygon id="Fill-75" fill="#050302" points="149.262112 92.6428924 185.569046 56.391517 185.568795 52.3635864 145.228022 92.6428924"></polygon>
            <polygon id="Fill-76" fill="#050302" points="157.330129 92.6428924 185.569134 64.4473782 185.569134 60.4194476 153.296164 92.6428924"></polygon>
            <polygon id="Fill-77" fill="#050302" points="165.398534 92.6428924 185.569108 72.5032394 185.568858 68.4753088 161.364319 92.6428924"></polygon>
            <polygon id="Fill-78" fill="#050302" points="173.466676 92.6428924 185.56882 80.5591006 185.569071 76.53117 169.432712 92.6428924"></polygon>
            <polygon id="Fill-79" fill="#050302" points="181.535069 92.6428924 185.569033 88.6149618 185.569033 84.5871565 177.500728 92.6428924"></polygon>
            <polygon id="Fill-80" fill="#050302" points="171.449794 46.3216529 139.176825 78.545223 139.176825 74.5172924 167.415454 46.3216529"></polygon>
            <polygon id="Fill-81" fill="#050302" points="96.8186064 0.000250563317 92.7845166 4.02818116 92.7845166 8.05611176 100.852696 0.000250563317"></polygon>
            <polygon id="Fill-82" fill="#050302" points="104.886937 0.000162866156 92.7845417 12.0840799 92.7845417 16.1120105 108.921026 0.000288147814"></polygon>
            <polygon id="Fill-83" fill="#050302" points="116.989093 0.000162866156 112.955003 0.000288147814 92.7845542 20.1399411 92.7845542 24.1678717"></polygon>
            <polygon id="Fill-84" fill="#050302" points="129.091576 0.000162866156 92.7845166 36.2516635 92.7845166 40.2795941 133.12554 0.000162866156"></polygon>
            <polygon id="Fill-85" fill="#050302" points="137.159579 0.000162866156 92.7845919 44.30765 92.7845919 46.3214274 92.7845919 46.321678 94.8016995 46.3214274 139.176813 2.01431609 139.176813 0.000162866156"></polygon>
            <polygon id="Fill-86" fill="#050302" points="102.869791 46.321465 139.17685 10.0700896 139.176599 6.04215899 98.8357015 46.321465"></polygon>
            <polygon id="Fill-87" fill="#050302" points="110.937883 46.321465 139.176888 18.1259508 139.176888 14.0980202 106.903919 46.321465"></polygon>
            <polygon id="Fill-88" fill="#050302" points="119.006276 46.321465 139.17685 26.181812 139.176599 22.1538814 114.971935 46.321465"></polygon>
            <polygon id="Fill-89" fill="#050302" points="127.074355 46.321465 139.176624 34.2376732 139.176875 30.2097426 123.040265 46.321465"></polygon>
            <polygon id="Fill-90" fill="#050302" points="135.14276 46.321465 139.17685 42.2935344 139.17685 38.2657291 131.10842 46.321465"></polygon>
            <polygon id="Fill-91" fill="#050302" points="121.023145 0.000250563317 92.7845166 28.19589 92.7845166 32.2238206 125.057486 0.000250563317"></polygon>
            <polygon id="Fill-92" fill="#050302" points="4.03405214 231.6072 -3.76419686e-05 235.63513 -3.76419686e-05 239.663061 8.06814191 231.6072"></polygon>
            <polygon id="Fill-93" fill="#050302" points="12.1023823 231.6072 -1.25473229e-05 243.691117 -1.25473229e-05 247.719173 16.136472 231.6072"></polygon>
            <polygon id="Fill-94" fill="#050302" points="20.1705995 231.6072 2.50946458e-05 251.746853 2.50946458e-05 255.774909 24.2045638 231.6072"></polygon>
            <polygon id="Fill-95" fill="#050302" points="36.3069209 231.6072 -1.25473229e-05 267.8587 -1.25473229e-05 271.886631 40.3411362 231.6072"></polygon>
            <polygon id="Fill-96" fill="#050302" points="44.3751381 231.6072 2.50946458e-05 275.914562 2.50946458e-05 277.928464 2.50946458e-05 277.928589 2.01713272 277.928464 46.3922458 233.621228 46.3922458 231.6072"></polygon>
            <polygon id="Fill-97" fill="#050302" points="6.05124759 277.928477 10.0853374 277.928477 46.3922708 241.676976 46.3920199 237.649171"></polygon>
            <polygon id="Fill-98" fill="#050302" points="14.1192389 277.928477 18.1534542 277.928477 46.3922081 249.732963 46.3922081 245.705032"></polygon>
            <polygon id="Fill-99" fill="#050302" points="22.1874561 277.928477 26.2216714 277.928477 46.3922458 257.788824 46.3919948 253.760893"></polygon>
            <polygon id="Fill-100" fill="#050302" points="30.2557863 277.928477 34.289876 277.928477 46.3920199 265.844685 46.3922708 261.816754"></polygon>
            <polygon id="Fill-101" fill="#050302" points="38.3238905 277.928477 42.3581058 277.928477 46.3921956 273.900546 46.3921956 269.872741"></polygon>
            <polygon id="Fill-102" fill="#050302" points="28.2385908 231.6072 -3.76419686e-05 259.802839 -3.76419686e-05 263.830644 32.2729315 231.6072"></polygon>
        </g>
        <g id="ginghan-right" transform="translate(69.500000, 115.500000) scale(-1, -1) translate(-69.500000, -115.500000) ">
            <polygon id="Fill-4" fill="#243746" points="0.000112702703 184.563479 46.300637 184.563479 46.300637 138.170498 0.000112702703 138.170498"></polygon>
            <polygon id="Fill-7" fill="#243746" points="92.6011614 46.3931065 138.901686 46.3931065 138.901686 2.27373675e-13 92.6011614 2.27373675e-13"></polygon>
            <polygon id="Fill-8" fill="#050302" points="100.653356 184.563441 92.6011238 192.631753 92.6011238 188.597597 96.6273652 184.563441"></polygon>
            <polygon id="Fill-9" fill="#050302" points="108.705802 184.563441 92.6012114 200.70019 92.6012114 196.665909 104.679685 184.563441"></polygon>
            <polygon id="Fill-10" fill="#050302" points="116.757871 184.563441 92.6011739 208.768377 92.6011739 204.734346 112.73188 184.563441"></polygon>
            <polygon id="Fill-11" fill="#050302" points="128.836358 184.563441 92.6011864 220.870844 92.6011864 224.905126 132.862474 184.563441"></polygon>
            <polygon id="Fill-12" fill="#050302" points="136.888565 184.563479 92.6011614 228.939319 92.6011614 230.956335 92.6011614 230.95646 94.6142821 230.956335 138.901686 186.58062 138.901686 184.563479"></polygon>
            <polygon id="Fill-13" fill="#050302" points="124.810329 184.563441 92.6011488 216.836814 92.6011488 212.802658 120.784088 184.563441"></polygon>
            <polygon id="Fill-26" fill="#050302" points="100.653356 91.7774167 92.6011238 99.8457285 92.6011238 95.8114471 96.6273652 91.7774167"></polygon>
            <polygon id="Fill-27" fill="#050302" points="108.705802 91.7774167 92.6012114 107.914166 92.6012114 103.879884 104.679685 91.7774167"></polygon>
            <polygon id="Fill-28" fill="#050302" points="116.757871 91.7774167 92.6011739 115.982352 92.6011739 111.948322 112.73188 91.7774167"></polygon>
            <polygon id="Fill-29" fill="#050302" points="128.836358 91.7774167 92.6011864 128.08482 92.6011864 132.119101 132.862474 91.7774167"></polygon>
            <polygon id="Fill-30" fill="#050302" points="136.888565 91.7774167 92.6011614 136.153257 92.6011614 138.170272 92.6011614 138.170398 94.6142821 138.170272 138.901686 93.7946829 138.901686 91.7774167"></polygon>
            <polygon id="Fill-31" fill="#050302" points="98.6404233 138.170272 102.66654 138.170272 138.901585 101.862744 138.90146 97.8285878"></polygon>
            <polygon id="Fill-32" fill="#050302" points="106.692581 138.170272 110.718697 138.170272 138.901636 109.931056 138.901636 105.897151"></polygon>
            <polygon id="Fill-33" fill="#050302" points="114.744738 138.170272 118.771105 138.170272 138.901686 117.999493 138.901435 113.965337"></polygon>
            <polygon id="Fill-34" fill="#050302" points="122.797121 138.170272 126.823237 138.170272 138.90146 126.067805 138.901585 122.033523"></polygon>
            <polygon id="Fill-35" fill="#050302" points="130.849378 138.170272 134.875745 138.170272 138.901611 134.136116 138.901611 130.102086"></polygon>
            <polygon id="Fill-36" fill="#050302" points="124.810329 91.7774167 92.6011488 124.050789 92.6011488 120.016633 120.784088 91.7774167"></polygon>
            <polygon id="Fill-48" fill="#050302" points="54.3527943 138.170423 46.3005619 146.238735 46.3005619 142.204579 50.3268033 138.170423"></polygon>
            <polygon id="Fill-49" fill="#050302" points="62.4052396 138.170423 46.3006495 154.307172 46.3006495 150.27289 58.3791234 138.170423"></polygon>
            <polygon id="Fill-50" fill="#050302" points="70.4573218 138.170423 46.3006245 162.375358 46.3006245 158.341328 66.4313308 138.170423"></polygon>
            <polygon id="Fill-51" fill="#050302" points="82.5358082 138.170423 46.300637 174.477826 46.300637 178.512107 86.5619244 138.170423"></polygon>
            <polygon id="Fill-52" fill="#050302" points="48.3137327 184.563316 92.6011363 140.187601 92.6011363 138.17046 90.5880156 138.17046 46.300612 182.546301 46.300612 184.563316 46.300612 184.563441"></polygon>
            <polygon id="Fill-53" fill="#050302" points="56.3659276 184.563316 92.6010987 148.255913 92.6008483 144.221632 52.3399366 184.563316"></polygon>
            <polygon id="Fill-54" fill="#050302" points="64.418135 184.563316 92.6011989 156.324099 92.6011989 152.290069 60.3920187 184.563316"></polygon>
            <polygon id="Fill-55" fill="#050302" points="72.4705803 184.563316 92.6011614 164.392411 92.6009109 160.358381 68.4442136 184.563316"></polygon>
            <polygon id="Fill-56" fill="#050302" points="80.5226624 184.563316 92.6008859 172.460848 92.6011363 168.426692 76.4966714 184.563316"></polygon>
            <polygon id="Fill-57" fill="#050302" points="88.5751077 184.563316 92.6010987 180.52916 92.6010987 176.495004 84.5488663 184.563316"></polygon>
            <polygon id="Fill-58" fill="#050302" points="78.5097671 138.170423 46.3005869 170.443795 46.3005869 166.40964 74.4835257 138.170423"></polygon>
            <polygon id="Fill-59" fill="#050302" points="8.05223243 184.563441 -1.13686838e-13 192.631879 -1.13686838e-13 188.597597 4.02611622 184.563441"></polygon>
            <polygon id="Fill-60" fill="#050302" points="16.1045525 184.563441 8.76576577e-05 200.70019 8.76576577e-05 196.666035 12.0785615 184.563441"></polygon>
            <polygon id="Fill-61" fill="#050302" points="24.1567599 184.563441 6.26126128e-05 208.768502 6.26126128e-05 204.734346 20.1307689 184.563441"></polygon>
            <polygon id="Fill-62" fill="#050302" points="36.2352463 184.563441 7.51351352e-05 220.87097 7.51351352e-05 224.905126 40.2612373 184.563441"></polygon>
            <polygon id="Fill-63" fill="#050302" points="44.2874036 184.563479 6.82121026e-13 228.939319 6.82121026e-13 230.956335 6.82121026e-13 230.95646 2.01324595 230.956335 46.3006495 186.58062 46.3006495 184.563479"></polygon>
            <polygon id="Fill-64" fill="#050302" points="6.03926198 230.956347 10.0653782 230.956347 46.3005494 194.648819 46.3004241 190.614788"></polygon>
            <polygon id="Fill-65" fill="#050302" points="14.0914193 230.956347 18.1175355 230.956347 46.3005995 202.717256 46.3005995 198.6831"></polygon>
            <polygon id="Fill-66" fill="#050302" points="22.1435641 230.956347 26.1699307 230.956347 46.300637 210.785568 46.3003866 206.751412"></polygon>
            <polygon id="Fill-67" fill="#050302" points="30.1960595 230.956347 34.2221757 230.956347 46.3003991 218.853879 46.3006495 214.819724"></polygon>
            <polygon id="Fill-68" fill="#050302" points="38.2481166 230.956347 42.2744832 230.956347 46.3005995 226.922191 46.3005995 222.888161"></polygon>
            <polygon id="Fill-69" fill="#050302" points="32.2092052 184.563441 2.5045045e-05 216.836814 2.5045045e-05 212.802658 28.1828386 184.563441"></polygon>
        </g>
    </g>
</svg>