<?xml version="1.0" encoding="UTF-8"?>
<svg  viewBox="0 0 132 60" version="1.1" xmlns="http://www.w3.org/2000/svg" xmlns:xlink="http://www.w3.org/1999/xlink">
    <title>endy_logo_tab_pink_RGB</title>
    <g id="on-load" stroke="none" stroke-width="1" fill="none" fill-rule="evenodd">
        <g id="Desktop-HD" transform="translate(-654.000000, -54.000000)">
            <g id="nav" transform="translate(0.000000, 54.000000)">
                <g id="endy_logo_tab_pink_RGB" transform="translate(654.000000, 0.000000)">
                    <polygon id="Fill-1" fill="#B22352" points="0 59.985 132 59.985 132 0 0 0"></polygon>
                    <path d="M25.29125,32.60325 L25.29125,32.1865 C27.1865,32.338 29.14925,32.1215 30.88575,31.25475 C32.05375,30.67175 33.12225,29.61375 33.3775,28.143 C31.98125,29.4475 29.894,29.30775 28.2085,29.1055 C27.233,28.9885 26.263,28.801 25.29125,28.6385 L25.29125,22.673 L38.63825,22.673 L38.63825,17.79725 L19.84575,17.79725 L19.84575,28.41225 C18.90375,28.55725 17.9805,28.82225 17.11475,29.2545 C15.94675,29.8375 14.87825,30.89525 14.62325,32.366 C16.0195,31.0615 18.1065,31.20125 19.792,31.40325 L19.84575,31.4115 L19.84575,42.71175 L38.81625,42.71175 L38.81625,37.83525 L25.29125,37.83525 L25.29125,32.60325" id="Fill-3" fill="#FFFFFE"></path>
                    <polyline id="Fill-4" fill="#FFFFFE" points="60.398 33.1375 48.72375 17.79725 43.6695 17.79725 43.6695 42.71175 49.07925 42.71175 49.07925 26.873 61.14525 42.71175 65.808 42.71175 65.808 17.79725 60.398 17.79725 60.398 33.1375"></polyline>
                    <path d="M87.888,30.3255 C87.888,34.7385 84.86225,37.76475 80.378,37.76475 L76.14225,37.76475 L76.14225,22.7445 L80.378,22.7445 C84.86225,22.7445 87.888,25.841 87.888,30.25425 L87.888,30.3255 Z M80.378,17.79725 L70.66125,17.79725 L70.66125,42.71175 L80.378,42.71175 C88.20825,42.71175 93.6185,37.26575 93.6185,30.25425 L93.6185,30.18275 C93.6185,23.17175 88.20825,17.79725 80.378,17.79725 L80.378,17.79725 Z" id="Fill-5" fill="#FFFFFE"></path>
                    <polyline id="Fill-6" fill="#FFFFFE" points="111.16775 17.79725 105.117 27.79825 99.173 17.79725 92.76625 17.79725 102.341 32.888 102.341 42.71175 107.82225 42.71175 107.82225 32.7815 117.3965 17.79725 111.16775 17.79725"></polyline>
                </g>
            </g>
        </g>
    </g>
</svg> 